<?xml version="1.0" encoding="UTF-8"?> <svg xmlns="http://www.w3.org/2000/svg" id="Layer_1" data-name="Layer 1" viewBox="0 0 1200 675"><defs><style> .cls-1 { fill: #356df3; stroke-width: 0px; } </style></defs><path id="Path_5110" data-name="Path 5110" class="cls-1" d="M412.93,277.03l-62.02-32.88c-7.6-4.04-16.71-4.05-24.32-.03l-62.67,33.04c-12.17,5.81-19.56,18.44-18.67,31.89v15.74h24.38v-21.55l69.13-36.86,68.62,36.86v21.52h24.38v-15.74c.87-13.52-6.59-26.2-18.84-31.99Z"></path><path id="Path_5111" data-name="Path 5111" class="cls-1" d="M407.33,373.8l-56.37,31.59v-25.5c19.8-4.28,33.67-22.16,32.88-42.4,0-26.18-18.09-43.76-45.05-43.76s-45.05,17.58-45.05,43.76c-.81,20.24,13.05,38.13,32.86,42.4v25.53l-56.92-31.62v-23.53h-24.41v15.69c-.87,13.44,6.52,26.07,18.67,31.89l62.67,33.04c7.61,4.02,16.71,4.01,24.31-.03l61.99-32.88c12.27-5.78,19.74-18.49,18.84-32.02v-15.69h-24.41v23.53ZM316.34,337.51c-1.24-11.05,6.71-21.01,17.76-22.25,1.55-.17,3.11-.17,4.65.02,11.04-1.33,21.06,6.55,22.39,17.59.19,1.54.19,3.1.02,4.65,1,11.28-7.33,21.25-18.61,22.25-1.26.11-2.53.11-3.79-.01-11.27,1.08-21.29-7.17-22.37-18.44-.12-1.27-.13-2.55,0-3.83l-.03.03Z"></path><path id="Path_5112" data-name="Path 5112" class="cls-1" d="M858.15,284.55h-33.97l-43.66,44.75v-66.81h-28.02v135.29h28.02v-33.87l14.42-14.76,38.01,48.59h31.45l-51.99-66.47,45.74-46.72Z"></path><path id="Path_5113" data-name="Path 5113" class="cls-1" d="M949.51,281.58c-26.9,0-41.14,11.01-46.45,16.32v-13.46h-28.48v113.33h28.51v-90.92l51.72-.2-.1-25.06h-5.2Z"></path><path id="Path_5114" data-name="Path 5114" class="cls-1" d="M689.54,281.55c-13.48.13-26.39,5.51-35.97,14.99v-12.12h-28.46v113.34h28.46v-93.44h21.13c1.09,0,2.14.03,3.16.06,5.7-.07,11.34,1.13,16.52,3.51,1.29.73,2.52,1.57,3.67,2.51,6.02,5.37,7.62,14.52,7.62,28.15v59.25h28.02v-67.71c-.03-28.06-12.87-48.56-44.15-48.56Z"></path><path id="Path_5115" data-name="Path 5115" class="cls-1" d="M576.65,299.94c-3.29-4.73-7.53-8.72-12.45-11.73-8.67-4.46-18.27-6.78-28.02-6.76-32.99-.57-60.2,25.71-60.77,58.71-.43,24.79,14.5,47.27,37.51,56.49,7.38,3,15.28,4.55,23.25,4.54,5.05,0,10.09-.62,14.99-1.83l.41-.1c.51-.14.98-.27,1.46-.41,2.04-.61,4.04-1.34,5.99-2.21,7.47-3.03,13.68-8.51,17.61-15.55v16.67h28.46v-113.34h-28.46v15.54ZM541.12,377.87c-19.05,1.12-35.4-13.41-36.52-32.46-.08-1.35-.08-2.71,0-4.06,0-22.88,13.94-36.52,36.52-36.52,19.21-.96,35.56,13.83,36.52,33.04.06,1.16.06,2.32,0,3.48.63,19.54-14.71,35.89-34.25,36.52-.75.02-1.51.02-2.27,0Z"></path></svg> 