<?xml version="1.0" encoding="UTF-8"?> <svg xmlns="http://www.w3.org/2000/svg" id="Layer_1" data-name="Layer 1" viewBox="0 0 1200 675"><defs><style> .cls-1 { fill: #000; stroke-width: 0px; } </style></defs><path class="cls-1" d="M1074.99,401.76h-29.09v-100.92c-.22-.02-.45-.04-.67-.05-1.32,6.73-2.65,13.46-3.97,20.19-5.16,26.27-10.34,52.54-15.42,78.82-.35,1.8-1.13,2.2-2.76,2.19-6.54-.06-13.08-.07-19.63,0-1.68.02-2.34-.48-2.7-2.23-5.21-25.51-10.53-50.99-15.82-76.48-1.54-7.45-3.08-14.9-5.16-22.3v100.8h-27.76v-131.65h45.43c5.37,28.59,10.75,57.21,16.13,85.82.18,0,.36,0,.54,0,1.31-7.17,2.63-14.33,3.93-21.5,3.75-20.73,7.5-41.47,11.25-62.2.24-1.3.45-2.35,2.32-2.33,14.01.09,28.01.05,42.02.07.46,0,.91.12,1.37.18v131.6Z"></path><path class="cls-1" d="M269.34,227.58c3.5,10.84,7.01,21.67,10.62,32.85h-121.22c3.49-10.92,7-21.89,10.51-32.85,33.36,0,66.72,0,100.08,0Z"></path><path class="cls-1" d="M312.47,227.58c10.04,30.87,20.07,61.75,30.17,92.6.65,1.98.38,3.01-1.37,4.26-8.56,6.06-17,12.29-25.79,18.68-1.83-5.61-3.59-10.96-5.33-16.33-10.47-32.18-20.94-64.37-31.4-96.56-.28-.86-.38-1.77-.56-2.66,11.43,0,22.86,0,34.28,0Z"></path><path class="cls-1" d="M125.01,363.05c1.84-5.25,3.78-10.46,5.5-15.75,8.22-25.26,16.41-50.53,24.54-75.82.64-1.99,1.53-2.72,3.67-2.69,9.58.12,19.16.05,28.73.05.89,0,1.78,0,3.1,0-12.53,38.65-24.91,76.82-37.38,115.25-.84-.53-1.52-.9-2.15-1.35-7.9-5.72-15.8-11.46-23.7-17.17-.73-.53-1.54-.94-2.31-1.41,0-.37,0-.74,0-1.11Z"></path><path class="cls-1" d="M626.98,401.77c-1.21.08-2,.18-2.8.18-9.86.01-19.71-.04-29.57.05-1.92.02-2.92-.57-3.75-2.34-7.74-16.38-15.57-32.72-23.41-49.05-.52-1.08-1.3-2.03-1.95-3.04-.28.14-.57.28-.85.42v53.72h-30.96v-131.77c1.1,0,2.17,0,3.23,0,16.77,0,33.53-.05,50.3.05,3.29.02,6.65.31,9.86,1.01,12.85,2.78,21.4,11.82,23.32,24.87,2,13.63.5,26.64-9.34,37.21-3.88,4.17-8.78,7.4-13.62,11.39,9.53,18.5,19.45,37.74,29.53,57.31ZM564.69,325.41c4.32,0,8.37.25,12.39-.06,5.04-.39,8.77-3,10.91-7.72,2.7-5.93,2.71-11.94.53-17.98-1.31-3.61-3.86-6.33-7.64-6.89-5.29-.79-10.68-.93-16.19-1.36v34.01Z"></path><path class="cls-1" d="M801.78,401.73v-55.94h-24.69v55.95h-30.97v-131.61h30.77v48.98h24.83v-48.96h30.88v131.59h-30.82Z"></path><path class="cls-1" d="M733.58,270.12c-5.45,8.98-10.6,17.46-15.75,25.94-5.78,9.52-11.51,19.07-17.37,28.54-1.07,1.72-1.02,2.98-.11,4.74,12.22,23.5,24.36,47.05,36.52,70.59.25.48.48.97.9,1.82-1.09.09-1.93.21-2.78.22-9.86.01-19.72-.04-29.58.05-1.94.02-2.89-.63-3.73-2.4-6.99-14.8-14.11-29.55-21.19-44.31-.39-.81-.85-1.58-1.51-2.8-2.78,4.26-5.4,8.2-7.89,12.22-.43.7-.34,1.77-.34,2.67-.02,10.41-.01,20.82-.01,31.23v3.16h-30.95v-131.58h30.82v51.2l.54.18c.45-.71.94-1.41,1.35-2.14,8.74-15.67,17.5-31.33,26.16-47.05.96-1.74,1.96-2.51,4.03-2.48,9.3.11,18.61.05,27.92.06.81,0,1.61.08,2.97.16Z"></path><path class="cls-1" d="M944.51,401.96c-2.63,0-5,0-7.37,0-7.46,0-14.93-.05-22.39.04-1.83.02-2.56-.58-2.88-2.4-1.2-6.89-2.52-13.75-3.94-20.6-.17-.81-1.17-2.05-1.8-2.06-9.94-.13-19.88-.09-30.09-.09-1.56,8.37-3.11,16.63-4.66,24.92h-32.17c1.63-6.49,3.17-12.72,4.75-18.95,9.36-36.71,18.76-73.42,28.05-110.15.53-2.1,1.33-2.78,3.47-2.77,11.24.1,22.48.09,33.72,0,1.91-.02,2.7.53,3.17,2.43,10.45,42.13,20.97,84.25,31.47,126.37.24.95.39,1.93.65,3.26ZM902.9,352.53c-3.71-19.35-7.38-38.5-11.05-57.65l-.64-.03c-3.56,19.17-7.11,38.33-10.7,57.68h22.39Z"></path><path class="cls-1" d="M527.03,401.96c-6.16,0-11.94,0-17.73,0-3.96,0-7.93-.1-11.88.04-1.96.07-2.72-.59-3.06-2.53-1.19-6.89-2.56-13.75-3.88-20.61-.12-.62-.35-1.23-.55-1.92h-31.41c-1.54,8.26-3.06,16.46-4.62,24.83h-32.16c1.07-4.36,2.06-8.52,3.12-12.66,9.89-38.76,19.81-77.52,29.65-116.3.54-2.12,1.25-2.97,3.61-2.93,11.15.15,22.29.11,33.44.02,1.98-.02,2.87.52,3.37,2.54,10.52,42.5,21.11,84.97,31.68,127.45.13.53.22,1.06.42,2.06ZM485.4,352.53c-3.71-19.32-7.37-38.44-11.04-57.55-.23,0-.46,0-.68.01-3.54,19.11-7.09,38.22-10.67,57.54h22.39Z"></path><path class="cls-1" d="M170.77,356.33c32.87,23.86,65.41,47.47,98.15,71.23-.86.69-1.54,1.28-2.27,1.81-7.81,5.7-15.65,11.35-23.42,17.11-1.54,1.14-2.56,1.35-4.28.1-25.51-18.6-51.08-37.13-76.69-55.61-1.69-1.22-2.11-2.26-1.41-4.31,3.36-9.92,6.52-19.9,9.91-30.32Z"></path><path class="cls-1" d="M356.81,363.77c-7.44,5.41-14.8,10.76-22.15,16.12-18.84,13.71-37.69,27.39-56.48,41.16-1.71,1.26-2.81,1.26-4.52,0-7.75-5.78-15.62-11.4-23.45-17.08-.65-.48-1.28-1-2.23-1.74,32.76-23.84,65.32-47.53,98.09-71.37,3.63,11.12,7.16,21.94,10.74,32.92Z"></path><path class="cls-1" d="M267.2,327.46c-6.42-19.67-12.71-38.96-19.1-58.57,1.07-.11,1.84-.25,2.61-.25,9.86-.01,19.71.03,29.57-.05,1.75-.01,2.56.48,3.11,2.22,3.64,11.48,7.45,22.9,11.09,34.38.25.8,0,2.31-.58,2.74-8.71,6.48-17.51,12.84-26.7,19.53Z"></path><path class="cls-1" d="M308.57,348.16c-10.92,7.92-21.7,15.75-32.69,23.73-9.23-6.68-18.45-13.35-28.03-20.29,16.68-12.15,33.13-24.14,49.94-36.38,3.62,11.07,7.15,21.84,10.78,32.94Z"></path><path class="cls-1" d="M241,397.3c-10.59-7.68-20.95-15.17-31.25-22.75-.6-.44-1.15-1.74-.95-2.4,3.22-10.25,6.57-20.46,9.9-30.67.05-.16.22-.28.52-.63,16.52,11.97,33,23.92,49.79,36.08-9.48,6.89-18.68,13.58-28.01,20.37Z"></path><path class="cls-1" d="M220.27,310.22c-6.29,19.4-12.53,38.68-18.9,58.31-6.29-4.56-12.22-8.87-18.16-13.18-2.76-2-5.59-3.91-8.22-6.06-.68-.56-1.23-2.07-.97-2.87,3.64-11.58,7.4-23.11,11.23-34.62.27-.81,1.36-1.93,2.08-1.94,10.68-.1,21.36-.04,32.05,0,.17,0,.33.13.9.37Z"></path><path class="cls-1" d="M188.52,301.5c3.42-10.57,6.74-20.88,10.17-31.15.22-.67,1.43-1.43,2.18-1.44,12.34-.09,24.68-.09,37.02,0,.73,0,1.88.83,2.11,1.51,3.38,10.11,6.64,20.26,9.92,30.4.05.16-.04.36-.09.67h-61.31Z"></path></svg> 