<?xml version="1.0" encoding="UTF-8"?> <svg xmlns="http://www.w3.org/2000/svg" id="Layer_1" data-name="Layer 1" viewBox="0 0 1200 675"><defs><style> .cls-1 { fill: #303fe1; stroke-width: 0px; } </style></defs><path class="cls-1" d="M194.11,448.91c-.88-.73-1.73-1.49-2.64-2.17-14-10.52-28.01-21.03-42.02-31.55-.16-.12-.32-.24-.48-.37-2.11-1.61-2.19-2.02-.83-4.34,35.6-60.49,71.19-120.97,106.79-181.45,2-3.4,1.44-2.93,5.21-2.93,20.88-.01,41.77,0,62.65,0,.61,0,1.21.03,1.82,0,1.05-.05,1.81.36,2.32,1.29.39.71.82,1.39,1.23,2.09,35.43,60.19,70.86,120.39,106.28,180.58,1.76,2.99,1.75,3.01-1.13,5.17-14.22,10.68-28.45,21.35-42.66,32.04-.62.47-1.13,1.09-1.69,1.64h-.4c-.84-.55-1.64-1.15-2.51-1.63-23.33-13.03-46.66-26.04-69.99-39.07-.91-.51-2.11-.82-2.14-2.17-.03-1.5,1.29-1.76,2.27-2.24,10.63-5.22,21.27-10.42,31.9-15.63,2.73-1.34,2.97-2.1,1.47-4.67-1.83-3.14-3.67-6.27-5.52-9.4-.37-.62-.8-1.2-1.29-1.93-.86.41-1.58.73-2.29,1.09-7.48,3.85-14.95,7.72-22.42,11.57-40.55,20.9-81.1,41.8-121.65,62.71-.68.35-1.25.91-1.88,1.37h-.4ZM340.11,367.72c-.49-.96-.78-1.62-1.14-2.23-15.02-25.53-30.07-51.05-45.03-76.62-1.42-2.43-3.26-3.1-5.11.07-14.55,24.87-29.17,49.7-43.85,74.5-1.69,2.85-.56,4.42,2.55,4.41,30.1-.08,60.2-.05,90.3-.05.64,0,1.28-.05,2.28-.09Z"></path><path class="cls-1" d="M1052.78,295.63c-.17.2-.4.36-.5.59-13.42,31.16-26.83,62.32-40.23,93.48-2.69,6.24-5.43,12.47-8.04,18.75-.71,1.71-1.72,2.3-3.52,2.29-9.77-.06-19.53-.02-29.3-.03-2.42,0-2.58-.12-3.52-2.49-12.43-31.2-24.85-62.4-37.27-93.6-2.27-5.69-4.54-11.38-6.8-17.07-.22-.56-.47-1.12-.63-1.7-.33-1.19.19-1.93,1.44-2.08.4-.05.81-.02,1.21-.02,9.56,0,19.13,0,28.69,0,2.43,0,2.47.02,3.33,2.35,8.92,24.11,17.84,48.22,26.76,72.33.23.63.43,1.28.76,1.87.83,1.51,2.48,1.56,3.37.11.31-.51.51-1.1.74-1.66,9.75-24.01,19.49-48.02,29.23-72.03.25-.62.51-1.25.79-1.86.34-.75.92-1.13,1.76-1.11.34,0,.67,0,1.01,0,9.29,0,18.59.02,27.88-.02,1.15,0,2.11.18,2.85,1.1v.81Z"></path><path class="cls-1" d="M644.14,410.69c-5.52,0-11.05-.06-16.57.03-1.9.03-2.9-.66-3.62-2.43-4.38-10.79-8.85-21.55-13.3-32.31-1.1-2.65-1.27-2.76-4.21-2.76-18.39,0-36.78,0-55.17,0-3.11,0-3.19.07-4.42,3.05-4.42,10.7-8.87,21.39-13.22,32.12-.7,1.72-1.64,2.34-3.46,2.33-11.18-.06-22.37-.03-33.55-.03-.07,0-.13,0-.2,0-2.64-.05-3.18-.8-2.18-3.22,2.97-7.22,5.96-14.44,8.94-21.65,18.27-44.16,36.55-88.33,54.82-132.5,1.41-3.41,1.19-2.89,4.39-2.89,11.05-.02,22.1,0,33.14,0,2.65,0,2.66,0,3.68,2.46,12.64,30.54,25.27,61.09,37.9,91.63,8.64,20.9,17.29,41.8,25.93,62.71,1.17,2.82.74,3.47-2.32,3.47-5.52.01-11.05,0-16.57,0ZM578.78,345.08c6.47,0,12.93.01,19.4,0,2.67,0,3.34-1.07,2.37-3.59-.05-.13-.08-.26-.14-.38-6.45-15.83-12.9-31.67-19.36-47.5-.18-.44-.34-.89-.59-1.28-.85-1.36-2.42-1.39-3.28-.05-.32.51-.53,1.09-.75,1.65-6.4,15.71-12.8,31.42-19.2,47.13-.18.44-.39.86-.51,1.32-.4,1.5.29,2.51,1.85,2.69.53.06,1.08.03,1.62.03,6.2,0,12.39,0,18.59,0Z"></path><path class="cls-1" d="M676.54,349.2c0-9.1,0-18.19,0-27.29,0-.54.02-1.08-.01-1.62-.1-1.46-.67-2.07-2.12-2.13-1.28-.06-2.56-.02-3.84-.02-3.97,0-7.95.01-11.92,0-2.07-.01-2.47-.39-2.48-2.5-.03-6.47-.03-12.94,0-19.41,0-2.21.33-2.49,2.65-2.49,4.92,0,9.83,0,14.75,0,2.46,0,2.97-.51,2.97-2.96,0-12.33,0-24.66,0-36.99,0-.54-.03-1.08.02-1.62.11-1.22.55-1.64,1.78-1.72.54-.04,1.08-.02,1.62-.02,8.42,0,16.84,0,25.26,0,.47,0,.94-.01,1.41,0,1.59.07,1.94.44,2,2.1.02.54,0,1.08,0,1.62,0,11.72,0,23.45,0,35.17,0,.47,0,.94,0,1.42.03,2.42.58,2.99,2.97,3,7.81.01,15.63,0,23.44,0,.47,0,.94-.02,1.41,0,1.55.07,2.04.52,2.07,2.09.04,2.56.01,5.12.01,7.68,0,4.04.01,8.09,0,12.13,0,2.07-.43,2.49-2.49,2.5-7.95.01-15.9,0-23.84,0-.54,0-1.08-.03-1.62.03-1.1.12-1.72.69-1.89,1.76-.08.46-.05.94-.05,1.41,0,15.16,0,30.32.04,45.48,0,2.49.14,4.99.46,7.46.87,6.65,5.27,10.91,12.27,11.61,3.94.4,7.93.31,11.89.42,1.14.03,2.29-.03,3.43.02,1.24.06,1.66.49,1.79,1.71.03.33.01.67.01,1.01,0,6.27,0,12.53,0,18.8,0,2.43-.38,2.85-2.8,2.83-8.89-.08-17.78-.15-26.66-.33-3.58-.07-7.13-.62-10.52-1.77-10.94-3.7-17.89-11.16-20.39-22.51-1.41-6.41-1.58-12.95-1.62-19.49-.04-5.79,0-11.59,0-17.38Z"></path><path class="cls-1" d="M760.89,352.26c0-18.33,0-36.66,0-54.98,0-3.51.04-3.54,3.45-3.54,16.3,0,32.6-.06,48.9.07,6.05.05,12.12.42,18.03,1.94,8.98,2.31,15.83,7.29,19.53,16.03,1.54,3.63,2.32,7.49,2.5,11.39.32,6.79.38,13.6.51,20.4.04,2.18-.3,2.48-2.44,2.48-8.55.01-17.11.01-25.66,0-2.1,0-2.43-.34-2.43-2.5,0-4.18.06-8.36-.79-12.48-.15-.72-.3-1.45-.49-2.16-1.33-5.07-4.47-8.38-9.6-9.6-2.28-.54-4.62-.96-6.96-1.09-3.29-.19-6.6-.08-9.9-.06-1.93.01-2.51.59-2.64,2.51-.05.74-.02,1.48-.02,2.22,0,27.96,0,55.93,0,83.89q0,3.92-3.94,3.92c-8.15,0-16.3,0-24.45,0-.61,0-1.22.03-1.82-.04-1.25-.15-1.64-.55-1.74-1.79-.06-.74-.03-1.48-.03-2.22,0-18.13,0-36.25,0-54.38Z"></path><path class="cls-1" d="M872.16,352.12c0-18.32,0-36.65,0-54.97,0-3.4,0-3.41,3.35-3.41,8.62,0,17.24,0,25.86,0,2.56,0,2.87.31,2.87,2.94,0,36.98,0,73.97,0,110.95,0,.4.03.81-.02,1.21-.13,1.19-.56,1.64-1.78,1.8-.53.07-1.08.05-1.61.05-8.48,0-16.97,0-25.45,0-.47,0-.95.02-1.41-.03-1.33-.16-1.71-.57-1.79-1.95-.03-.6-.01-1.21-.01-1.82,0-18.26,0-36.51,0-54.77Z"></path><path class="cls-1" d="M888.32,250.42c4.51,0,9.01-.01,13.52,0,1.97,0,2.38.39,2.39,2.35.02,8.68.02,17.36,0,26.05,0,1.92-.48,2.43-2.38,2.43-9.15.02-18.3.02-27.45,0-1.83,0-2.23-.45-2.24-2.31-.02-8.75-.02-17.5,0-26.25,0-2.01.29-2.26,2.42-2.27,4.57-.02,9.15,0,13.72,0Z"></path></svg> 