<?xml version="1.0" encoding="UTF-8"?> <svg xmlns="http://www.w3.org/2000/svg" xmlns:xlink="http://www.w3.org/1999/xlink" id="Group_3366" data-name="Group 3366" width="93.275" height="93.275" viewBox="0 0 93.275 93.275"><defs><clipPath id="clip-path"><rect id="Rectangle_2530" data-name="Rectangle 2530" width="93.275" height="93.275" fill="none"></rect></clipPath></defs><g id="Group_3366-2" data-name="Group 3366" clip-path="url(#clip-path)"><path id="Path_5239" data-name="Path 5239" d="M83.5,93.275H9.779A9.779,9.779,0,0,1,0,83.5V9.78A9.779,9.779,0,0,1,9.779,0H83.5a9.78,9.78,0,0,1,9.78,9.78V83.5a9.78,9.78,0,0,1-9.78,9.78" fill="#1d1d1d"></path><path id="Path_5240" data-name="Path 5240" d="M39.975,77.439H30.046a4.447,4.447,0,0,1-3.229-1.713c-3.049-3.353-5.241-11.355-5.235-20.674A46.051,46.051,0,0,1,24.1,39.157a15.356,15.356,0,0,1,2.714-4.78,4.447,4.447,0,0,1,3.229-1.713h9.929v-.37H30.046a4.814,4.814,0,0,0-3.5,1.835c-3.16,3.5-5.325,11.542-5.33,20.923a46.419,46.419,0,0,0,2.545,16.027,15.719,15.719,0,0,0,2.785,4.9,4.811,4.811,0,0,0,3.5,1.835h9.929Z" transform="translate(-5.527 -8.414)" fill="#fff"></path><path id="Path_5241" data-name="Path 5241" d="M49.416,70.947A15.352,15.352,0,0,1,46.7,75.726a4.447,4.447,0,0,1-3.229,1.713,4.45,4.45,0,0,1-3.23-1.713C37.2,72.373,35,64.371,35.009,55.052A46.089,46.089,0,0,1,37.53,39.157a15.386,15.386,0,0,1,2.714-4.78,4.445,4.445,0,0,1,3.23-1.713A4.443,4.443,0,0,1,46.7,34.377a15.356,15.356,0,0,1,2.714,4.78l.345-.132a15.711,15.711,0,0,0-2.785-4.9,4.808,4.808,0,0,0-3.5-1.835,4.807,4.807,0,0,0-3.5,1.835c-3.16,3.5-5.326,11.541-5.331,20.922a46.432,46.432,0,0,0,2.546,16.027,15.7,15.7,0,0,0,2.785,4.9,4.81,4.81,0,0,0,3.5,1.835,4.811,4.811,0,0,0,3.5-1.835,15.711,15.711,0,0,0,2.785-4.9Z" transform="translate(-9.025 -8.414)" fill="#fff"></path><path id="Path_5242" data-name="Path 5242" d="M44.269,58.7l-.1-.158A3.748,3.748,0,1,0,46.123,58a3.749,3.749,0,0,0-1.951.55l.1.158.1.158a3.38,3.38,0,1,1-1.621,2.891,3.372,3.372,0,0,1,1.621-2.891Z" transform="translate(-11.04 -15.11)" fill="#fff"></path><path id="Path_5243" data-name="Path 5243" d="M59.89,33.632l-.1-.158a3.748,3.748,0,1,0,1.951-.55,3.748,3.748,0,0,0-1.951.55l.1.158.1.158a3.38,3.38,0,1,1-1.621,2.891,3.374,3.374,0,0,1,1.621-2.891Z" transform="translate(-15.11 -8.578)" fill="#fff"></path><line id="Line_365" data-name="Line 365" x1="4.681" y2="7.527" transform="translate(38.467 33.547)" fill="#232425"></line><path id="Path_5244" data-name="Path 5244" d="M58.221,45.606a.369.369,0,1,0-.262-.108.374.374,0,0,0,.262.108" transform="translate(-15.073 -11.69)" fill="#fffeff"></path><path id="Path_5245" data-name="Path 5245" d="M53.687,50.944h0a.37.37,0,1,0,.509-.119.369.369,0,0,0-.509.119m1.56-2.509h0a.37.37,0,1,0,.509-.119.37.37,0,0,0-.509.119" transform="translate(-13.973 -12.574)" fill="#fffeff"></path><path id="Path_5246" data-name="Path 5246" d="M51.891,55.785a.369.369,0,1,0-.262-.108.374.374,0,0,0,.262.108" transform="translate(-13.423 -14.342)" fill="#fffeff"></path><path id="Path_5247" data-name="Path 5247" d="M59.89,89.864l.1-.158a3.38,3.38,0,1,1,1.758.5,3.381,3.381,0,0,1-1.758-.5l-.1.158-.1.158A3.75,3.75,0,1,0,58,86.816a3.736,3.736,0,0,0,1.8,3.206Z" transform="translate(-15.11 -21.643)" fill="#fff"></path><line id="Line_366" data-name="Line 366" x1="4.681" y1="7.527" transform="translate(38.467 52.202)" fill="#232425"></line><path id="Path_5248" data-name="Path 5248" d="M58.221,81.012a.369.369,0,1,0-.262-.108.374.374,0,0,0,.262.108" transform="translate(-15.073 -20.914)" fill="#fffeff"></path><path id="Path_5249" data-name="Path 5249" d="M54.315,73.661h0a.37.37,0,1,0-.119.509.37.37,0,0,0,.119-.509m1.56,2.509h0a.37.37,0,1,0-.119.509.371.371,0,0,0,.119-.509" transform="translate(-13.973 -19.146)" fill="#fffeff"></path><path id="Path_5250" data-name="Path 5250" d="M51.891,70.833a.369.369,0,1,0-.262-.108.374.374,0,0,0,.262.108" transform="translate(-13.423 -18.262)" fill="#fffeff"></path><path id="Path_5251" data-name="Path 5251" d="M79.554,77.808h9.929a4.811,4.811,0,0,0,3.5-1.835c3.16-3.5,5.325-11.542,5.33-20.922a46.416,46.416,0,0,0-2.545-16.027,15.724,15.724,0,0,0-2.785-4.9,4.814,4.814,0,0,0-3.5-1.835H79.554v.37h9.929a4.447,4.447,0,0,1,3.229,1.713c3.049,3.353,5.241,11.355,5.235,20.675a46.054,46.054,0,0,1-2.521,15.895,15.36,15.36,0,0,1-2.714,4.779,4.447,4.447,0,0,1-3.229,1.713H79.554Z" transform="translate(-20.727 -8.414)" fill="#fff"></path><path id="Path_5252" data-name="Path 5252" d="M71.05,71.079a15.711,15.711,0,0,0,2.785,4.9,4.263,4.263,0,0,0,7.007,0c3.16-3.5,5.326-11.541,5.331-20.922a46.432,46.432,0,0,0-2.546-16.027,15.7,15.7,0,0,0-2.785-4.9,4.263,4.263,0,0,0-7.007,0,15.711,15.711,0,0,0-2.785,4.9l.345.132a15.356,15.356,0,0,1,2.714-4.78,3.9,3.9,0,0,1,6.459,0c3.048,3.353,5.24,11.356,5.235,20.675a46.07,46.07,0,0,1-2.522,15.895,15.379,15.379,0,0,1-2.713,4.78,3.9,3.9,0,0,1-6.459,0A15.352,15.352,0,0,1,71.4,70.947Z" transform="translate(-18.511 -8.414)" fill="#fff"></path><path id="Path_5253" data-name="Path 5253" d="M79.227,58.7l-.1.158a3.381,3.381,0,1,1-1.759-.5,3.382,3.382,0,0,1,1.759.5l.1-.158.1-.158a3.75,3.75,0,1,0,1.8,3.206,3.736,3.736,0,0,0-1.8-3.206Z" transform="translate(-19.18 -15.11)" fill="#fff"></path><line id="Line_367" data-name="Line 367" x2="4.681" y2="7.527" transform="translate(50.127 33.547)" fill="#232425"></line><path id="Path_5254" data-name="Path 5254" d="M67.659,45.606A.369.369,0,1,0,67.4,45.5a.374.374,0,0,0,.262.108" transform="translate(-17.532 -11.69)" fill="#fffeff"></path><path id="Path_5255" data-name="Path 5255" d="M71.015,51.334h0a.37.37,0,1,0,.119-.509.37.37,0,0,0-.119.509m-1.56-2.509h0a.37.37,0,1,0,.119-.509.371.371,0,0,0-.119.509" transform="translate(-18.081 -12.574)" fill="#fffeff"></path><path id="Path_5256" data-name="Path 5256" d="M73.989,55.785a.369.369,0,1,0-.262-.108.374.374,0,0,0,.262.108" transform="translate(-19.181 -14.342)" fill="#fffeff"></path><path id="Path_5257" data-name="Path 5257" d="M79.227,64.792l.1.158a3.749,3.749,0,1,0-1.951.55,3.748,3.748,0,0,0,1.951-.55l-.1-.158-.1-.158a3.381,3.381,0,1,1,1.62-2.891,3.372,3.372,0,0,1-1.62,2.891Z" transform="translate(-19.18 -15.11)" fill="#fff"></path><line id="Line_368" data-name="Line 368" y1="7.527" x2="4.681" transform="translate(50.127 52.202)" fill="#232425"></line><path id="Path_5258" data-name="Path 5258" d="M67.659,81.012A.369.369,0,1,0,67.4,80.9a.374.374,0,0,0,.262.108" transform="translate(-17.532 -20.914)" fill="#fffeff"></path><path id="Path_5259" data-name="Path 5259" d="M71.643,74.052h0a.37.37,0,1,0-.509.119.37.37,0,0,0,.509-.119m-1.56,2.509h0a.37.37,0,1,0-.509.119.37.37,0,0,0,.509-.119" transform="translate(-18.081 -19.146)" fill="#fffeff"></path><path id="Path_5260" data-name="Path 5260" d="M73.989,70.833a.369.369,0,1,0-.262-.108.374.374,0,0,0,.262.108" transform="translate(-19.181 -18.262)" fill="#fffeff"></path><line id="Line_369" data-name="Line 369" x2="9.144" transform="translate(42.729 46.638)" fill="#232425"></line><path id="Path_5261" data-name="Path 5261" d="M57.654,63.309a.369.369,0,1,0-.262-.108.374.374,0,0,0,.262.108" transform="translate(-14.925 -16.302)" fill="#fffeff"></path><path id="Path_5262" data-name="Path 5262" d="M65.318,63.309h0a.37.37,0,1,0-.37-.37.37.37,0,0,0,.37.37m-2.286,0h0a.37.37,0,1,0-.37-.37.37.37,0,0,0,.37.37m-2.286,0h0a.37.37,0,1,0-.37-.37.37.37,0,0,0,.37.37" transform="translate(-15.73 -16.302)" fill="#fffeff"></path><path id="Path_5263" data-name="Path 5263" d="M70.02,63.309a.369.369,0,1,0-.262-.108.374.374,0,0,0,.262.108" transform="translate(-18.147 -16.302)" fill="#fffeff"></path></g></svg> 