<?xml version="1.0" encoding="UTF-8"?> <svg xmlns="http://www.w3.org/2000/svg" xmlns:xlink="http://www.w3.org/1999/xlink" id="Group_3371" data-name="Group 3371" width="93" height="93" viewBox="0 0 93 93"><defs><clipPath id="clip-path"><rect id="Rectangle_2535" data-name="Rectangle 2535" width="93" height="93" fill="none"></rect></clipPath></defs><g id="Group_3371-2" data-name="Group 3371" clip-path="url(#clip-path)"><path id="Path_5382" data-name="Path 5382" d="M83.249,93H9.75A9.751,9.751,0,0,1,0,83.249V9.751A9.751,9.751,0,0,1,9.75,0h73.5A9.751,9.751,0,0,1,93,9.751v73.5A9.751,9.751,0,0,1,83.249,93" fill="#1d1d1d"></path><path id="Path_5383" data-name="Path 5383" d="M54.711,76.589h0a.369.369,0,1,0,.369.369.369.369,0,0,0-.369-.369m.089,0h0a.369.369,0,1,0,.37.367.369.369,0,0,0-.37-.367m2.561-.157h0a.369.369,0,1,0,.41.322A.369.369,0,0,0,57.361,76.432Zm2.526-.453h0a.369.369,0,1,0,.445.272A.369.369,0,0,0,59.887,75.979Zm2.456-.745h0a.369.369,0,1,0,.473.219.368.368,0,0,0-.473-.219M64.7,74.208h0a.369.369,0,1,0,.5.162A.369.369,0,0,0,64.7,74.208Zm2.216-1.292h0a.369.369,0,1,0,.511.1.368.368,0,0,0-.511-.1m2.052-1.541h0a.369.369,0,1,0,.519.043A.368.368,0,0,0,68.963,71.375Zm1.86-1.768h0a.369.369,0,1,0,.521-.017A.369.369,0,0,0,70.823,69.607Zm1.645-1.971h0a.369.369,0,1,0,.593.439h0a.368.368,0,0,0-.592-.439Zm1.405-2.148h0a.369.369,0,1,0,.5-.136A.369.369,0,0,0,73.873,65.487Zm1.146-2.3h0A.368.368,0,1,0,75.5,63,.368.368,0,0,0,75.02,63.19Zm.87-2.415h0a.369.369,0,1,0,.459-.249.369.369,0,0,0-.459.249Zm.582-2.5h0a.369.369,0,1,0,.426-.3.37.37,0,0,0-.426.3m.288-2.55h0a.368.368,0,1,0,.388-.348A.368.368,0,0,0,76.759,55.725Zm-.007-2.567h0a.369.369,0,1,0,.346-.39A.368.368,0,0,0,76.752,53.158Zm-.3-2.548h0a.369.369,0,1,0,.3-.428A.368.368,0,0,0,76.449,50.61Zm-.6-2.5h0a.369.369,0,1,0,.246-.459A.369.369,0,0,0,75.852,48.114Zm-.885-2.409h0a.369.369,0,1,0,.191-.485A.369.369,0,0,0,74.968,45.706Zm-1.159-2.289h0a.369.369,0,1,0,.638-.371h0a.369.369,0,1,0-.637.371Zm-1.417-2.139h0a.369.369,0,1,0,.074-.516.368.368,0,0,0-.074.516m-1.655-1.961h0a.368.368,0,1,0,.013-.521.368.368,0,0,0-.013.521m-1.871-1.758h0a.368.368,0,1,0-.046-.519A.368.368,0,0,0,68.865,37.559ZM66.8,36.03h0a.368.368,0,1,0-.106-.51A.368.368,0,0,0,66.8,36.03Zm-2.225-1.28h0a.369.369,0,1,0-.164-.495A.369.369,0,0,0,64.579,34.75Zm-2.359-1.013h0A.368.368,0,1,0,62,33.265.369.369,0,0,0,62.219,33.737Zm-2.461-.73h0a.369.369,0,1,0-.275-.443A.369.369,0,0,0,59.758,33.007Zm-2.529-.437h0a.369.369,0,1,0-.324-.408.368.368,0,0,0,.324.408m-2.563-.142h0a.369.369,0,1,0-.369-.368.368.368,0,0,0,.369.368M52.1,32.58h0a.369.369,0,1,0-.409-.324.369.369,0,0,0,.409.324m-2.527.448h0a.369.369,0,1,0-.444-.274A.369.369,0,0,0,49.578,33.027Zm-2.457.739h0a.369.369,0,1,0-.473-.22.37.37,0,0,0,.473.22m-2.354,1.021h0a.368.368,0,1,0-.5-.162A.368.368,0,0,0,44.766,34.788Zm-2.218,1.289h0a.369.369,0,1,0-.511-.1.369.369,0,0,0,.511.1Zm-2.055,1.536h0a.369.369,0,1,0-.52-.044.368.368,0,0,0,.52.044m-1.864,1.764h0a.368.368,0,0,0-.537-.505h0a.369.369,0,0,0,.537.505Zm-1.649,1.968h0a.369.369,0,0,0-.592-.439h0a.368.368,0,1,0,.591.439Zm-1.41,2.145h0a.368.368,0,1,0-.638-.368h0a.369.369,0,1,0,.638.369Zm-1.151,2.3h0a.369.369,0,1,0-.484.192.369.369,0,0,0,.484-.192M33.544,48.2h0a.368.368,0,1,0-.458.248.368.368,0,0,0,.458-.248Zm-.586,2.5h0a.369.369,0,1,0-.427.3A.369.369,0,0,0,32.958,50.7Zm-.293,2.549h0a.368.368,0,1,0-.389.348.369.369,0,0,0,.389-.348Zm0,2.567h0a.369.369,0,1,0-.347.39.369.369,0,0,0,.347-.39m.3,2.549h0a.369.369,0,1,0-.3.427.369.369,0,0,0,.3-.427m.592,2.5h0a.369.369,0,1,0-.247.459A.369.369,0,0,0,33.558,60.86Zm.88,2.411h0a.369.369,0,1,0-.192.484.369.369,0,0,0,.192-.484m1.155,2.291h0a.369.369,0,1,0-.134.5A.369.369,0,0,0,35.592,65.561ZM37,67.7h0a.369.369,0,1,0-.075.516A.369.369,0,0,0,37,67.7Zm1.651,1.965h0a.369.369,0,1,0-.015.521A.368.368,0,0,0,38.656,69.667Zm1.868,1.761h0a.369.369,0,1,0,.045.519A.369.369,0,0,0,40.523,71.428Zm2.058,1.534h0a.369.369,0,1,0,.1.511.369.369,0,0,0-.1-.511M44.8,74.247h0a.368.368,0,0,0-.331.658h0a.369.369,0,0,0,.331-.659Zm2.357,1.017h0a.369.369,0,1,0,.22.473A.369.369,0,0,0,47.161,75.264Zm2.46.735h0a.369.369,0,1,0,.274.443A.369.369,0,0,0,49.621,76Zm2.527.442h0a.369.369,0,1,0,.324.408.369.369,0,0,0-.324-.408" transform="translate(-8.389 -8.326)" fill="#fffeff"></path><path id="Path_5384" data-name="Path 5384" d="M45.22,40.46V38.2h0a1.142,1.142,0,0,0-.54-.988l-6.349-3.964a1.839,1.839,0,0,0-1.946,0l-6.348,3.964a1.141,1.141,0,0,0-.541.988h0v2.26" transform="translate(-7.748 -8.661)" fill="#1d1d1d"></path><path id="Path_5385" data-name="Path 5385" d="M45.338,40.395V38.027l-.094-.054-.091.16h.184v-.01a1.324,1.324,0,0,0-.627-1.134l-6.349-3.964a2.022,2.022,0,0,0-2.141,0l-6.349,3.964a1.327,1.327,0,0,0-.627,1.134v.01h.184l-.1-.153h0l-.083.055v2.359h.369v-2.26h-.184l.1.153h0l.082-.055v-.109a.957.957,0,0,1,.454-.821l6.349-3.964a1.654,1.654,0,0,1,1.751,0L44.514,37.3a.956.956,0,0,1,.454.821v.117h0v2.154Z" transform="translate(-7.683 -8.596)" fill="#fff"></path><path id="Path_5386" data-name="Path 5386" d="M38.329,36.341l6.349,3.964a1.153,1.153,0,0,1,0,1.955l-6.294,3.93a1.941,1.941,0,0,1-2.055,0l-6.294-3.93a1.152,1.152,0,0,1,0-1.955l6.349-3.964a1.837,1.837,0,0,1,1.946,0" transform="translate(-7.748 -9.474)" fill="#1d1d1d"></path><path id="Path_5387" data-name="Path 5387" d="M38.264,36.275l-.1.156L44.514,40.4a.957.957,0,0,1,.456.814v.007a.958.958,0,0,1-.456.821l-6.294,3.93a1.756,1.756,0,0,1-1.859,0l-6.295-3.93a.969.969,0,0,1,0-1.643l6.349-3.964a1.654,1.654,0,0,1,1.751,0l.1-.156.1-.156a2.022,2.022,0,0,0-2.141,0l-6.348,3.964a1.337,1.337,0,0,0,0,2.268l6.294,3.93a2.124,2.124,0,0,0,2.249,0l6.294-3.93a1.326,1.326,0,0,0,.629-1.134v-.009a1.328,1.328,0,0,0-.629-1.125l-6.349-3.964Z" transform="translate(-7.683 -9.409)" fill="#fff"></path><path id="Path_5388" data-name="Path 5388" d="M90.051,40.46V38.2h0a1.143,1.143,0,0,0-.541-.988L83.16,33.247a1.839,1.839,0,0,0-1.946,0l-6.348,3.964a1.141,1.141,0,0,0-.541.988h0v2.26" transform="translate(-19.526 -8.661)" fill="#1d1d1d"></path><path id="Path_5389" data-name="Path 5389" d="M90.169,40.395V38.035l-.083-.055-.1.153h.184v-.01a1.327,1.327,0,0,0-.628-1.134l-6.349-3.964a2.022,2.022,0,0,0-2.141,0L74.7,36.989a1.327,1.327,0,0,0-.627,1.134v.015l.184-.005-.091-.16h0l-.093.053v2.367h.369v-2.26h-.184l.091.16h0l.1-.055,0-.11v-.006A.957.957,0,0,1,74.9,37.3l6.349-3.964a1.654,1.654,0,0,1,1.751,0L89.345,37.3a.958.958,0,0,1,.455.821v.109h0v2.162Z" transform="translate(-19.461 -8.596)" fill="#fff"></path><path id="Path_5390" data-name="Path 5390" d="M83.16,36.341l6.349,3.964a1.153,1.153,0,0,1,0,1.955l-6.294,3.93a1.941,1.941,0,0,1-2.055,0l-6.294-3.93a1.152,1.152,0,0,1,0-1.955l6.349-3.964a1.837,1.837,0,0,1,1.946,0" transform="translate(-19.526 -9.474)" fill="#1d1d1d"></path><path id="Path_5391" data-name="Path 5391" d="M83.095,36.275l-.1.156L89.345,40.4a.957.957,0,0,1,.456.814v.007a.958.958,0,0,1-.456.821l-6.294,3.93a1.756,1.756,0,0,1-1.859,0L74.9,42.038a.969.969,0,0,1,0-1.643l6.349-3.964a1.654,1.654,0,0,1,1.751,0l.1-.156.1-.156a2.022,2.022,0,0,0-2.141,0L74.7,40.083a1.337,1.337,0,0,0,0,2.268L81,46.281a2.124,2.124,0,0,0,2.249,0l6.294-3.93a1.327,1.327,0,0,0,.629-1.134v-.009a1.328,1.328,0,0,0-.629-1.125l-6.349-3.964Z" transform="translate(-19.461 -9.409)" fill="#fff"></path><path id="Path_5392" data-name="Path 5392" d="M74.323,82.805v2.26h0a1.143,1.143,0,0,0,.54.988l6.349,3.964a1.839,1.839,0,0,0,1.946,0l6.348-3.964a1.142,1.142,0,0,0,.541-.988h0v-2.26" transform="translate(-19.526 -21.755)" fill="#1d1d1d"></path><path id="Path_5393" data-name="Path 5393" d="M74.073,82.805v2.361l.085.055.1-.155h-.184v.01A1.324,1.324,0,0,0,74.7,86.21l6.349,3.964a2.022,2.022,0,0,0,2.141,0L89.54,86.21a1.327,1.327,0,0,0,.627-1.134v-.01h-.184l.111.147h0l.074-.055V82.805H89.8v2.26h.184l-.111-.147h0l-.074.055v.1a.957.957,0,0,1-.454.821L83,89.862a1.654,1.654,0,0,1-1.751,0L74.9,85.9a.956.956,0,0,1-.454-.821v-.111h0v-2.16Z" transform="translate(-19.461 -21.755)" fill="#fff"></path><path id="Path_5394" data-name="Path 5394" d="M81.214,85.88l-6.349-3.964a1.153,1.153,0,0,1,0-1.955l6.295-3.93a1.943,1.943,0,0,1,2.054,0l6.294,3.93a1.152,1.152,0,0,1,0,1.955L83.159,85.88a1.834,1.834,0,0,1-1.946,0" transform="translate(-19.526 -19.898)" fill="#1d1d1d"></path><path id="Path_5395" data-name="Path 5395" d="M81.148,85.814l.1-.156L74.9,81.694a.957.957,0,0,1-.456-.814v-.007a.959.959,0,0,1,.456-.821l6.294-3.93a1.757,1.757,0,0,1,1.859,0l6.294,3.93a.968.968,0,0,1,0,1.643L83,85.658a1.654,1.654,0,0,1-1.751,0l-.1.156-.1.157a2.026,2.026,0,0,0,2.141,0l6.349-3.965a1.337,1.337,0,0,0,0-2.268l-6.295-3.93a2.12,2.12,0,0,0-2.249,0L74.7,79.739a1.327,1.327,0,0,0-.629,1.134v.009a1.328,1.328,0,0,0,.629,1.125l6.349,3.965Z" transform="translate(-19.461 -19.832)" fill="#fff"></path><path id="Path_5396" data-name="Path 5396" d="M29.493,82.805v2.26h0a1.143,1.143,0,0,0,.54.988l6.349,3.964a1.839,1.839,0,0,0,1.946,0l6.348-3.964a1.142,1.142,0,0,0,.541-.988h0v-2.26" transform="translate(-7.749 -21.755)" fill="#1d1d1d"></path><path id="Path_5397" data-name="Path 5397" d="M29.243,82.805v2.353l.074.056.111-.147h-.184v.01a1.325,1.325,0,0,0,.627,1.134l6.349,3.964a2.022,2.022,0,0,0,2.141,0L44.71,86.21a1.327,1.327,0,0,0,.627-1.134v-.015l-.184.005.1.155h0l.085-.054V82.805h-.369v2.26h.184l-.1-.155h0l-.087.056,0,.1v.006a.957.957,0,0,1-.454.821l-6.349,3.964a1.653,1.653,0,0,1-1.75,0L30.067,85.9a.956.956,0,0,1-.454-.821v-.1h0V82.805Z" transform="translate(-7.683 -21.755)" fill="#fff"></path><path id="Path_5398" data-name="Path 5398" d="M36.384,85.88l-6.349-3.964a1.153,1.153,0,0,1,0-1.955l6.294-3.93a1.944,1.944,0,0,1,2.055,0l6.294,3.93a1.152,1.152,0,0,1,0,1.955L38.329,85.88a1.834,1.834,0,0,1-1.946,0" transform="translate(-7.749 -19.898)" fill="#1d1d1d"></path><path id="Path_5399" data-name="Path 5399" d="M36.318,85.814l.1-.156-6.348-3.964a.957.957,0,0,1-.456-.814v-.007a.959.959,0,0,1,.456-.821l6.294-3.93a1.756,1.756,0,0,1,1.859,0l6.295,3.93a.969.969,0,0,1,0,1.643l-6.349,3.964a1.654,1.654,0,0,1-1.751,0l-.1.156-.1.157a2.026,2.026,0,0,0,2.141,0l6.348-3.965a1.337,1.337,0,0,0,0-2.268l-6.294-3.93a2.12,2.12,0,0,0-2.249,0l-6.294,3.93a1.327,1.327,0,0,0-.629,1.134v.009a1.328,1.328,0,0,0,.629,1.125l6.349,3.965Z" transform="translate(-7.683 -19.832)" fill="#fff"></path><path id="Path_5400" data-name="Path 5400" d="M87,62.933a4.37,4.37,0,1,0,1.455-6.007A4.37,4.37,0,0,0,87,62.933" transform="translate(-22.688 -14.788)" fill="#1d1d1d"></path><path id="Path_5401" data-name="Path 5401" d="M86.929,62.867l-.159.1a4.556,4.556,0,1,0-.667-2.37,4.556,4.556,0,0,0,.667,2.37l.159-.1.159-.1a4.183,4.183,0,1,1,3.575,2.005,4.164,4.164,0,0,1-3.575-2.005Z" transform="translate(-22.621 -14.721)" fill="#fff"></path><path id="Path_5402" data-name="Path 5402" d="M26.572,62.933a4.37,4.37,0,1,0,1.455-6.007,4.37,4.37,0,0,0-1.455,6.007" transform="translate(-6.813 -14.788)" fill="#1d1d1d"></path><path id="Path_5403" data-name="Path 5403" d="M26.505,62.867l-.159.1a4.556,4.556,0,1,0-.667-2.37,4.556,4.556,0,0,0,.667,2.37l.159-.1.159-.1a4.183,4.183,0,1,1,3.576,2.005,4.164,4.164,0,0,1-3.576-2.005Z" transform="translate(-6.746 -14.721)" fill="#fff"></path><path id="Path_5404" data-name="Path 5404" d="M58.739,87.639a4.37,4.37,0,1,0,6.007,1.455,4.37,4.37,0,0,0-6.007-1.455" transform="translate(-14.882 -22.857)" fill="#1d1d1d"></path><path id="Path_5405" data-name="Path 5405" d="M58.672,87.572l-.1-.159a4.556,4.556,0,1,0,2.37-.667,4.556,4.556,0,0,0-2.37.667l.1.159.1.159a4.183,4.183,0,1,1-2.005,3.576,4.157,4.157,0,0,1,2.005-3.576Z" transform="translate(-14.815 -22.79)" fill="#fff"></path><path id="Path_5406" data-name="Path 5406" d="M58.739,26.215a4.37,4.37,0,1,0,6.007,1.455,4.37,4.37,0,0,0-6.007-1.455" transform="translate(-14.882 -6.719)" fill="#1d1d1d"></path><path id="Path_5407" data-name="Path 5407" d="M58.672,26.148l-.1-.159a4.556,4.556,0,1,0,2.37-.667,4.556,4.556,0,0,0-2.37.667l.1.159.1.159a4.183,4.183,0,1,1-2.005,3.576,4.164,4.164,0,0,1,2.005-3.576Z" transform="translate(-14.815 -6.653)" fill="#fff"></path></g></svg> 