<?xml version="1.0" encoding="UTF-8"?> <svg xmlns="http://www.w3.org/2000/svg" id="Layer_1" data-name="Layer 1" viewBox="0 0 1200 675"><defs><style> .cls-1 { fill: none; stroke: #000; stroke-miterlimit: 10; stroke-width: 2.53px; } .cls-2 { fill: #000; stroke-width: 0px; } </style></defs><g id="Artwork"><polygon class="cls-1" points="325.74 275.9 292.14 275.9 281.09 287.1 280.94 399.1 370.54 399.1 381.74 387.9 381.74 365.5 325.74 365.5 325.74 275.9"></polygon><polygon class="cls-1" points="448.94 275.9 415.34 275.9 404.14 287.1 404.14 399.1 493.6 399.1 504.8 387.9 504.8 365.5 448.94 365.5 448.94 275.9"></polygon><polygon class="cls-1" points="572 387.9 560.8 399.1 527.2 399.1 527.35 287.1 538.4 275.9 572 275.9 572 387.9"></polygon><polygon class="cls-1" points="695.2 354.3 639.2 354.3 639.2 387.9 628 399.1 594.4 399.1 594.4 287.1 605.6 275.9 706.4 275.9 706.4 343.1 695.2 354.3"></polygon><polygon class="cls-1" points="728.66 309.5 728.66 287.1 739.86 275.9 851.86 275.9 851.86 298.3 840.66 309.5 807.06 309.5 807.06 387.9 795.86 399.1 762.26 399.1 762.26 309.5 728.66 309.5"></polygon><polyline class="cls-1" points="986.12 309.5 1030.92 309.5 1042.12 298.3 1042.12 275.9 952.52 275.9 941.46 287.1 941.46 399.1 1030.92 399.1 1042.12 387.9 1042.12 365.5 986.12 365.5 986.12 354.3 986.12 320.7 986.12 309.5"></polyline><polyline class="cls-1" points="202.68 309.5 202.68 320.7 247.48 320.7 247.48 343.1 236.28 354.3 202.68 354.3 202.68 365.5 258.68 365.5 258.68 387.9 247.48 399.1 157.88 399.1 157.88 287.1 169.08 275.9 258.68 275.9 258.68 298.3 247.48 309.5 202.68 309.5"></polyline><path class="cls-2" d="M157.88,287.1h89.6v23.87h-56v20.93h44.8v24.02h-44.8v20.78h56v22.4h-89.6v-112Z"></path><polygon class="cls-1" points="919.06 387.9 907.86 399.1 874.26 399.1 874.26 287.1 885.46 275.9 918.91 275.9 919.06 387.9"></polygon><polyline class="cls-1" points="639.2 309.5 639.2 320.7 672.8 320.7"></polyline><path class="cls-2" d="M280.94,287.1h33.6v89.6h56v22.4h-89.6v-112Z"></path><path class="cls-2" d="M404.14,287.1h33.6v89.6h56v22.4h-89.6v-112Z"></path><path class="cls-2" d="M527.2,287.1h33.6v89.6h0v22.4h-33.6v-112Z"></path><path class="cls-2" d="M874.26,287.1h33.6v89.6h0v22.4h-33.6v-112Z"></path><path class="cls-2" d="M695.2,287.1h-100.8v111.86h33.6v-43.33h67.2v-68.53ZM672.8,331.9h-44.8v-22.4h44.8v22.4Z"></path><polygon class="cls-2" points="751.06 287.1 728.66 287.1 728.66 309.5 762.26 309.5 762.26 399.1 795.86 399.1 795.86 311.41 840.66 311.41 840.66 287.1 751.06 287.1"></polygon><polygon class="cls-2" points="1030.92 287.1 941.46 287.1 941.46 399.1 1030.92 399.1 1030.92 376.7 974.92 376.7 974.92 311.12 1030.92 311.12 1030.92 287.1"></polygon></g></svg> 