<?xml version="1.0" encoding="UTF-8"?> <svg xmlns="http://www.w3.org/2000/svg" id="Layer_1" data-name="Layer 1" viewBox="0 0 1200 675"><defs><style> .cls-1 { fill: #022e7f; stroke-width: 0px; } </style></defs><path class="cls-1" d="M637.61,293.96v30.93h.28c5.12-6.72,12.42-10.08,21.91-10.08,4.24,0,8.24.69,12.02,2.07,3.78,1.38,7.13,3.46,10.06,6.24,2.92,2.78,5.22,6.26,6.87,10.43,1.66,4.17,2.48,8.99,2.48,14.45,0,6.16-1.13,11.88-3.4,17.16-2.27,5.29-5.8,9.52-10.59,12.7-4.79,3.18-10.74,4.78-17.85,4.78-10.26,0-17.56-3.27-21.92-9.79h-.27v8.1h-19.49v-87h19.9ZM562.85,313c37.86,0,34.62,40.64,34.62,40.64h-51.83c2.1,8.09,9.06,13.4,18.67,13.4,11.57,0,17.8-6.98,17.8-6.98h0l11,11.23c-5.66,5.62-13.27,10.76-28.97,10.76-24.27,0-37.22-16.05-37.22-33.07s9.71-35.98,35.93-35.98ZM1034.32,312.97c16.29,0,26.64,6.21,26.64,6.21h0l-6.69,14.34c-21.68-11.23-31.5-3.32-31.5.64s3.88,4.28,18.98,7.07c15.1,2.78,22.12,9.09,22.12,19.26s-8.74,21.4-30.1,21.4-31.07-6.85-31.07-6.85h0l6.47-14.23c16.72,10.6,35.71,7.17,35.71.86,0-4.74-6.31-5.74-13.11-6.53l-2.93-.34c-1.3-.15-2.58-.32-3.82-.52-8.63-1.39-21.47-5.99-21.47-19.26s14.46-22.04,30.74-22.04ZM938.94,289.43v52.54l28.32-27.18h23.14l-28.06,26.94,30.81,40.16h-22.98l-21.07-27.45-10.16,9.75v17.7h-18.93v-92.46h18.93ZM871.09,312.55c13.43,0,25.19,6.68,31.69,16.69h0l-16.01,9.4c-3-5.69-8.9-9.56-15.68-9.56-9.83,0-17.8,8.12-17.8,18.14s7.97,18.14,17.8,18.14c6.47,0,12.11-3.53,15.23-8.79h0l16.08,9.19c-6.57,9.7-18.13,16.14-31.31,16.14-20.47,0-37.06-15.53-37.06-34.67s16.59-34.67,37.06-34.67ZM783.1,312.54c20.46,0,37.06,15.53,37.06,34.67s-16.6,34.67-37.06,34.67-37.06-15.52-37.06-34.67,16.58-34.67,37.06-34.67ZM446.65,314.47v66.78h-20.55v-66.78h20.55ZM407.64,294.25v16.69h-45.96v22.15h40.61v16.53h-40.61v31.62h-20.55v-87h66.51ZM490.51,322.82s7.28-11.4,22.33-9.63h0v18.62s-16.34-4.17-22.33,12.68h0v36.76h-19.58v-66.77h18.72l.86,7.87v.48ZM726.45,289.11v91.65h-20.71v-91.65h20.71ZM653.82,329.49c-11.36,0-17.04,6.91-17.04,20.73,0,5.24,1.46,9.63,4.39,13.18,2.93,3.55,7.34,5.32,13.24,5.32,3.93,0,7.12-1.02,9.58-3.07,2.45-2.05,4.19-4.56,5.22-7.53,1.03-2.96,1.55-5.93,1.55-8.88,0-5.68-1.35-10.38-4.04-14.13-2.69-3.75-6.99-5.62-12.89-5.62ZM783.1,329.08c-9.84,0-17.8,8.12-17.8,18.14s7.97,18.14,17.8,18.14,17.79-8.12,17.79-18.14-7.97-18.14-17.79-18.14ZM563.17,327.55c-10.01,0-15.58,6.17-17.46,14.21h33.56c-.16-2.09-3.48-14.21-16.1-14.21ZM436.37,283.01c6.67,0,12.08,4.96,12.08,11.08s-5.41,11.08-12.08,11.08-12.08-4.96-12.08-11.08,5.41-11.08,12.08-11.08Z"></path><path class="cls-1" d="M272.45,267.44c3.1,0,5.6,2.51,5.6,5.6h0v128.91c0,3.1-2.51,5.6-5.6,5.6h-130.72c-3.1,0-5.6-2.51-5.6-5.6h0v-128.91c0-3.1,2.51-5.6,5.6-5.6h130.72ZM207.09,306.36l-39.42,62.28h78.85l-39.42-62.28Z"></path></svg> 