<?xml version="1.0" encoding="UTF-8"?> <svg xmlns="http://www.w3.org/2000/svg" xmlns:xlink="http://www.w3.org/1999/xlink" id="Layer_1" data-name="Layer 1" viewBox="0 0 1200 675"><defs><style> .cls-1 { fill: url(#linear-gradient); } .cls-1, .cls-2 { stroke-width: 0px; } .cls-2 { fill: #212121; } </style><linearGradient id="linear-gradient" x1="1526.94" y1="-233.96" x2="1532.88" y2="-237.39" gradientTransform="translate(-32858.6 -4754.31) scale(21.59 -21.59)" gradientUnits="userSpaceOnUse"><stop offset="0" stop-color="#6d6df5"></stop><stop offset=".27" stop-color="#6f6bf2"></stop><stop offset=".42" stop-color="#7767ea"></stop><stop offset=".56" stop-color="#845fdb"></stop><stop offset=".67" stop-color="#9754c7"></stop><stop offset=".78" stop-color="#b046ad"></stop><stop offset=".88" stop-color="#ce358c"></stop><stop offset=".97" stop-color="#f12167"></stop><stop offset="1" stop-color="#ff1a59"></stop></linearGradient></defs><path id="Path_5129" data-name="Path 5129" class="cls-1" d="M234.86,365.7c0,15.61-12.65,28.26-28.26,28.26-15.61,0-28.26-12.65-28.26-28.26s12.65-28.26,28.26-28.26,28.26,12.65,28.26,28.26h0ZM107.69,297.25v82.58c0,15.61,12.65,28.26,28.26,28.26h0c15.61,0,28.26-12.65,28.26-28.26h0v-56.45h-28.34c-14.78,0-27.06-11.39-28.17-26.13ZM220.65,266.86h-82.78c14.82,1.01,26.33,13.33,26.34,28.19v28.33h56.46c15.61,0,28.26-12.65,28.26-28.26h0c0-15.61-12.65-28.26-28.26-28.26h-.02Z"></path><path id="Path_5130" data-name="Path 5130" class="cls-2" d="M283.01,406.21c-3.1.12-5.72-2.31-5.83-5.41,0-.08,0-.16,0-.23v-120.51c.08-3.09,2.56-5.57,5.65-5.65h68.54c3.02-.1,5.55,2.26,5.65,5.28,0,.12,0,.24,0,.37.02,1.45-.56,2.85-1.6,3.86-1.07,1.07-2.54,1.65-4.05,1.6h-63.45l.75-1.13v50.09l-.94-1.69h55.19c1.51-.05,2.97.53,4.04,1.6,1.05,1.01,1.63,2.41,1.6,3.86.05,1.48-.53,2.91-1.6,3.92-1.1,1.01-2.55,1.55-4.04,1.5h-55.6l1.31-1.5v58.38c0,1.47-.57,2.88-1.6,3.92-1.04,1.12-2.51,1.74-4.04,1.69l.03.05Z"></path><path id="Path_5131" data-name="Path 5131" class="cls-2" d="M393.35,400.56c-.08,3.09-2.56,5.57-5.65,5.65-1.53.04-3-.57-4.04-1.69-1.03-1.05-1.61-2.46-1.6-3.92v-128.07c.08-3.09,2.56-5.57,5.65-5.65,1.53-.04,3,.57,4.05,1.69,1.03,1.05,1.61,2.46,1.6,3.92v128.07Z"></path><path id="Path_5132" data-name="Path 5132" class="cls-2" d="M503.13,309.98c1.53-.04,3,.57,4.04,1.69,1.06,1.11,1.63,2.6,1.6,4.14v84.74c-.07,3.09-2.56,5.57-5.65,5.65-1.53.04-3.01-.57-4.05-1.69-1.03-1.04-1.61-2.46-1.6-3.92v-22.4l3.2-1.5c-.07,3.76-1.07,7.45-2.92,10.73-2.08,3.82-4.79,7.25-8.01,10.17-3.51,3.22-7.56,5.8-11.96,7.63-4.68,1.97-9.71,2.96-14.78,2.92-8.12.13-16.09-2.16-22.9-6.59-6.81-4.49-12.27-10.73-15.82-18.07-3.91-8.03-5.88-16.86-5.74-25.79-.16-8.97,1.84-17.85,5.84-25.89,3.62-7.17,9.08-13.25,15.82-17.61,6.74-4.3,14.6-6.52,22.59-6.4,5.19-.04,10.33.92,15.16,2.82,4.55,1.79,8.73,4.41,12.33,7.72,3.44,3.16,6.22,6.97,8.19,11.21,1.92,4.09,2.92,8.56,2.92,13.08l-3.92-2.82v-23.92c-.04-1.54.54-3.03,1.6-4.15,1.04-1.12,2.52-1.74,4.05-1.69v-.04ZM463.96,397.54c6.29.11,12.46-1.7,17.7-5.17,5.26-3.59,9.45-8.54,12.14-14.31,3.01-6.38,4.53-13.37,4.42-20.43.13-6.91-1.39-13.75-4.42-19.96-2.76-5.68-6.95-10.54-12.15-14.12-5.22-3.54-11.4-5.38-17.7-5.27-6.25-.1-12.38,1.67-17.61,5.08-5.26,3.45-9.49,8.27-12.24,13.93-3.05,6.34-4.56,13.31-4.42,20.34-.12,7.06,1.4,14.05,4.42,20.43,2.68,5.78,6.88,10.72,12.15,14.31,5.24,3.48,11.41,5.29,17.7,5.17h0Z"></path><path id="Path_5133" data-name="Path 5133" class="cls-2" d="M543.99,406.21c-1.56.08-3.08-.54-4.14-1.69-.98-1.07-1.51-2.47-1.5-3.92v-84.39c0-1.47.57-2.88,1.6-3.92,2.21-2.24,5.81-2.26,8.05-.05.02.02.03.03.05.05,1.03,1.04,1.61,2.46,1.6,3.92v28.22l-2.82.57c.4-4.51,1.5-8.92,3.27-13.08,1.83-4.35,4.34-8.39,7.44-11.96,3.14-3.64,6.94-6.64,11.21-8.85,4.52-2.3,9.53-3.47,14.59-3.39,2.27,0,4.51.48,6.59,1.41,1.96.68,3.25,2.54,3.21,4.61.1,1.59-.44,3.15-1.5,4.33-.93.97-2.23,1.52-3.58,1.5-1.28-.03-2.54-.35-3.68-.94-1.64-.69-3.41-1.01-5.18-.94-3.73.06-7.38,1.14-10.54,3.11-3.67,2.2-6.92,5.04-9.6,8.38-2.9,3.54-5.22,7.51-6.88,11.77-1.66,4.16-2.53,8.6-2.54,13.08v46.51c-.07,3.09-2.56,5.58-5.65,5.65h.01Z"></path><path id="Path_5134" data-name="Path 5134" class="cls-2" d="M650.19,408.09c-8.93.18-17.75-1.96-25.6-6.21-7.29-4.03-13.3-10.03-17.33-17.32-4.29-7.98-6.43-16.93-6.21-25.99-.28-9.49,1.89-18.9,6.31-27.3,3.83-7.14,9.47-13.15,16.35-17.41,6.42-3.99,13.82-6.12,21.38-6.12,5.5,0,10.95.99,16.1,2.92,5.18,1.93,9.91,4.88,13.93,8.67,4.18,3.97,7.52,8.74,9.81,14.03,2.57,6.08,3.95,12.6,4.05,19.21-.11,1.48-.79,2.86-1.88,3.86-1.05,1.03-2.46,1.6-3.92,1.6h-75.53l-2.26-10.17h74.19l-2.45,2.26v-3.77c-.35-5.47-2.31-10.7-5.65-15.05-3.14-4.04-7.21-7.27-11.87-9.42-4.54-2.11-9.49-3.2-14.5-3.2-3.97.04-7.89.81-11.58,2.26-4.04,1.56-7.7,3.97-10.74,7.06-3.4,3.51-6.06,7.67-7.81,12.24-2.13,5.62-3.15,11.6-3.02,17.61-.1,6.98,1.45,13.88,4.51,20.15,2.91,5.92,7.45,10.88,13.08,14.31,6.18,3.64,13.26,5.47,20.43,5.27,4.03.06,8.05-.58,11.87-1.88,3.33-1.15,6.44-2.84,9.23-4.99,2.45-1.89,4.66-4.07,6.59-6.5,1.14-1.03,2.6-1.63,4.14-1.69,1.26,0,2.45.56,3.27,1.5.9.9,1.41,2.12,1.41,3.39-.02,1.52-.71,2.96-1.88,3.92-4.12,4.81-9.1,8.8-14.69,11.77-6.05,3.33-12.86,5.05-19.78,4.99h.04Z"></path><path id="Path_5135" data-name="Path 5135" class="cls-2" d="M707.62,390.93c-.93-1.28-1.43-2.83-1.41-4.42.1-1.5,1-2.83,2.35-3.49.94-.86,2.21-1.27,3.48-1.13,1.41.17,2.71.84,3.68,1.88,3.34,4.35,7.54,7.97,12.33,10.64,5.3,2.81,11.23,4.21,17.23,4.04,3.56,0,7.1-.61,10.47-1.79,3.27-1.08,6.21-2.95,8.56-5.46,2.3-2.55,3.52-5.89,3.39-9.32.13-3.46-1.08-6.84-3.39-9.42-2.46-2.51-5.45-4.45-8.76-5.65-3.72-1.42-7.52-2.62-11.39-3.58-4.27-1.13-8.41-2.42-12.43-3.86-3.78-1.32-7.36-3.16-10.64-5.46-3.01-2.12-5.54-4.85-7.44-8.01-1.97-3.5-2.95-7.47-2.82-11.49-.09-4.99,1.43-9.87,4.33-13.93,3.02-4.13,7.08-7.38,11.78-9.42,5.31-2.33,11.06-3.49,16.86-3.39,3.42.03,6.83.45,10.17,1.22,3.75.86,7.36,2.22,10.74,4.04,3.6,1.96,6.79,4.57,9.41,7.72,1.07,1,1.69,2.39,1.7,3.86-.03,1.5-.72,2.91-1.88,3.86-1,.75-2.23,1.15-3.48,1.13-1.26.02-2.46-.54-3.27-1.5-2.95-3.35-6.62-5.98-10.73-7.72-4.23-1.77-8.78-2.66-13.37-2.62-3.5-.03-6.98.58-10.26,1.79-3.07,1.1-5.82,2.94-8,5.36-2.22,2.62-3.37,5.99-3.21,9.42.12,3.33,1.5,6.5,3.86,8.85,2.67,2.48,5.8,4.4,9.22,5.65,4.21,1.63,8.52,3.02,12.89,4.15,3.92.98,7.79,2.17,11.58,3.58,3.49,1.27,6.79,3.01,9.81,5.17,2.82,2.06,5.14,4.73,6.78,7.81,1.82,3.68,2.7,7.76,2.54,11.87.12,5.15-1.51,10.19-4.61,14.31-3.21,4.12-7.47,7.3-12.33,9.22-5.44,2.19-11.27,3.28-17.13,3.2-6.76.01-13.45-1.32-19.68-3.92-6.65-2.88-12.45-7.42-16.85-13.18l-.07-.02Z"></path><path id="Path_5136" data-name="Path 5136" class="cls-2" d="M843.76,307.73c5.58-.06,11.15.6,16.57,1.96,4.35,1.01,8.47,2.83,12.15,5.36,2.65,1.55,4.37,4.29,4.61,7.35-.02,1.33-.48,2.62-1.31,3.67-.81,1.16-2.16,1.84-3.58,1.79-1.32.06-2.62-.34-3.68-1.13-1-.8-1.94-1.68-2.82-2.62-1.18-1.17-2.55-2.12-4.05-2.82-2.24-.94-4.57-1.63-6.96-2.07-3.41-.66-6.88-.98-10.36-.94-6.71-.09-13.31,1.74-19.02,5.27-5.62,3.49-10.23,8.39-13.37,14.21-3.31,6.16-5,13.06-4.89,20.05-.1,7.06,1.52,14.04,4.71,20.34,6.08,12.23,18.73,19.8,32.39,19.39,3.94.14,7.87-.3,11.68-1.31,2.48-.76,4.88-1.77,7.16-3.02,1.95-1.04,3.7-2.41,5.17-4.05,1.02-1.29,2.59-2.02,4.24-1.96,1.38-.11,2.73.41,3.68,1.41.85,1.03,1.28,2.34,1.22,3.67-.45,2.76-2.06,5.19-4.42,6.69-3.65,2.82-7.76,4.99-12.15,6.4-5.7,1.91-11.69,2.83-17.7,2.73-8.71.19-17.3-2.09-24.77-6.59-7.06-4.37-12.8-10.59-16.57-17.98-4.04-7.96-6.07-16.78-5.93-25.7-.15-8.72,1.92-17.34,6.02-25.04,3.92-7.44,9.74-13.7,16.86-18.17,7.54-4.67,16.27-7.06,25.13-6.88l-.03-.03Z"></path><path id="Path_5137" data-name="Path 5137" class="cls-2" d="M977.84,309.98c1.53-.04,3,.57,4.05,1.69,1.06,1.11,1.64,2.6,1.6,4.14v84.74c-.08,3.09-2.56,5.57-5.65,5.65-1.53.04-3-.57-4.05-1.69-1.03-1.04-1.61-2.46-1.6-3.92v-22.4l3.21-1.5c-.07,3.77-1.07,7.45-2.92,10.73-2.08,3.81-4.78,7.25-8,10.17-3.51,3.22-7.56,5.8-11.96,7.63-4.68,1.97-9.71,2.96-14.78,2.92-8.12.13-16.09-2.17-22.9-6.59-6.8-4.49-12.27-10.74-15.82-18.07-3.92-8.03-5.88-16.86-5.74-25.79-.16-8.97,1.84-17.85,5.83-25.89,3.62-7.17,9.08-13.25,15.82-17.61,6.74-4.3,14.6-6.52,22.59-6.4,5.19-.04,10.34.92,15.16,2.82,4.55,1.79,8.73,4.41,12.33,7.72,3.44,3.16,6.23,6.97,8.2,11.21,1.92,4.09,2.92,8.56,2.92,13.08l-3.92-2.82v-23.92c-.04-1.54.54-3.03,1.6-4.15,1.04-1.12,2.52-1.74,4.05-1.69v-.04ZM938.67,397.54c6.29.11,12.47-1.7,17.71-5.17,5.26-3.59,9.46-8.53,12.14-14.31,3.02-6.38,4.53-13.37,4.43-20.43.12-6.91-1.39-13.75-4.43-19.96-2.76-5.68-6.94-10.54-12.14-14.12-5.22-3.54-11.4-5.38-17.71-5.27-6.24-.1-12.38,1.67-17.6,5.08-5.27,3.45-9.5,8.27-12.25,13.93-3.05,6.34-4.56,13.31-4.42,20.34-.12,7.06,1.4,14.05,4.42,20.43,2.69,5.78,6.88,10.72,12.15,14.31,5.24,3.48,11.41,5.29,17.7,5.17h0Z"></path><path id="Path_5138" data-name="Path 5138" class="cls-2" d="M1058.43,307.73c6.97-.34,13.89,1.39,19.87,4.99,4.91,3.28,8.67,8.02,10.73,13.55,2.25,6.05,3.36,12.47,3.27,18.92v55.36c-.08,3.09-2.56,5.57-5.65,5.65-1.56.08-3.08-.54-4.14-1.69-.98-1.07-1.51-2.47-1.5-3.92v-54.85c.06-4.69-.77-9.35-2.45-13.74-1.58-4.07-4.37-7.56-8.01-9.98-4.37-2.7-9.46-4.01-14.59-3.77-5.35-.01-10.61,1.28-15.35,3.77-4.65,2.36-8.69,5.78-11.78,9.98-2.96,3.97-4.54,8.79-4.52,13.74v54.8c-.07,3.09-2.56,5.58-5.65,5.65-1.57.09-3.09-.54-4.15-1.69-.98-1.07-1.51-2.47-1.5-3.92v-84.39c0-1.47.57-2.88,1.6-3.92,2.21-2.24,5.81-2.26,8.05-.05.02.02.03.03.05.05,1.03,1.04,1.61,2.46,1.6,3.92v15.82l-4.33,6.78c.29-4.12,1.61-8.11,3.86-11.58,2.41-3.8,5.43-7.17,8.94-9.98,3.65-2.96,7.75-5.31,12.15-6.97,4.29-1.66,8.86-2.52,13.46-2.54h.03Z"></path></svg> 