<?xml version="1.0" encoding="UTF-8"?> <svg xmlns="http://www.w3.org/2000/svg" id="Layer_1" data-name="Layer 1" viewBox="0 0 2000 2000"><defs><style> .cls-1 { fill: #fff; stroke-width: 0px; } </style></defs><path class="cls-1" d="M1028.38,331.06c-.6,1.88-.25,3.82-.25,5.72-.03,26.71.13,53.43-.1,80.14-.08,8.67-.33,17.34-.36,26.01,0,.99.11,2.01-.72,2.96-4.37-.12-8.83-.81-13.75-.25v124.77h-23.63c0-5.41-.24-10.58.04-15.73.8-14.51.28-29.03.37-43.54.11-19.87.03-39.74.03-59.61,0-1.17-.06-2.34,0-3.51.1-1.9-.73-2.73-2.65-2.65-3,.11-6.01.02-9.01.23-2.47.18-3.1-.8-3.05-3.16.19-8.68.22-17.36.23-26.04.02-26.55.02-53.1-.01-79.65,0-1.91.35-3.84-.25-5.72h53.1Z"></path><path class="cls-1" d="M976.28,1668.94c-.03-33.21-.06-66.42-.09-99.62,0-4.01.07-8.01-.03-12.02-.05-1.96.68-2.67,2.61-2.55,2.83.16,5.67.09,8.5.23,2.03.1,3.21-.45,2.96-2.76-.12-1.16-.02-2.34-.02-3.51v-104.13c0-1.17.09-2.35-.02-3.51-.19-2.07.45-3,2.74-2.96,6.65.12,13.3.04,19.93.04,1.01,1.91.54,3.78.55,5.56.03,35.04.02,70.09.02,105.13,0,1.17.08,2.34-.01,3.5-.17,1.96.65,2.71,2.59,2.6,3.16-.19,6.34-.18,9.49-.37,2.02-.12,3.24.4,2.97,2.71-.08.66-.01,1.33-.01,2,0,35.05,0,70.09,0,105.13,0,1.5-.05,3-.08,4.49h-52.1Z"></path><path class="cls-1" d="M1652.61,942.11c-2.09-4.05-3.98-7.69-5.99-11.57,7.28-1.61,14.46-1.43,21.53-2.04,20.59-1.8,41.2-3.28,61.81-4.86,14.46-1.11,28.92-2.14,43.37-3.25,20.44-1.57,40.87-3.19,61.3-4.77,14.29-1.1,28.59-2.17,42.88-3.23,6.65-.49,13.31-.83,19.95-1.43,2.08-.19,3.37.23,4.53,2.06,9.72,15.36,19.37,30.75,28.54,46.45.14.25.07.62.11.99-1.21,1.2-2.82.72-4.23.83-25.25,1.99-50.51,3.94-75.76,5.86-14.79,1.13-29.59,2.17-44.38,3.3-20.1,1.55-40.2,3.17-60.3,4.71-14.63,1.12-29.25,2.15-43.88,3.24-8.64.64-17.29,1.2-25.91,2.06-2.87.29-4.26-.69-5.35-3.16-1.55-3.5-3.47-6.83-5.06-10.32-.8-1.76-1.81-2.48-3.81-2.32-18.43,1.52-36.86,2.98-55.3,4.42-10.14.79-20.28,1.5-30.42,2.27-20.77,1.58-41.54,3.2-62.31,4.79-14.29,1.09-28.59,2.16-42.88,3.22-11.47.85-22.94,1.64-34.41,2.5-3.35.25-3.35.3-3.59-2.87-.42-5.65-.81-11.31-1.25-16.96-.25-3.16-.29-3.18,3.03-3.45,4.65-.38,9.31-.72,13.96-1.08,25.75-1.95,51.51-3.92,77.26-5.85,15.62-1.17,31.25-2.22,46.88-3.42,23.92-1.82,47.84-3.74,71.76-5.6,2.44-.19,4.88-.33,7.9-.53"></path><path class="cls-1" d="M69.36,960.15c3.05-5.09,5.88-9.95,8.84-14.74,6.58-10.63,13.28-21.2,19.78-31.88,1.5-2.47,3.19-3.21,6.05-2.95,14.61,1.33,29.23,2.47,43.85,3.64,20.1,1.62,40.21,3.21,60.32,4.79,13.96,1.1,27.93,2.14,41.88,3.24,20.11,1.58,40.21,3.19,60.32,4.78,13.29,1.05,26.59,2.06,39.89,3.13.93.08,2-.22,2.96.79-1.09,3.69-3.82,6.76-5.21,10.88,5.45.46,10.52.92,15.61,1.31,19.45,1.49,38.9,2.91,58.35,4.43,22.93,1.81,45.86,3.72,68.79,5.53,15.13,1.19,30.26,2.26,45.39,3.4,9.48.71,18.96,1.28,28.42,2.25,5.01.51,4.15.44,3.87,4.35-.4,5.49-.83,10.98-1.13,16.47-.11,2.06-.74,2.92-3.02,2.73-13.62-1.15-27.25-2.17-40.88-3.25-10.46-.83-20.93-1.7-31.4-2.54-20.11-1.61-40.21-3.22-60.32-4.8-13.96-1.1-27.92-2.13-41.88-3.23-15.96-1.25-31.91-2.53-47.86-3.8-1.16-.09-2.35-.04-3.5-.23-1.97-.33-3.01.48-3.83,2.26-1.74,3.78-3.82,7.42-5.52,11.22-.97,2.17-2.27,2.84-4.61,2.64-10.96-.92-21.94-1.63-32.92-2.49-11.13-.87-22.26-1.84-33.39-2.73-19.44-1.56-38.88-3.12-58.32-4.65-14.63-1.15-29.26-2.23-43.88-3.38-19.44-1.53-38.88-3.1-58.32-4.65-8.64-.69-17.28-1.34-25.92-2.04-.63-.05-1.26-.27-2.39-.52"></path><path class="cls-1" d="M352.63,1067.62c3.13,5.71,5.84,10.64,8.49,15.47-.87,1.4-2.1,1.25-3.23,1.33-19.78,1.46-39.56,2.87-59.34,4.39-23.76,1.82-47.52,3.77-71.28,5.61-15.12,1.17-30.26,2.21-45.38,3.38-19.61,1.51-39.21,3.08-58.81,4.62-3.99.32-7.99.45-11.96.94-2.43.31-3.22-1.31-4.2-2.82-6.05-9.39-12.12-18.77-18.1-28.2-3.83-6.04-7.5-12.17-11.23-18.25,1.49-1.23,3-1.15,4.47-1.26,19.78-1.46,39.56-2.88,59.34-4.41,28.08-2.16,56.16-4.42,84.24-6.58,19.78-1.52,39.56-2.89,59.35-4.41,14.95-1.14,29.9-2.38,44.85-3.61,4.6-.38,5.12-.62,6.72,3.81,2.27,6.25,5.97,7.68,12.41,7.03,19.73-2,39.52-3.28,59.3-4.81,14.29-1.1,28.59-2.13,42.88-3.22,20.94-1.59,41.87-3.23,62.82-4.8,16.79-1.25,33.59-2.36,50.37-3.7,2.31-.19,2.97.46,3.09,2.55.35,5.83.69,11.65,1.25,17.46.24,2.45-.65,3.21-2.96,3.36-13.47.94-26.93,1.98-40.39,3.01-20.94,1.59-41.88,3.22-62.82,4.81-14.46,1.09-28.92,2.12-43.38,3.22-21.93,1.65-43.87,3.33-66.51,5.05"></path><path class="cls-1" d="M1639.08,1083.32c3.1-5.65,5.73-10.44,8.42-15.34-2.08-.96-4.06-.99-6.02-1.14-23.77-1.81-47.54-3.61-71.3-5.44-21.11-1.63-42.21-3.27-63.32-4.94-24.09-1.91-48.18-3.84-72.27-5.78-3.13-.25-3.08-.28-2.8-3.56.46-5.48,1.06-10.97,1.19-16.47.07-2.74,1.02-3.39,3.52-3.19,10.63.86,21.28,1.57,31.91,2.41,10.3.82,20.59,1.77,30.89,2.59,24.76,1.97,49.51,3.92,74.28,5.83,15.12,1.17,30.26,2.23,45.38,3.4,12.13.93,24.27,1.82,36.38,3,3.56.34,5.47-.69,6.75-4,1-2.61,2.15-5.64,4.21-7.23,2.18-1.69,5.47-.07,8.24.14,19.95,1.46,39.88,3.13,59.82,4.7,14.79,1.16,29.59,2.22,44.38,3.38,19.11,1.51,38.21,3.1,57.32,4.6,14.95,1.17,29.92,2.26,44.88,3.42,13.79,1.06,27.58,2.18,41.3,3.27.93,1.17-.02,1.94-.49,2.73-9.03,15-18.51,29.73-27.99,44.45-1.31,2.04-2.7,2.94-5.24,2.73-15.28-1.27-30.58-2.36-45.87-3.55-10.47-.81-20.93-1.69-31.4-2.53-19.93-1.6-39.87-3.21-59.81-4.77-14.13-1.11-28.26-2.14-42.38-3.25-19.94-1.57-39.88-3.18-59.82-4.77-3.11-.25-6.22-.42-10.16-.68"></path><path class="cls-1" d="M1598.83,851.31c-1.04-3.51-4.21-6.1-5.61-10.05,7.28-1.73,14.39-3.42,21.5-5.1,63.57-14.91,127.15-29.81,190.72-44.74,8.59-2.02,8.63-2.12,14.16,5.15,8.78,11.56,17.48,23.19,26.2,34.8.79,1.05,1.8,1.99,2.09,3.35-.61.95-1.61,1.09-2.58,1.32-72.82,17.05-145.64,34.11-218.47,51.15-.33.08-.71.03-.98.18-3.07,1.69-4.46-.19-5.8-2.55-1.63-2.91-3.42-5.72-5.16-8.56-2.26-3.66-2.28-3.69-6.31-2.75-10.38,2.42-20.75,4.92-31.14,7.33-49.15,11.47-98.31,22.92-147.47,34.37-.81.19-1.7.19-2.44.52-2.3,1-2.89-.23-3.32-2.17-1.21-5.53-2.55-11.04-3.83-16.56-.76-3.28-.76-3.38,2.78-4.21,17.84-4.19,35.69-8.34,53.53-12.5,40.07-9.34,80.14-18.67,120.21-28.02.61-.14,1.32-.07,1.92-.97"></path><path class="cls-1" d="M152.24,834.51c1.79-2.44,3.11-4.33,4.51-6.16,9.05-11.98,18.17-23.91,27.13-35.95,1.9-2.55,3.53-3.45,6.99-2.63,56.04,13.38,112.13,26.53,168.21,39.75,14.91,3.51,29.81,7.07,44.72,10.6,1.12.27,2.34.27,3.35,1.44-1.39,3.24-4.15,5.83-5.53,9.59,6.93,1.67,13.7,3.32,20.49,4.92,51.57,12.11,103.15,24.21,154.72,36.34,3.87.91,4.16.72,3.02,4.89-1.67,6.07-2.94,12.25-4.47,18.75-9.03-2.1-17.76-4.11-26.47-6.16-52.38-12.3-104.77-24.57-157.12-37.02-3.11-.74-4.52-.08-5.89,2.52-1.63,3.09-3.6,6-5.43,8.98-2.2,3.59-2.2,3.62-6.26,2.67-12.81-3-25.62-6.02-38.42-9.06-58.98-13.95-117.96-27.91-176.93-41.86-1.93-.46-3.86-.95-6.61-1.62"></path><path class="cls-1" d="M1839.34,1177.13c-1.35,3.04-3.38,5.28-5.17,7.62-8.82,11.54-17.82,22.94-26.51,34.57-2.06,2.76-4.05,3.23-7.18,2.49-58.18-13.83-116.37-27.58-174.56-41.34-12.15-2.87-24.3-5.76-36.47-8.6-1.3-.31-2.6-.55-3.95-1.49,2.75-4.31,5.51-8.63,8.42-13.18-5.25-2.07-10.51-2.86-15.64-4.07-51.37-12.15-102.78-24.19-154.17-36.27-.65-.15-1.31-.28-1.96-.39-2.06-.36-2.63-1.4-2.08-3.5,1.46-5.65,2.91-11.31,3.98-17.03.51-2.71,1.8-2.68,3.82-2.2,7.62,1.81,15.25,3.57,22.88,5.36,51.1,12.02,102.2,24.01,153.27,36.17,2.92.69,4.16-.03,5.59-2.35,1.8-2.94,2.79-7.33,5.96-8.24,2.82-.8,6.42,1.06,9.66,1.82,68.58,16.16,137.16,32.32,205.74,48.49,2.73.64,5.42,1.4,8.37,2.16"></path><path class="cls-1" d="M406.79,1157.89c3.04,4.69,5.84,9.01,8.55,13.2-.28,1.5-1.37,1.51-2.32,1.73-70.86,16.6-141.72,33.2-212.57,49.83-2.55.6-4.55.81-6.53-1.75-10.61-13.73-21.33-27.38-31.66-41.33-.19-.26-.27-.59-.55-1.21.9-.88,2.18-1.07,3.4-1.35,72.32-16.94,144.64-33.88,216.96-50.81q3.93-.92,6.02,2.36c1.16,1.83,2.42,3.61,3.38,5.55,1.11,2.25,2.51,2.45,4.85,1.87,12.3-3,24.65-5.76,36.98-8.64,46.22-10.78,92.44-21.58,138.66-32.35,3.7-.86,3.73-.78,4.61,2.93,1.15,4.87,2.35,9.72,3.54,14.57,1.05,4.32,1.07,4.36-3.11,5.33-21.57,5.03-43.15,10.03-64.72,15.06-34.54,8.04-69.09,16.1-103.63,24.16-.45.11-.86.4-1.87.88"></path><path class="cls-1" d="M1765.02,730.52c-5.24,2.12-10.32,4.2-15.41,6.24-57.97,23.26-115.94,46.51-173.91,69.76-.77.31-1.62.49-2.32.92-2.08,1.28-3.3.42-4.49-1.38-2.11-3.2-4.37-6.3-6.61-9.42-2.44-3.39-2.46-3.4-6.33-1.86-15.78,6.28-31.56,12.56-47.34,18.84-32.5,12.94-64.99,25.89-97.48,38.82-4.04,1.61-4.03,1.57-5.57-2.35-1.89-4.81-3.83-9.6-5.73-14.4-1.29-3.26-1.3-3.33,1.93-4.62,19.78-7.92,39.57-15.83,59.37-23.72,27.08-10.8,54.17-21.59,81.26-32.39.92-.37,1.81-.82,2.78-1.27-1.49-3.11-4.01-5.42-5.78-8.34.81-1.78,2.67-1.8,4.1-2.38,43.12-17.33,86.26-34.63,129.39-51.94,17.31-6.94,34.63-13.86,51.88-20.93,2.49-1.02,4.09-1.05,6.01,1.13,11.13,12.66,22.39,25.19,33.6,37.78.21.23.26.6.65,1.52"></path><path class="cls-1" d="M235.59,729.37c6.11-6.96,11.67-13.38,17.32-19.69,5.67-6.34,11.44-12.59,17.19-18.87,2.68-2.92,2.7-2.91,6.62-1.33,47.89,19.3,95.77,38.59,143.65,57.88,12.81,5.17,25.62,10.36,38.44,15.52.93.37,1.93.57,2.63,1.75-1.82,2.57-3.71,5.23-5.85,8.24,4.51,1.83,8.65,3.52,12.8,5.19,43.11,17.32,86.22,34.64,129.33,51.97.92.37,1.84.78,2.78,1.11,1.25.44,1.37,1.33.95,2.38-2.4,6.03-4.84,12.05-7.24,18.09-.87,2.21-2.2,1.29-3.62.72-8.81-3.55-17.64-7.05-26.44-10.58-39.71-15.95-79.42-31.9-119.13-47.84q-3.88-1.56-6.36,1.88c-2.14,2.98-4.45,5.87-6.31,9.01-1.51,2.54-2.98,2.83-5.67,1.73-13.7-5.66-27.5-11.08-41.25-16.62-41.23-16.63-82.45-33.27-123.68-49.91-8.49-3.43-16.96-6.88-26.16-10.6"></path><path class="cls-1" d="M1756.6,1280.54c-9.36,10.34-18.18,20.11-27.04,29.85-2.69,2.97-5.62,5.72-8.18,8.8-1.68,2.02-3.12,2.29-5.56,1.28-10.91-4.56-21.92-8.88-32.89-13.3-49.28-19.86-98.56-39.73-147.84-59.62-1.2-.49-2.67-.55-3.65-2.16,2.66-3.54,5.44-7.23,8.15-10.84-.86-1.82-2.57-1.87-3.88-2.4-44.19-17.79-88.41-35.53-132.62-53.27-.46-.19-.93-.36-1.4-.55q-3.39-1.43-1.98-4.93c1.97-4.95,3.93-9.91,5.92-14.86,1.28-3.19,1.33-3.24,4.61-1.93,13.16,5.24,26.31,10.51,39.45,15.79,33.38,13.4,66.76,26.82,100.14,40.23.46.19.98.28,1.4.54,2.26,1.35,3.9,1.07,5.32-1.37,1.34-2.29,3.24-4.25,4.62-6.53,1.37-2.26,2.74-2.7,5.29-1.62,10.13,4.27,20.37,8.26,30.57,12.38,51.44,20.74,102.89,41.48,154.33,62.22,1.53.62,3.02,1.34,5.23,2.32"></path><path class="cls-1" d="M602.65,1178.38c-47.12,18.8-94.07,37.54-141.6,56.51,3.26,4.35,6.2,8.27,9.25,12.33-2.39,1.9-5.16,2.52-7.68,3.54-58.1,23.35-116.23,46.64-174.35,69.95-1.08.43-2.17.86-3.23,1.34-1.71.79-2.98.47-4.33-.98-11.81-12.71-23.7-25.34-34.91-38.59-.09-.11-.1-.31-.2-.64.92-1.41,2.64-1.59,4.07-2.17,42.96-17.24,85.92-34.45,128.89-51.68,18.71-7.5,37.43-14.99,56.1-22.61,2.56-1.05,4.39-1.27,5.64,1.56.07.15.18.28.29.41,2.12,2.52,3.22,6.68,6.29,7.43,3,.73,6.2-1.88,9.27-3.11,44.56-17.74,89.11-35.54,133.65-53.32.78-.31,1.58-.55,2.32-.93,1.4-.73,2.03-.23,2.58,1.16,2.55,6.49,5.19,12.94,7.97,19.8"></path><path class="cls-1" d="M1681.84,641.49c-8.13,4.78-16.16,9.5-24.19,14.22-45,26.37-89.99,52.75-134.99,79.12-.72.42-1.49.77-2.15,1.27-1.93,1.45-3.39,1.34-4.91-.77-2.24-3.1-4.72-6.05-7.24-8.94-3.03-3.47-1.87-3.89-6.77-1.04-15.27,8.88-30.52,17.77-45.78,26.67-23.61,13.76-47.21,27.53-70.82,41.31-.72.42-1.46.8-2.14,1.27-1.55,1.09-2.6.85-3.57-.88-3.33-5.94-6.78-11.81-10.39-18.08,40.38-23.55,80.6-47.01,120.94-70.54-1.61-3.3-4.49-5.02-6.01-7.8,1.07-1.62,2.91-2.19,4.46-3.1,50.15-29.44,100.31-58.85,150.51-88.21,4.39-2.57,3.05-3.12,7.43.88,10.94,10.04,21.73,20.23,32.29,30.66,1.16,1.15,2.5,2.16,3.35,3.97"></path><path class="cls-1" d="M319.69,640.18c1.06-2.41,3.18-3.6,4.8-5.21,10.3-10.23,20.96-20.08,31.58-29.97,2.07-1.93,3.41-2.16,5.93-.68,50.8,30.02,101.67,59.91,152.52,89.85.98.58,2.16.97,2.87,2.27-1.93,2.32-3.9,4.7-5.84,7.03.94,1.63,2.46,2.05,3.72,2.79,37.53,22,75.06,44,112.6,65.99.86.51,1.68,1.1,2.57,1.55,1.42.72,1.34,1.62.61,2.83-3.61,5.97-7.17,11.97-10.9,18.22-8.55-5-16.87-9.87-25.19-14.75-31.79-18.62-63.56-37.25-95.36-55.86-4.58-2.68-3.29-2.95-7.01,1.33-2.41,2.77-4.82,5.55-6.93,8.55-1.63,2.32-3.03,2.21-5.28.87-13.31-7.95-26.7-15.76-40.07-23.62-38.93-22.91-77.85-45.83-116.78-68.75-1.27-.75-2.48-1.59-3.82-2.45"></path><path class="cls-1" d="M1673.02,1367.99c-3.78,4.4-8.23,8.18-12.48,12.15-8.16,7.63-16.46,15.13-24.6,22.79-1.71,1.62-2.92,1.93-5.12.63-50.96-30.1-101.98-60.1-152.99-90.13-.55-.32-1.07-.72-2.1-1.42,3.04-3.48,5.93-6.81,9.04-10.37-38.84-22.77-77.35-45.34-116.16-68.1,4.01-6.85,7.86-13.41,11.81-20.14,8.25,4.81,16.18,9.39,24.09,14.03,30.49,17.88,60.97,35.77,91.46,53.65q4.43,2.6,7.85-1.55c1.49-1.8,3.18-3.47,4.45-5.41,1.47-2.24,2.8-2.1,4.92-.82,9.84,5.95,19.78,11.74,29.69,17.58,42.1,24.78,84.21,49.56,126.3,74.34,1.29.75,2.69,1.35,3.85,2.76"></path><path class="cls-1" d="M329.04,1369.68c.63-1.53,1.87-1.79,2.84-2.36,52.03-30.52,104.07-61.03,156.11-91.53,3.94-2.31,3.19-2.55,6.37,1.13,2.17,2.52,3.81,6.58,6.66,7.15,3.13.63,6.14-2.75,9.13-4.48,35.58-20.69,71.13-41.44,106.69-62.15,1.28-.75,2.46-1.74,4.18-1.99,3.57,5.97,7.12,11.98,10.75,17.93.78,1.28.72,2.06-.65,2.79-1.62.86-3.16,1.85-4.75,2.77-35.13,20.47-70.26,40.94-105.39,61.42-1.27.74-2.5,1.56-3.99,2.5,2.58,4.09,6.26,7.05,8.96,10.72-.53,1.52-1.93,1.88-3.04,2.53-50.31,29.51-100.65,58.97-150.92,88.54-2.55,1.5-4.11,1.62-6.37-.52-10.78-10.2-21.75-20.2-32.62-30.3-1.43-1.33-2.72-2.81-3.98-4.13"></path><path class="cls-1" d="M1331.4,724.19c33.9-27.09,67.36-53.85,101.51-81.15-2.89-2.36-5.35-4.36-8.03-6.55,9.32-7.5,18.14-14.61,26.97-21.7,33.56-26.96,67.12-53.92,100.69-80.87,4.06-3.26,3.01-2.97,6.97.05,12.85,9.81,25.5,19.88,37.8,30.22.05,1.65-1.25,2.04-2.09,2.72-43.04,34.6-86.11,69.19-129.17,103.77-.65.52-1.35,1-1.93,1.58-1.35,1.35-2.45,1.23-3.73-.2-2.79-3.1-5.67-6.12-8.58-9.11-3.01-3.09-2.53-2.99-5.95-.26-21.64,17.29-43.29,34.57-64.93,51.85-10.56,8.44-21.1,16.89-31.67,25.31-3.78,3.01-3.24,2.74-6.01-.82-3.79-4.86-7.68-9.63-11.85-14.86"></path><path class="cls-1" d="M538.95,672.32c-44.84-36.16-89.64-72.28-134.35-108.32-.21-1.69,1.15-2.1,1.96-2.77,11.97-9.88,24.1-19.56,36.46-28.95,3-2.28,3.04-2.27,6.23.31,34.95,28.17,69.9,56.34,104.84,84.51,7.27,5.86,14.52,11.74,22.2,17.95-2.36,2.49-4.58,4.82-6.96,7.33,33.56,26.95,66.97,53.79,100.49,80.71-4.52,5.66-8.84,10.94-13,16.35-1.24,1.61-2.14,1.56-3.6.36-6.46-5.28-12.99-10.48-19.49-15.7-26.02-20.89-52.05-41.78-78.08-62.67-3.06-2.45-3.04-2.44-5.87.35-3.44,3.39-6.91,6.73-10.81,10.53"></path><path class="cls-1" d="M1417.84,1371.42c2.71-3.75,6.47-5.89,9.03-9.67-31.86-25.57-63.67-51.11-95.69-76.83,4.5-5.67,8.84-11.1,13.11-16.58,1.08-1.39,2-1.47,3.26-.31.98.91,2.08,1.67,3.12,2.51,30.05,24.14,60.1,48.27,90.15,72.41.91.73,1.86,1.41,2.93,2.23,4.15-3.09,7.31-7.21,11.3-11.06,44.82,36.14,89.57,72.22,134.55,108.49-13.44,11.08-26.76,21.35-40.13,31.57-1.91,1.46-3.07,1.05-4.71-.31-5.38-4.48-10.9-8.81-16.35-13.21-36.11-29.11-72.22-58.22-108.33-87.33-.64-.52-1.26-1.08-2.22-1.91"></path><path class="cls-1" d="M584.83,1373.43c-8.71,7-17.13,13.78-25.57,20.56-33.43,26.85-66.87,53.68-100.28,80.54-4.15,3.33-3.34,3.24-7.43.08-11.75-9.08-23.45-18.21-35.16-27.34-1.04-.81-2-1.7-3-2.56.35-1.67,1.71-2.22,2.67-2.99,42.77-34.39,85.58-68.75,128.38-103.1,2.83-2.27,2.85-2.26,5.51.32,1.32,1.28,2.63,2.56,3.88,3.91q3.87,4.13,8.45.46c29.72-23.75,59.43-47.49,89.15-71.23,1.41-1.13,2.89-2.18,4.58-3.46,4.86,5.97,9.57,11.75,14.68,18.02-31.9,25.5-63.71,50.94-95.74,76.55,2.73,3.94,6.61,6.36,9.87,10.23"></path><path class="cls-1" d="M1371.06,588.74c-2.86-2.39-5.26-4.4-7.81-6.52.91-2.08,2.67-3.41,4.09-4.94,31.86-34.36,63.76-68.68,95.66-103.02q4.03-4.33,9.14-1.13c13.12,8.25,26.08,16.74,39.44,25.96-36.17,38.95-72.17,77.71-108.49,116.8-3.95-3.47-7.75-6.65-11.35-10.03-1.85-1.74-3.04-1.76-4.83.19-8.8,9.59-17.76,19.02-26.63,28.53-17.98,19.26-35.95,38.54-53.93,57.8-2.34,2.51-2.35,2.47-4.96.01-4-3.78-7.91-7.67-12.09-11.25-2.04-1.75-2.08-2.73-.23-4.69,16.7-17.72,33.3-35.53,49.92-53.33,10.58-11.33,21.15-22.68,32.07-34.39"></path><path class="cls-1" d="M638.95,580.69c-2.82,2.35-5.24,4.36-7.84,6.53,2.74,4.12,6.31,7.37,9.57,10.88,23.73,25.55,47.52,51.05,71.27,76.58,2.77,2.98,2.74,3-.22,5.75-3.91,3.64-7.88,7.21-11.68,10.96-1.82,1.8-2.96,1.85-4.78-.14-9.34-10.22-18.84-20.31-28.27-30.45-17.95-19.3-35.89-38.61-53.79-57.87-1.69-.14-2.4,1.16-3.37,1.98-2.67,2.27-5.29,4.6-7.92,6.91-3.09,2.71-3.11,2.73-5.78-.13-2.74-2.92-5.44-5.88-8.16-8.81-31.52-34.03-63.04-68.06-94.55-102.09-.79-.85-1.5-1.78-2.17-2.58.23-1.31,1.24-1.68,2.03-2.22,12.53-8.58,25.26-16.84,38.14-24.86,3.89-2.42,3.91-2.43,6.9.8,19.13,20.71,38.25,41.44,57.39,62.14,14.27,15.42,28.57,30.81,43.23,46.63"></path><path class="cls-1" d="M1503.91,1506.56c-5.79,3.84-11.13,7.48-16.56,10.97-8.13,5.23-16.31,10.37-24.51,15.51-3.68,2.31-3.74,2.29-6.84-1.05-25.72-27.76-51.44-55.53-77.16-83.31-6.8-7.34-13.59-14.68-20.38-22.03-.78-.85-1.49-1.77-2.38-2.85,3.34-2.68,6.57-5.27,10.14-8.14-26.56-28.59-52.97-57-79.5-85.56,5.73-5.47,11.49-10.26,16.93-16.12,26.96,28.98,53.74,57.76,80.72,86.74,4.13-3.52,8.03-6.84,12.06-10.28,35.83,38.72,71.47,77.22,107.47,116.11"></path><path class="cls-1" d="M499.42,1507.89c10.03-10.83,20.11-21.73,30.21-32.61,24.3-26.17,48.61-52.32,72.92-78.48.68-.73,1.49-1.38,2.05-2.18,1.36-1.93,2.58-1.46,4.08-.11,2.84,2.56,5.79,4.99,9.07,7.8,26.87-28.76,53.58-57.35,80.57-86.23,5.74,5.26,11.37,10.41,17.25,15.79-26.49,28.38-52.88,56.65-79.42,85.08,3.17,3.49,7.19,5.67,10.4,8.76-.27,1.7-1.58,2.58-2.56,3.63-32.37,34.84-64.76,69.66-97.16,104.47-2.92,3.13-2.94,3.15-6.42,1.04-12.83-7.79-25.5-15.85-37.96-24.22-1.08-.73-2.39-1.21-3.04-2.74"></path><path class="cls-1" d="M1339.52,564.13c-3.84-2.71-7.24-5.11-10.62-7.52-3.7-2.62-3.44-3.79-6.73,1.03-9.51,13.89-19.14,27.7-28.73,41.54-11.77,17-23.54,33.99-35.33,50.97-.75,1.08-1.26,2.37-2.88,3.26-6.07-4.19-12.3-8.5-18.81-12.99,23.03-33.28,45.87-66.29,68.77-99.38-1.73-2.08-4.11-3.01-6.12-4.43-2.86-2.02-2.92-2-.92-4.92,8.39-12.24,16.81-24.46,25.22-36.69,16.46-23.88,32.94-47.76,49.37-71.66,3.18-4.62,2.65-3.91,6.99-1.77,13.45,6.62,26.78,13.47,39.9,20.72.72.4,1.42.84,2.66,1.58-27.55,40.02-55,79.9-82.79,120.26"></path><path class="cls-1" d="M677.33,552.49c-4.83,3.39-9.45,6.62-14.6,10.24-27.42-39.98-54.82-79.92-82.48-120.26,7.35-3.9,14.36-7.7,21.45-11.35,7.25-3.74,14.57-7.37,21.89-10.97,4.04-1.98,3.18-2.59,6.11,1.67,16.15,23.51,32.26,47.04,48.39,70.56,8.59,12.52,17.15,25.04,25.77,37.54,2.63,3.81,2.44,3.47-.86,5.63-1.93,1.26-4.91,1.93-5.38,4.09-.47,2.17,2.06,3.93,3.35,5.8,20.78,30.25,41.6,60.46,62.41,90.68.66.96,1.26,1.95,2.1,3.26-6.35,4.36-12.63,8.67-19.18,13.17-23.01-33.39-45.9-66.6-68.96-100.06"></path><path class="cls-1" d="M1290.14,1469.93c3.09-3.18,7.39-4.54,10.78-7.62-6.22-9.06-12.32-17.97-18.44-26.86-14.56-21.15-29.12-42.31-43.71-63.43-2.83-4.1-2.77-3.46,1.34-6.27,5.06-3.46,10.13-6.91,15.47-10.56,21.69,31.47,43.25,62.76,65.04,94.38,4.33-2.98,8.53-5.87,13.02-8.96,27.38,39.92,54.6,79.62,82.07,119.67-4.94,2.63-9.45,5.11-14.04,7.44-9.95,5.06-19.96,9.97-29.87,15.08-2.39,1.23-3.73.88-5.27-1.37-25.39-37.17-50.86-74.28-76.39-111.5"></path><path class="cls-1" d="M747.49,1357.18c5.72,3.83,11.49,7.74,17.31,11.57,1.6,1.05,1.2,2.04.32,3.29-3.35,4.78-6.65,9.6-9.97,14.4-17.17,24.82-34.34,49.63-51.5,74.46-.66.95-1.26,1.93-2.05,3.15,3.09,1.93,6.05,3.75,8.98,5.61,2.97,1.89,2.99,1.93,1.01,4.82-9.25,13.47-18.52,26.93-27.79,40.39-15.51,22.52-31.02,45.05-46.53,67.56-2.26,3.28-2.29,3.29-6.19,1.46-13.27-6.22-26.35-12.82-39.26-19.77q-4.08-2.2-1.51-5.96c21.08-30.63,42.17-61.26,63.25-91.89,4.82-7.01,9.67-14,14.42-21.05,1.26-1.87,2.28-2.51,4.3-.82,2.29,1.93,4.95,3.39,7.33,5.21,1.76,1.33,2.79.98,3.99-.79,5.13-7.6,10.38-15.12,15.6-22.66,15.18-21.94,30.36-43.87,45.56-65.81.75-1.08,1.34-2.31,2.74-3.16"></path><path class="cls-1" d="M1270.52,519.36c-5.23-2.82-10.05-5.42-15.08-8.13-6.27,12.63-12.43,24.98-18.53,37.35-11.19,22.7-22.34,45.42-33.54,68.12-1.72,3.48-1.78,3.45-5.11,1.81-4.78-2.35-9.56-4.69-14.34-7.05-3.19-1.58-3.22-1.61-1.68-4.72,8.67-17.62,17.37-35.24,26.05-52.87,8.32-16.88,16.62-33.76,24.93-50.65.36-.73.65-1.5,1.01-2.33-2.19-2.04-4.97-2.86-7.51-3.98-2.26-.99-2.57-1.97-1.46-4.13,4.13-8.17,8.09-16.43,12.12-24.65,13.8-28.1,27.59-56.2,41.4-84.29,2.1-4.27,1.39-4.17,5.8-2.61,14.11,5.02,28.03,10.51,41.88,16.2,3.18,1.31,3.27,1.45,1.71,4.65-7.29,14.97-14.63,29.91-21.96,44.86-11.21,22.88-22.41,45.76-33.62,68.63-.58,1.19-1.27,2.32-2.08,3.8"></path><path class="cls-1" d="M673.21,397.62c7.53-2.99,14.59-5.87,21.72-8.59,8.09-3.09,16.29-5.88,24.31-9.1,2.55-1.02,3.5-.33,4.55,1.85,5.94,12.3,11.99,24.54,17.97,36.81,11.54,23.64,23.05,47.3,34.59,70.94,2.46,5.04,3,4.72-2.38,7.16-1.92.87-4.18,1.3-5.67,3.35,5.39,10.99,10.8,22.05,16.22,33.1,11.66,23.77,23.33,47.53,34.99,71.3.44.9.84,1.82,1.26,2.72.61,1.31.27,2.06-1.11,2.71-5.73,2.69-11.44,5.41-17.07,8.3-2.59,1.33-2.85-.79-3.5-2.1-5.11-10.29-10.13-20.62-15.19-30.94-11.72-23.93-23.42-47.86-35.16-71.78-1.63-3.33-1.71-3.33-5.11-1.53-2.8,1.47-5.54,3.06-8.33,4.56-3.27,1.76-3.34,1.78-5.07-1.71-6.03-12.25-12.03-24.52-18.02-36.79-11.68-23.94-23.35-47.89-35.02-71.84-1.29-2.66-2.55-5.34-4.01-8.41"></path><path class="cls-1" d="M1265.82,1483.69c3.32,6.72,6.42,12.97,9.48,19.24,15.5,31.73,31.04,63.43,46.43,95.21,3.16,6.5,3.87,5.23-3.17,8.1-12.8,5.22-25.72,10.1-38.77,14.65-4.54,1.58-4.58,1.61-6.69-2.7-15.11-30.99-30.21-61.98-45.31-92.97-2.48-5.09-4.91-10.21-7.51-15.24-1.11-2.15-.7-3.28,1.53-4.17,2.92-1.19,5.73-2.62,9.08-4.17-1.97-4.11-3.84-8.1-5.78-12.05-13.93-28.42-27.87-56.83-41.8-85.24-2.62-5.34-2.6-5.33,2.88-8.01,4.19-2.04,8.44-3.99,12.5-6.27,2.39-1.34,3.39-.78,4.5,1.55,4.97,10.36,10.12,20.64,15.18,30.96,10.7,21.84,21.39,43.68,32.1,65.51,1.44,2.93,1.49,2.95,4.28,1.5,3.54-1.84,7.04-3.74,11.08-5.89"></path><path class="cls-1" d="M801.53,1390.26c6.4,3.05,12.65,6.13,18.98,9.02,2.14.98,1.49,2.09.76,3.55-2.69,5.36-5.31,10.75-7.96,16.13-13.18,26.75-26.37,53.5-39.55,80.25-1.76,3.58-1.74,3.58,1.85,5.35,2.97,1.47,6.19,2.42,9.19,4.55-2.56,5.28-5.07,10.5-7.62,15.7-15.4,31.41-30.79,62.84-46.24,94.22-2.46,5-1.08,5.07-7.26,2.95-13.54-4.65-26.94-9.7-40.21-15.08-1.22-.5-2.44-1.02-4.13-1.72,19.58-39.93,39.06-79.65,58.63-119.56,3.86,2.01,7.31,3.64,10.58,5.58,2,1.19,2.82.66,3.74-1.26,3.52-7.36,7.19-14.66,10.79-21.98,12.36-25.12,24.71-50.23,37.07-75.34.37-.74.83-1.42,1.39-2.37"></path><path class="cls-1" d="M1180.04,478.12c-4.81,15.15-9.65,30.37-14.49,45.59-7.12,22.37-14.24,44.74-21.38,67.1-1.24,3.88-1.28,3.86-5.05,2.65-5.07-1.63-10.15-3.22-15.21-4.9-3.32-1.1-3.44-.44-2.16-4.48,9.36-29.53,18.77-59.02,28.17-88.53,2.38-7.45,4.71-14.93,7.17-22.35.76-2.28.95-3.95-2.08-4.21-.32-.03-.63-.21-.93-.34-2.41-1-6.13-.51-7.02-2.94-.69-1.88.99-4.7,1.73-7.06,10.68-33.82,21.38-67.62,32.06-101.44,1.77-5.6,1.73-5.57,7.43-4.3,13.65,3.04,27.18,6.6,40.63,10.42,4.27,1.21,5,.1,3.12,6.01-11.61,36.67-23.16,73.35-34.72,110.03-.15.48-.41.93-.49,1.41-.38,2.12-1.26,2.74-3.43,1.75-3.02-1.38-6.22-2.38-9.32-3.59-1.24-.49-2.43-1.08-4.04-.83"></path><path class="cls-1" d="M822.59,476.91c-3.98.78-7.29,2.41-10.72,3.64-4.9,1.75-4.88,1.84-6.48-3.28-2.94-9.37-5.86-18.75-8.8-28.12-8.54-27.15-17.09-54.3-25.62-81.46-1.2-3.81-1.17-3.86,2.6-4.95,14.4-4.14,28.92-7.81,43.56-11.03,3.53-.78,3.57-.78,4.73,2.89,5.69,18.1,11.38,36.2,17.05,54.3,5.53,17.63,11.04,35.26,16.55,52.9,1.13,3.62,1.1,3.63-2.42,4.76-.32.1-.62.25-.94.35q-7.33,2.25-5.1,9.29c11.19,35.4,22.36,70.79,33.54,106.19.3.95.5,1.93.83,2.88.43,1.22-.09,1.86-1.2,2.21-6.19,1.95-12.39,3.86-18.57,5.85-2.33.76-2.38-.94-2.82-2.34-2.91-9.2-5.84-18.41-8.75-27.61-8.68-27.46-17.35-54.92-26.02-82.38-.4-1.26-.86-2.5-1.42-4.1"></path><path class="cls-1" d="M1155.51,1531.25c-6.18-19.67-12.15-38.73-18.15-57.78-5.06-16.04-10.16-32.06-15.23-48.09-1.31-4.13-1.28-4.13,2.8-5.43,4.6-1.47,9.19-2.96,13.78-4.45,4.39-1.43,4.41-1.44,5.76,2.83,4.06,12.86,8.1,25.72,12.15,38.59,6.7,21.28,13.4,42.57,20.11,63.85.29.94.73,1.84,1.2,3,4.84-1.79,9.48-3.49,14.04-5.17,1.38.91,1.47,2.3,1.87,3.55,11.56,36.69,23.13,73.38,34.7,110.06.05.16.09.32.14.48q1.26,4.13-2.85,5.29c-14.1,4.01-28.33,7.53-42.62,10.82-4.13.95-4.19.88-5.47-3.17-11.2-35.58-22.39-71.17-33.57-106.76-1.19-3.77-1.14-3.79,2.89-5.02,2.7-.82,5.4-1.65,8.46-2.58"></path><path class="cls-1" d="M825.53,1524.63c4.49-14.09,8.95-28.03,13.39-41.98,6.76-21.26,13.49-42.52,20.28-63.77,1.2-3.75.78-3.92,4.66-2.58,4.87,1.68,9.85,3.07,14.78,4.59,3.96,1.21,3.99,1.22,2.67,5.42-3.19,10.17-6.39,20.33-9.62,30.48-7.72,24.27-15.47,48.53-23.22,72.79-.25.8-.51,1.58-.22,2.75,3.15.96,6.48,1.96,9.79,2.99,3.23,1,3.27,1.03,2.21,4.41-4.7,14.93-9.43,29.84-14.15,44.76-6.52,20.63-13.04,41.27-19.56,61.9-1.32,4.18-1.37,4.25-5.51,3.29-14.28-3.29-28.53-6.65-42.64-10.62-3.42-.97-4.37-.56-2.83-5.4,10.31-32.36,20.49-64.76,30.72-97.14,1.5-4.76,3.13-9.48,4.54-14.27.57-1.96,1.47-2.27,3.26-1.59,3.71,1.4,7.33,3.07,11.46,3.98"></path><path class="cls-1" d="M1063.46,449c1.85-11.96,3.61-23.47,5.4-34.98,3.22-20.75,6.46-41.5,9.68-62.25.72-4.62,1.48-9.22,2.09-13.85.28-2.13,1.23-2.75,3.35-2.51,14.9,1.72,29.78,3.57,44.61,5.8,4.55.69,4.61.73,3.81,5.91-2.34,15.15-4.7,30.3-7.06,45.44-3.31,21.24-6.62,42.48-9.95,63.72-.08.48-.32.92-.62,1.74-4.02-.86-8.03-1.77-12.07-2.55-3.2-.62-3.5-.43-3.98,2.63-2.76,17.61-5.48,35.23-8.23,52.85-3.34,21.4-6.73,42.8-10.02,64.21-.28,1.84-.81,2.75-2.81,2.42-6.25-1.03-12.5-2.03-18.76-2.97-2.05-.31-1.7-1.69-1.52-2.99.78-5.28,1.58-10.55,2.4-15.82,2.91-18.61,5.82-37.21,8.73-55.81,2.37-15.14,4.75-30.28,7.08-45.44.58-3.77.48-3.77-3.17-4.28-2.8-.38-5.58-.8-8.98-1.3"></path><path class="cls-1" d="M926.86,450.44c.94,6.41,1.78,12.33,2.69,18.23,3.56,23.05,7.13,46.11,10.7,69.16,1.66,10.7,3.33,21.4,4.99,32.11.78,5.02-.27,4.25-3.42,4.64-5.46.67-10.91,1.43-16.3,2.5-2.32.46-2.94-.21-3.24-2.29-1.31-9.07-2.71-18.13-4.1-27.18-3.14-20.42-6.28-40.85-9.44-61.27-1.48-9.55-3-19.09-4.51-28.64-.51-3.26-.53-3.25-4.01-2.6-2.79.52-5.57,1.02-8.35,1.58-3.5.7-3.6.74-4.22-3.03-1.57-9.71-3.04-19.43-4.53-29.14-3.54-22.89-7.08-45.78-10.6-68.68-.61-3.95-1.05-7.94-1.76-11.87-.36-1.99.31-2.6,2.2-2.89,12.52-1.91,25.07-3.55,37.67-4.93,2.81-.31,5.65-.49,8.44-.98,2.61-.45,3.56.69,3.9,3.06,1.38,9.4,2.81,18.79,4.25,28.18,3.52,22.89,7.07,45.79,10.58,68.68.56,3.62.94,7.27,1.6,10.88.39,2.15-.23,3.06-2.43,3.25-3.14.27-6.26.75-10.09,1.23"></path><path class="cls-1" d="M1131.47,1658.61c-13.08,2.3-25.64,3.82-38.21,5.3-3.32.39-6.63.78-9.95,1.03-3.78.28-3.88.23-4.47-3.38-1.17-7.24-2.22-14.51-3.33-21.76-3.23-20.92-6.47-41.85-9.69-62.78-1.1-7.08-2.21-14.17-3.24-21.26-.61-4.18-.51-4.21,3.39-4.84,2.91-.48,6.83.53,8.42-1.92,1.34-2.06-.35-5.43-.78-8.21-4.65-29.99-9.28-59.98-13.92-89.97-.72-4.62-1.44-9.23-2.14-13.85-.21-1.4-.2-2.52,1.76-2.8,6.88-.97,13.74-2.12,20.98-3.26,5.95,38.44,11.83,76.47,17.74,114.67,5.22-.37,9.96-2.04,15.57-2.85,5.94,38.51,11.87,76.99,17.86,115.88"></path><path class="cls-1" d="M946.1,1437.32c-1.09,7-2.19,14.25-3.33,21.49-3.18,20.25-6.38,40.49-9.55,60.73-1.45,9.22-2.77,18.45-4.31,27.66-.39,2.34.03,3.35,2.53,3.47,2.49.12,4.95.63,7.44.93,3.71.46,3.81.46,3.22,4.27-2.06,13.51-4.21,27-6.32,40.49-2.86,18.27-5.71,36.54-8.57,54.81-.64,4.12-1.37,8.22-1.92,12.35-.23,1.73-1.04,2.27-2.65,2.1-15.73-1.71-31.45-3.54-47.12-5.78-2.36-.34-2.56-1.49-2.25-3.41,1.84-11.35,3.65-22.7,5.42-34.05,3.16-20.25,6.29-40.5,9.43-60.75.79-5.1,1.56-10.21,2.33-15.32.29-1.94.97-2.98,3.3-2.27,2.7.8,5.59.97,8.29,1.78,2.66.79,3.56-.26,3.92-2.67,1.34-8.9,2.73-17.79,4.12-26.68,3.56-22.71,7.14-45.43,10.71-68.14.75-4.77,1.57-9.54,2.22-14.32.24-1.78.67-2.71,2.78-2.35,6.07,1.04,12.17,1.97,18.27,2.82,1.71.23,2.37.94,2.02,2.84"></path></svg> 