<?xml version="1.0" encoding="UTF-8"?> <svg xmlns="http://www.w3.org/2000/svg" id="Layer_1" data-name="Layer 1" viewBox="0 0 1200 675"><defs><style> .cls-1 { fill: #fbbc05; } .cls-1, .cls-2, .cls-3, .cls-4, .cls-5 { stroke-width: 0px; } .cls-2 { fill: #34a853; } .cls-3 { fill: #5f6368; } .cls-4 { fill: #4285f4; } .cls-5 { fill: #ea4335; } </style></defs><path id="Path_5050" data-name="Path 5050" class="cls-5" d="M632.52,214.44l7.63.13,20.74-20.74,1-8.82c-38.44-34.21-97.34-30.79-131.55,7.65-9.62,10.8-16.58,23.7-20.35,37.66,2.26-.9,4.76-1.04,7.11-.4l41.46-6.82s2.13-3.54,3.21-3.32c18.47-20.21,49.48-22.55,70.78-5.34h-.01Z"></path><path id="Path_5051" data-name="Path 5051" class="cls-4" d="M690.11,230.38c-4.77-17.53-14.54-33.3-28.14-45.35l-29.41,29.41c12.21,9.81,19.32,24.64,19.32,40.3v5.18c14.3,0,25.89,11.59,25.89,25.89s-11.59,25.89-25.89,25.89h-51.77l-5.18,5.21v31.08l5.18,5.15h51.8c37.17.02,67.31-30.1,67.33-67.27,0-22.18-10.91-42.95-29.2-55.51h.07Z"></path><path id="Path_5052" data-name="Path 5052" class="cls-2" d="M548.19,353.18h51.79v-41.46h-51.79c-3.68,0-7.31-.79-10.66-2.32l-7.48,2.29-20.74,20.74-1.82,7.01c11.67,8.96,25.98,13.8,40.69,13.75h0Z"></path><path id="Path_5053" data-name="Path 5053" class="cls-1" d="M548.17,218.46c-37.19-.01-67.35,30.12-67.36,67.31,0,21.09,9.87,40.97,26.69,53.71l30.03-30.03c-13.04-5.87-18.86-21.2-12.99-34.24,5.87-13.04,21.2-18.86,34.24-12.99,5.77,2.6,10.39,7.22,12.99,12.99l30.07-30.03c-12.72-16.82-32.58-26.7-53.67-26.69v-.03Z"></path><path id="Path_5054" data-name="Path 5054" class="cls-3" d="M279.69,483.82c-13.71.17-26.9-5.25-36.53-15.01-19.93-19.19-20.53-50.91-1.34-70.84.44-.45.88-.9,1.34-1.34,9.63-9.76,22.82-15.19,36.53-15.02,13.09-.19,25.71,4.88,35.03,14.08l-9.86,9.86c-6.75-6.52-15.8-10.11-25.18-9.98-9.81-.17-19.24,3.77-26,10.88-14.21,14.65-14.21,37.94,0,52.6,6.77,7.1,16.2,11.04,26,10.86,9.66.33,19.02-3.38,25.83-10.23,4.42-4.85,7.1-11.04,7.61-17.59h-33.41v-13.97h47.02c.51,2.86.73,5.77.67,8.68.62,12.09-3.76,23.9-12.1,32.66-9.3,9.65-22.28,14.87-35.67,14.35h.07ZM388.94,474.47c-13.14,12.46-33.73,12.46-46.88,0-12.79-13.05-12.79-33.93,0-46.98,13.14-12.46,33.73-12.46,46.88,0,12.79,13.05,12.79,33.93,0,46.98ZM352.4,465.26c6.79,7.24,18.16,7.6,25.4.8.28-.26.54-.53.8-.8,7.29-8.14,7.32-20.46.06-28.63-6.98-7.27-18.53-7.5-25.8-.52-.18.17-.35.34-.52.52-7.26,8.17-7.23,20.49.06,28.63ZM461,474.47c-13.14,12.46-33.73,12.46-46.88,0-12.79-13.05-12.79-33.93,0-46.98,13.14-12.46,33.73-12.46,46.88,0,12.79,13.05,12.79,33.93,0,46.98ZM424.47,465.26c6.79,7.24,18.16,7.6,25.4.8.28-.26.54-.53.8-.8,7.29-8.14,7.32-20.46.06-28.63-6.98-7.27-18.53-7.5-25.8-.52-.18.17-.35.34-.52.52-7.26,8.17-7.23,20.49.06,28.63ZM508.38,513.45c-6.64.21-13.15-1.86-18.45-5.88-4.69-3.53-8.38-8.22-10.72-13.6l12.6-5.23c1.34,3.23,3.49,6.06,6.23,8.23,2.93,2.35,6.6,3.59,10.36,3.48,4.82.26,9.51-1.55,12.9-4.98,3.35-4,5.02-9.14,4.67-14.35v-4.67h-.5c-4.27,5.09-10.69,7.86-17.32,7.48-8.37,0-16.36-3.47-22.06-9.59-6.2-6.11-9.63-14.49-9.48-23.2-.16-8.76,3.27-17.2,9.48-23.38,5.68-6.15,13.68-9.65,22.06-9.65,3.5-.05,6.97.67,10.16,2.12,2.74,1.2,5.18,2.99,7.17,5.23h.5v-5.3h13.72v59.11c.72,9.43-2.47,18.73-8.82,25.73-6.05,5.76-14.16,8.84-22.51,8.54v-.1ZM509.38,470.92c4.82.09,9.42-1.99,12.54-5.66,3.41-3.91,5.21-8.97,5.04-14.16.17-5.25-1.63-10.37-5.04-14.35-3.1-3.7-7.71-5.81-12.54-5.73-4.94-.05-9.67,2.04-12.96,5.73-3.6,3.89-5.53,9.05-5.37,14.35-.16,5.24,1.77,10.34,5.37,14.16,3.31,3.66,8.03,5.73,12.96,5.68h0ZM564.11,385.07v96.77h-14.48v-96.77h14.48ZM603.75,483.81c-8.75.23-17.21-3.21-23.32-9.48-6.19-6.2-9.58-14.67-9.36-23.44-.33-8.8,2.93-17.35,9.04-23.69,5.72-6.02,13.71-9.37,22.01-9.23,3.81-.03,7.59.72,11.1,2.21,3.17,1.3,6.05,3.2,8.48,5.61,2.03,2.02,3.83,4.26,5.37,6.67,1.27,2.06,2.36,4.23,3.24,6.48l1.47,3.73-43.97,18.17c2.77,6.29,9.1,10.24,15.96,9.98,6.61.01,12.75-3.44,16.17-9.09l11.21,7.48c-2.82,4.04-6.42,7.48-10.59,10.09-5.05,3.12-10.91,4.67-16.84,4.47l.04.03ZM585.43,449.91l29.36-12.21c-.91-2.18-2.57-3.97-4.67-5.04-2.32-1.3-4.95-1.96-7.61-1.92-4.5.11-8.77,1.98-11.9,5.23-3.76,3.64-5.7,8.75-5.31,13.97l.12-.02ZM707.76,483.81c-25.98-.32-46.79-21.64-46.47-47.63.15-12.08,4.94-23.65,13.39-32.29,8.71-8.82,20.69-13.65,33.08-13.34,12.58-.39,24.65,4.98,32.79,14.58l-7.98,7.74c-5.98-7.54-15.21-11.76-24.83-11.34-18.8-.4-34.36,14.51-34.76,33.3-.02.79,0,1.57.03,2.36-.4,9.63,3.23,19,10.04,25.83,6.54,6.52,15.46,10.08,24.7,9.86,10.62.06,20.68-4.71,27.36-12.96l7.98,7.98c-4.18,4.99-9.43,8.97-15.35,11.66-6.28,2.89-13.13,4.36-20.05,4.29h.07ZM764.86,481.83h-11.48v-89.27h11.48v89.27ZM783.57,428.05c12.49-12.4,32.65-12.4,45.14,0,11.81,13.26,11.81,33.26,0,46.52-12.49,12.4-32.65,12.4-45.14,0-11.81-13.26-11.81-33.26,0-46.52ZM792.11,467.31c7.3,7.74,19.49,8.1,27.23.8.28-.26.54-.53.8-.8,4.08-4.3,6.22-10.09,5.92-16.01.27-5.92-1.86-11.7-5.93-16.02-7.3-7.74-19.49-8.1-27.23-.8-.27.26-.54.52-.8.8-4.08,4.3-6.23,10.09-5.93,16.02-.27,5.92,1.87,11.7,5.93,16.01ZM901.05,481.83h-11.03v-8.48h-.5c-1.95,3.12-4.71,5.66-7.98,7.35-3.46,1.97-7.36,3.03-11.34,3.07-6.56.46-12.97-2.12-17.39-6.98-4.16-5.32-6.27-11.96-5.93-18.7v-37.42h11.52v35.53c0,11.4,5.03,17.1,15.08,17.09,4.57.1,8.9-2.04,11.6-5.73,2.97-3.77,4.55-8.44,4.48-13.23v-33.67h11.48v61.18ZM939.94,483.82c-7.88.04-15.38-3.38-20.51-9.36-11.46-13.34-11.46-33.06,0-46.4,5.12-5.96,12.59-9.38,20.45-9.36,4.37-.06,8.68.96,12.55,2.98,3.39,1.7,6.26,4.28,8.29,7.48h.5l-.5-8.48v-28.15h11.48v89.29h-10.98v-8.48h-.5c-2.05,3.19-4.91,5.78-8.29,7.48-3.88,2-8.19,3.01-12.55,2.94l.07.04ZM941.81,473.34c5.24.07,10.25-2.11,13.78-5.98,7.56-9.34,7.56-22.69,0-32.03-7.04-7.58-18.88-8.02-26.46-.99-.36.33-.71.68-1.04,1.04-7.64,9.31-7.64,22.72,0,32.03,3.49,3.89,8.49,6.09,13.72,6.04v-.12Z"></path></svg> 