<?xml version="1.0" encoding="UTF-8"?> <svg xmlns="http://www.w3.org/2000/svg" id="Layer_1" data-name="Layer 1" viewBox="0 0 1200 675"><defs><style> .cls-1 { fill: #fc0dc8; stroke-width: 0px; } </style></defs><g><g><path class="cls-1" d="M389.43,304.98v78.72h10.62v-75.82c-3.86-.32-7.41-1.29-10.62-2.9Z"></path><path class="cls-1" d="M405.37,307.88v75.82h10.62v-78.72c-3.22,1.61-6.76,2.58-10.62,2.9Z"></path><rect class="cls-1" x="261.45" y="264.25" width="10.62" height="119.45"></rect><polygon class="cls-1" points="387.5 410.26 402.47 410.26 315.86 323.66 375.11 264.25 360.13 264.25 300.73 323.66 387.5 410.26"></polygon><polygon class="cls-1" points="288.01 383.7 288.01 333.48 364.96 410.26 379.93 410.26 293.16 323.66 352.57 264.25 337.44 264.25 288.01 313.67 288.01 264.25 277.39 264.25 277.39 383.7 288.01 383.7"></polygon><path class="cls-1" d="M417.61,264.25c-3.7-4.02-9.02-6.6-14.81-6.6s-11.27,2.58-14.81,6.6c-3.06,3.54-4.99,8.21-4.99,13.2,0,5.96,2.58,11.11,6.6,14.81,2.9,2.58,6.6,4.35,10.62,4.99.8.16,1.77.16,2.74.16s1.77,0,2.74-.16c4.02-.48,7.73-2.25,10.62-4.99,4.02-3.7,6.6-8.85,6.6-14.81-.32-4.99-2.25-9.66-5.31-13.2Z"></path></g><g><path class="cls-1" d="M790.44,304.98v78.72h10.62v-75.82c-3.86-.32-7.41-1.29-10.62-2.9Z"></path><path class="cls-1" d="M806.38,307.88v75.82h10.62v-78.72c-3.22,1.61-6.92,2.58-10.62,2.9Z"></path><path class="cls-1" d="M818.62,264.25c-3.7-4.02-9.02-6.6-14.81-6.6s-11.27,2.58-14.81,6.6c-2.58,2.9-4.35,6.6-4.83,10.62-.16.8-.16,1.77-.16,2.58,0,.97,0,1.93.16,2.74.48,4.02,2.41,7.73,4.99,10.62.48.48.97.97,1.45,1.45,2.9,2.58,6.6,4.35,10.62,4.99.8.16,1.77.16,2.74.16s1.77,0,2.74-.16c4.02-.48,7.73-2.25,10.62-4.99,4.02-3.7,6.6-8.85,6.6-14.81-.32-4.99-2.25-9.66-5.31-13.2Z"></path></g><g><path class="cls-1" d="M864.82,296.45c3.54-3.54,7.89-6.44,12.56-8.37s9.66-2.9,14.81-2.9,10.14.97,14.81,2.9c4.67,1.93,9.02,4.83,12.56,8.37l.16.16,7.57-7.57-.16-.16c-4.51-4.51-9.98-8.21-15.94-10.62-5.96-2.41-12.4-3.7-18.84-3.7s-12.88,1.29-18.84,3.7-11.43,6.12-15.94,10.62c-4.51,4.51-8.21,9.98-10.62,15.94s-3.7,12.4-3.7,18.84,1.29,12.88,3.7,18.84,6.12,11.43,10.62,15.94c4.51,4.51,9.98,8.21,15.94,10.62,5.96,2.41,12.4,3.7,18.84,3.7s12.88-1.29,18.84-3.7c5.8-2.41,11.27-5.96,15.78-10.46l-7.57-7.57c-3.54,3.54-7.73,6.28-12.4,8.21-4.67,1.93-9.66,2.9-14.81,2.9s-10.14-.97-14.81-2.9c-4.67-1.93-9.02-4.83-12.56-8.37-3.54-3.54-6.44-7.89-8.37-12.56s-2.9-9.66-2.9-14.81.97-10.14,2.9-14.81c1.93-4.51,4.83-8.69,8.37-12.23Z"></path><path class="cls-1" d="M913.11,374.2c-6.6,2.74-13.68,4.19-20.93,4.19s-14.33-1.45-20.93-4.19-12.72-6.76-17.71-11.91c-4.99-4.99-9.18-11.11-11.91-17.71-2.74-6.6-4.19-13.68-4.19-20.93s1.45-14.33,4.19-20.93,6.76-12.72,11.91-17.71c4.99-4.99,11.11-9.18,17.71-11.91s13.68-4.19,20.93-4.19,14.33,1.45,20.93,4.19c6.6,2.74,12.72,6.76,17.71,11.91,0,0,0,.16.16.16l7.57-7.57-.16-.16c-5.47-5.47-12.07-9.98-19.16-13.2-.64-.32-1.29-.64-1.93-.8-7.89-3.22-16.42-4.99-24.95-4.99s-17.06,1.61-24.95,4.99c-.64.32-1.29.64-1.93.8-7.08,3.22-13.68,7.73-19.16,13.2-5.96,5.96-10.95,13.2-14.17,21.09s-4.99,16.42-4.99,24.95,1.61,17.06,4.99,24.95c3.22,7.89,8.05,15.13,14.17,21.09,5.96,5.96,13.04,10.62,20.77,14.01.16,0,.32.16.32.16,7.89,3.22,16.42,4.99,24.95,4.99s17.06-1.61,24.95-4.99c.16,0,.32-.16.32-.16,7.57-3.22,14.65-7.89,20.44-13.68l-7.57-7.57c-4.99,5.15-10.95,9.18-17.39,11.91Z"></path></g><g><path class="cls-1" d="M678.08,274.88h95.3c.32-3.7,1.29-7.41,2.9-10.62h-108.99c2.25,1.77,4.51,3.7,6.44,5.8,1.45,1.61,2.9,3.22,4.35,4.83Z"></path><path class="cls-1" d="M731.36,280.35h-49.26c2.41,3.38,4.51,6.92,6.28,10.62h32.36v92.89h10.62v-103.51Z"></path><path class="cls-1" d="M776.28,290.98c-1.61-3.22-2.58-6.76-2.9-10.62h-36.54v103.51h10.62v-92.89h28.82Z"></path><g><path class="cls-1" d="M621.25,310.78v10.62h47.97c-.16-3.54-.8-7.08-1.61-10.62-.48-1.93-1.13-4.02-1.93-5.8-2.41-5.96-6.12-11.27-10.62-15.78l-.16-.16c-4.51-4.51-9.98-8.21-15.94-10.62-5.96-2.41-12.4-3.7-18.84-3.7s-12.88,1.29-18.84,3.7-11.43,6.12-15.94,10.62c-4.51,4.51-8.21,9.98-10.62,15.94s-3.7,12.4-3.7,18.84,1.29,12.88,3.7,18.84,6.12,11.43,10.62,15.94,9.98,8.21,15.94,10.62,12.4,3.7,18.84,3.7,12.88-1.29,18.84-3.7c5.8-2.41,11.27-5.96,15.78-10.46l-7.57-7.57c-3.54,3.54-7.73,6.28-12.4,8.21-4.67,1.93-9.66,2.9-14.81,2.9s-10.14-.97-14.81-2.9c-4.67-1.93-9.02-4.83-12.56-8.37s-6.44-7.89-8.37-12.56-2.9-9.66-2.9-14.81.97-10.14,2.9-14.81c1.93-4.67,4.83-9.02,8.37-12.56s7.89-6.44,12.56-8.37,9.66-2.9,14.81-2.9,10.14.97,14.81,2.9c4.67,1.93,9.02,4.83,12.56,8.37l.16.16c3.54,3.54,6.28,7.73,8.21,12.4.32.64.48,1.13.64,1.77h-23.02l-12.07.16h0Z"></path><path class="cls-1" d="M685.16,321.4c-.16-3.54-.48-7.08-1.29-10.62-.8-4.02-2.09-8.21-3.7-12.07-1.13-2.74-2.41-5.31-3.86-7.89-1.13-1.77-2.25-3.54-3.38-5.31-1.29-1.93-2.74-3.7-4.35-5.31-.8-.97-1.61-1.77-2.41-2.58l-.16-.16c-.97-.97-1.93-1.77-2.9-2.74-.64-.64-1.45-1.29-2.25-1.93-4.35-3.54-9.02-6.44-14.17-8.69-.64-.32-1.29-.64-1.93-.8-7.89-3.22-16.42-4.99-24.95-4.99s-17.06,1.61-24.95,4.99c-.64.32-1.29.64-1.93.8-7.08,3.22-13.68,7.73-19.16,13.2-5.96,5.96-10.95,13.2-14.17,21.09s-4.99,16.42-4.99,24.95,1.61,17.06,4.99,24.95c3.22,7.89,8.05,15.13,14.17,21.09,5.96,5.96,13.04,10.62,20.77,14.01.16,0,.32.16.32.16,7.89,3.22,16.42,4.99,24.95,4.99s17.06-1.61,24.95-4.99c.16,0,.32-.16.32-.16,7.57-3.22,14.65-7.89,20.44-13.68l-7.57-7.57c-4.99,4.99-10.95,8.85-17.55,11.59s-13.68,4.19-20.93,4.19-14.33-1.45-20.93-4.19-12.72-6.76-17.71-11.91c-4.99-4.99-9.18-11.11-11.91-17.71s-4.19-13.68-4.19-20.93,1.45-14.33,4.19-20.93c2.74-6.6,6.76-12.72,11.91-17.71,4.99-4.99,11.11-9.18,17.71-11.91s13.68-4.19,20.93-4.19,14.33,1.45,20.93,4.19c6.6,2.74,12.72,6.76,17.71,11.91,0,0,0,.16.16.16.8.8,1.61,1.61,2.41,2.58.97.97,1.77,2.09,2.58,3.22,2.74,3.7,4.99,7.73,6.76,11.91.97,2.41,1.93,4.99,2.58,7.73v.32h0c.8,3.54,1.29,7.08,1.45,10.62v2.41c0,.97,0,2.09-.16,3.06h-52.64v10.62h62.62c.8-3.54,1.29-7.08,1.45-10.62v-3.06c-.16-.64-.16-1.45-.16-2.09Z"></path></g><g><path class="cls-1" d="M528.85,383.7h-10.62v-70.19c0-.48,0-1.13-.16-1.61-.32-2.09-.8-4.19-1.45-6.12-1.29-4.02-3.54-7.73-6.44-10.79s-6.44-5.63-10.3-7.41-8.05-2.58-12.23-2.58-8.53.8-12.23,2.58c-3.86,1.77-7.41,4.19-10.3,7.41-2.9,3.06-5.15,6.76-6.44,10.79-.64,1.93-1.13,4.02-1.45,6.12-.16.48-.16,1.13-.16,1.61v70.19h-10.62v-68.9c0-.64,0-1.45.16-2.09,0-.64.16-1.45.16-2.09.32-2.9.97-5.63,1.93-8.37,1.77-5.31,4.83-10.46,8.69-14.49,3.86-4.19,8.53-7.57,13.84-9.82,5.15-2.25,10.95-3.54,16.58-3.54s11.43,1.13,16.58,3.54c5.15,2.25,9.98,5.63,13.84,9.82,3.86,4.19,6.76,9.18,8.69,14.49.97,2.74,1.61,5.47,1.93,8.37.16.64.16,1.45.16,2.09s0,1.45.16,2.09v68.9s-.32,0-.32,0Z"></path><path class="cls-1" d="M544.94,383.7h-10.62v-68.9c0-.8,0-1.61-.16-2.41,0-.8-.16-1.61-.16-2.41-.32-3.22-1.13-6.28-2.09-9.34-2.09-6.12-5.47-11.75-9.82-16.42-4.35-4.67-9.66-8.53-15.62-11.11-5.96-2.58-12.4-3.86-18.67-3.86s-12.88,1.29-18.67,3.86c-5.96,2.58-11.27,6.44-15.62,11.11s-7.73,10.3-9.82,16.42c-.97,3.06-1.77,6.12-2.09,9.34-.16.8-.16,1.61-.16,2.41s-.16,1.61-.16,2.41v68.9h-10.62v-69.22c0-.97,0-1.93.16-2.9,0-.97.16-1.93.32-2.9.48-3.86,1.29-7.73,2.58-11.59,2.58-7.41,6.6-14.49,12.07-20.28,5.31-5.8,11.91-10.46,19.16-13.68s15.13-4.83,23.02-4.83,15.78,1.61,23.02,4.83,13.84,7.89,19.16,13.68c5.31,5.8,9.5,12.72,12.07,20.28,1.29,3.7,2.09,7.57,2.58,11.59.16.97.16,1.93.32,2.9.16.97.16,1.93.16,2.9v69.22s-.32,0-.32,0Z"></path></g></g></g><g><path class="cls-1" d="M430.97,415.74c-.48-.32-.64-.97-.64-1.61v-16.1h8.37c1.29,0,2.58.32,3.54.8.97.48,1.77,1.29,2.41,2.25s.8,2.09.8,3.22v5.31c0,2.25-.64,3.86-1.77,4.99s-2.9,1.77-4.99,1.77h-6.28c-.48-.16-.97-.32-1.45-.64ZM438.69,413.65c1.29,0,2.25-.32,2.9-1.13s.97-1.77.97-3.06v-5.15c0-1.13-.32-1.93-1.13-2.58-.64-.64-1.61-.97-2.74-.97h-5.15v12.88h5.15Z"></path><path class="cls-1" d="M453.18,409.14l-6.76-11.27h3.38l4.99,8.37,4.99-8.37h3.38l-6.76,11.27v7.08h-3.06v-7.08h-.16Z"></path><path class="cls-1" d="M465.1,397.87h2.74l9.34,13.36v-13.36h3.06v18.35h-2.74l-9.18-13.36v13.36h-3.06v-18.35h-.16Z"></path><path class="cls-1" d="M494.56,411.71h-7.24l-1.77,4.51h-3.22l7.08-18.35h1.45c.97,0,1.61.48,1.93,1.45l6.6,16.9h-3.22l-1.61-4.51ZM488.12,409.14h5.63l-2.74-7.41h0l-2.9,7.41Z"></path><path class="cls-1" d="M501.8,397.87h2.74l6.12,11.27,5.96-11.27h2.74v18.35h-3.06v-12.56l-4.35,8.05c-.32.48-.48.64-.64.97s-.48.32-.8.32h-.8l-5.15-9.18v12.72h-3.06v-18.67h.32Z"></path><path class="cls-1" d="M523.69,397.87h3.06v18.35h-3.06v-18.35Z"></path><path class="cls-1" d="M533.35,415.58c-.97-.64-1.77-1.45-2.25-2.41-.48-.97-.8-2.25-.8-3.54v-4.99c0-1.29.32-2.58.8-3.54s1.29-1.77,2.25-2.41c.97-.64,2.09-.8,3.38-.8h2.74c1.29,0,2.41.32,3.38.8s1.77,1.29,2.25,2.25c.48.97.8,2.09.8,3.38h-3.06c0-1.13-.32-2.09-.97-2.74-.64-.64-1.45-.97-2.41-.97h-2.74c-1.13,0-1.93.32-2.58,1.13-.64.8-.97,1.77-.97,3.06v4.83c0,1.29.32,2.25.97,3.06.64.8,1.45,1.13,2.41,1.13h2.9c.97,0,1.77-.32,2.41-1.13s.97-1.77.97-3.06h3.06c0,1.29-.32,2.58-.8,3.54-.48.97-1.29,1.77-2.25,2.41-.97.64-2.09.8-3.38.8h-2.9c-1.13.16-2.25-.16-3.22-.8Z"></path><path class="cls-1" d="M557.02,415.74c-.32-.32-.64-.97-.64-1.61v-16.1h3.06v15.62h9.98v2.74h-10.79c-.64-.16-1.13-.32-1.61-.64Z"></path><path class="cls-1" d="M572.15,397.87h3.06v18.35h-3.06v-18.35Z"></path><path class="cls-1" d="M593.88,417.35l-2.09-2.09c-1.13.8-2.41,1.13-3.54,1.13h-2.74c-1.29,0-2.41-.32-3.54-.8-.97-.64-1.77-1.45-2.41-2.41-.48-.97-.8-2.25-.8-3.54v-4.99c0-1.29.32-2.58.8-3.54s1.29-1.77,2.41-2.41c.97-.64,2.25-.8,3.54-.8h2.74c1.29,0,2.58.32,3.54.8.97.64,1.77,1.45,2.41,2.41.48.97.8,2.25.8,3.54v4.83c0,1.45-.32,2.74-1.13,3.86l2.09,2.09-2.09,1.93ZM589.86,413.32l-2.58-2.41,1.93-2.09,2.41,2.41c.16-.48.32-1.13.32-1.77v-4.83c0-1.29-.32-2.25-.97-3.06-.64-.8-1.61-1.13-2.74-1.13h-2.74c-1.13,0-1.93.32-2.58,1.13-.64.8-.97,1.77-.97,3.06v4.83c0,1.29.32,2.25.97,3.06.64.8,1.61,1.13,2.58,1.13h2.74c.48.16,1.13,0,1.61-.32Z"></path><path class="cls-1" d="M601.29,415.74c-.97-.48-1.61-1.29-2.25-2.25-.48-.97-.8-2.09-.8-3.38v-12.07h3.06v12.07c0,1.13.32,2.09.8,2.74.64.64,1.29.97,2.25.97h2.74c.97,0,1.77-.32,2.25-.97.64-.64.8-1.61.8-2.74v-12.07h3.06v12.07c0,1.29-.32,2.41-.8,3.38s-1.29,1.77-2.25,2.25c-.97.48-2.09.8-3.22.8h-2.74c-.8,0-1.93-.32-2.9-.8Z"></path><path class="cls-1" d="M617.55,397.87h3.06v18.35h-3.06v-18.35Z"></path><path class="cls-1" d="M625.44,415.74c-.48-.32-.64-.97-.64-1.61v-16.1h8.37c1.29,0,2.58.32,3.54.8s1.77,1.29,2.41,2.25.8,2.09.8,3.22v5.31c0,2.25-.64,3.86-1.77,4.99-1.13,1.13-2.9,1.77-4.99,1.77h-6.28c-.64-.16-1.13-.32-1.45-.64ZM633.16,413.65c1.29,0,2.25-.32,2.9-1.13.64-.64.97-1.77.97-3.06v-5.15c0-1.13-.32-1.93-1.13-2.58-.64-.64-1.61-.97-2.74-.97h-5.15v12.88h5.15Z"></path><path class="cls-1" d="M643.47,397.87h3.06v18.35h-3.06v-18.35Z"></path><path class="cls-1" d="M655.06,400.61h-5.8v-2.58h14.65v2.58h-5.8v15.78h-3.06v-15.78Z"></path><path class="cls-1" d="M671.64,409.14l-6.76-11.27h3.38l4.99,8.37,4.99-8.37h3.38l-6.76,11.27v7.08h-3.06v-7.08h-.16Z"></path><path class="cls-1" d="M693.85,415.58c-.97-.64-1.77-1.45-2.41-2.41-.48-.97-.8-2.25-.8-3.54v-4.99c0-1.29.32-2.58.8-3.54s1.29-1.77,2.41-2.41c.97-.64,2.25-.8,3.54-.8h2.74c1.29,0,2.58.32,3.54.8s1.77,1.45,2.41,2.41c.48.97.8,2.25.8,3.54v4.99c0,1.29-.32,2.58-.8,3.54-.48.97-1.29,1.77-2.41,2.41-.97.64-2.25.8-3.54.8h-2.74c-1.29.16-2.58-.16-3.54-.8ZM700.13,413.81c1.13,0,1.93-.32,2.58-1.13s.97-1.77.97-3.06v-4.83c0-1.29-.32-2.25-.97-3.06s-1.61-1.13-2.74-1.13h-2.74c-1.13,0-1.93.32-2.74,1.13-.64.8-.97,1.77-.97,3.06v4.83c0,1.29.32,2.25.97,3.06s1.61,1.13,2.74,1.13h2.9Z"></path><path class="cls-1" d="M710.11,397.87h2.74l9.34,13.36v-13.36h3.06v18.35h-2.74l-9.18-13.36v13.36h-3.06l-.16-18.35h0Z"></path><path class="cls-1" d="M736.68,397.87h13.2v2.74h-10.14v5.47h9.18v2.74h-9.18v7.41h-3.06v-18.35Z"></path><path class="cls-1" d="M753.1,415.74c-.32-.32-.64-.97-.64-1.61v-16.1h3.06v15.62h9.98v2.74h-10.79c-.64-.16-1.29-.32-1.61-.64Z"></path><path class="cls-1" d="M778.53,411.71h-7.24l-1.77,4.51h-3.22l7.08-18.35h1.45c.97,0,1.61.48,1.93,1.45l6.6,16.9h-3.22l-1.61-4.51ZM772.09,409.14h5.63l-2.74-7.41h0l-2.9,7.41Z"></path><path class="cls-1" d="M785.78,397.87h9.5c1.45,0,2.74.48,3.7,1.29.97.8,1.45,1.93,1.45,3.22v1.93c0,.97-.32,1.77-.8,2.41s-1.29,1.13-2.25,1.61h0c.48.32.97.8,1.29,1.29.32.48.64,1.13.8,1.93l1.45,4.67h-3.22l-1.45-4.51c-.16-.8-.64-1.45-1.13-1.77-.48-.48-.97-.64-1.61-.64h-4.67v6.92h-3.06v-18.35ZM794.47,406.72c.8,0,1.45-.16,1.93-.64.48-.48.64-.97.64-1.77v-1.77c0-.48-.16-.97-.48-1.29-.32-.32-.8-.48-1.45-.48h-6.28v6.12l5.63-.16h0Z"></path><path class="cls-1" d="M804.13,415.74c-.48-.48-.64-.97-.64-1.61v-16.1h13.52v2.58h-10.3v4.99h9.66v2.74h-9.66v5.47h10.3v2.58h-11.27c-.64-.16-1.13-.32-1.61-.64Z"></path></g></svg> 