<?xml version="1.0" encoding="UTF-8"?> <svg xmlns="http://www.w3.org/2000/svg" xmlns:xlink="http://www.w3.org/1999/xlink" id="logo_color" width="146.54" height="44.301" viewBox="0 0 146.54 44.301"><defs><linearGradient id="linear-gradient" x1="0.869" y1="0.129" x2="-0.012" y2="1.012" gradientUnits="objectBoundingBox"><stop offset="0.1" stop-color="#9055f7"></stop><stop offset="0.25" stop-color="#7950f5"></stop><stop offset="0.49" stop-color="#5c49f3"></stop><stop offset="0.69" stop-color="#4a44f1"></stop><stop offset="0.84" stop-color="#4443f1"></stop></linearGradient><linearGradient id="linear-gradient-2" x1="1.205" y1="-0.147" x2="-0.208" y2="0.869" xlink:href="#linear-gradient"></linearGradient><linearGradient id="linear-gradient-3" x1="14.045" y1="0.443" x2="-0.467" y2="0.503" xlink:href="#linear-gradient"></linearGradient><linearGradient id="linear-gradient-4" x1="12.148" y1="0.449" x2="-1.522" y2="0.507" xlink:href="#linear-gradient"></linearGradient><linearGradient id="linear-gradient-5" x1="11.232" y1="0.454" x2="-2.779" y2="0.514" xlink:href="#linear-gradient"></linearGradient><linearGradient id="linear-gradient-6" x1="9.192" y1="0.46" x2="-3.648" y2="0.519" xlink:href="#linear-gradient"></linearGradient><linearGradient id="linear-gradient-7" x1="8.133" y1="0.465" x2="-5.379" y2="0.525" xlink:href="#linear-gradient"></linearGradient><linearGradient id="linear-gradient-8" x1="6.958" y1="0.473" x2="-6.541" y2="0.53" xlink:href="#linear-gradient"></linearGradient><linearGradient id="linear-gradient-9" x1="4.342" y1="0.477" x2="-5.807" y2="0.537" xlink:href="#linear-gradient"></linearGradient><linearGradient id="linear-gradient-10" x1="3.99" y1="0.484" x2="-8.394" y2="0.543" xlink:href="#linear-gradient"></linearGradient><linearGradient id="linear-gradient-11" x1="7.332" y1="0.487" x2="-23.943" y2="0.546" xlink:href="#linear-gradient"></linearGradient><linearGradient id="linear-gradient-12" x1="2.638" y1="0.491" x2="-11.387" y2="0.55" xlink:href="#linear-gradient"></linearGradient><linearGradient id="linear-gradient-13" x1="1.439" y1="0.497" x2="-12.271" y2="0.554" xlink:href="#linear-gradient"></linearGradient></defs><g id="Group_3254" data-name="Group 3254" transform="translate(0 0)"><path id="Path_5116" data-name="Path 5116" d="M134.464,38.315c2.66-1.215,6.536-2.957,9.215-4.162-2.889-.607-6.971-1.311-9.887-1.874,1.871-2.146,4.662-5.509,6.524-7.759-2.841.731-6.888,1.828-9.741,2.606.805-2.857,1.841-7.022,2.558-9.843-2.235,1.9-5.491,4.763-7.708,6.627-.5-2.818-1.31-7.119-1.9-9.97-1.232,2.68-2.947,6.621-4.132,9.3-1.737-2.331-4.211-5.734-6-8.137.085,2.936.178,7.2.274,10.141-2.6-1.338-6.326-3.331-8.938-4.63.016.035,6.643,6.7,6.643,6.7.029-.03.056-.062.086-.092a13.446,13.446,0,1,1,19.014,19.015c-.03.03-.037.034-.067.064,0,0,6.52,6.482,6.556,6.5-1.289-2.641-3.247-6.157-4.5-8.763,2.922.1,7.026.144,9.963.2C139.993,42.437,136.794,40.124,134.464,38.315Z" transform="translate(-104.73 -13.94)" fill="url(#linear-gradient)"></path><path id="Path_5117" data-name="Path 5117" d="M151.815,101.9a12.184,12.184,0,0,0-12.135,11.981V131.2l4.441,4.441V113.855a7.694,7.694,0,1,1,9.9,7.55V116.54l-4.426-4.425-.014,14.064h2.31a12.14,12.14,0,0,0-.079-24.279Z" transform="translate(-135.485 -91.341)" fill="url(#linear-gradient-2)"></path></g><g id="Group_3255" data-name="Group 3255" transform="translate(46.958 16.543)"><path id="Path_5118" data-name="Path 5118" d="M1.1,429.983H4.526a8.061,8.061,0,0,1,2.136.217,2.4,2.4,0,0,1,1.123.63,2.168,2.168,0,0,1,.509,1,8.836,8.836,0,0,1,.135,1.814v1.141a4.723,4.723,0,0,1-.26,1.825,1.761,1.761,0,0,1-.949.88,4.5,4.5,0,0,1-1.806.307H4.5v5.266H1.1Zm3.4,2.238v3.326h.25a.782.782,0,0,0,.65-.231,1.686,1.686,0,0,0,.182-.957v-1.074a1.266,1.266,0,0,0-.209-.872,1.321,1.321,0,0,0-.873-.194Z" transform="translate(-1.1 -429.699)" fill="url(#linear-gradient-3)"></path><path id="Path_5119" data-name="Path 5119" d="M51.93,430v8.741a15.135,15.135,0,0,1-.1,2.087,2.842,2.842,0,0,1-.573,1.236,2.972,2.972,0,0,1-1.256.961,4.714,4.714,0,0,1-1.839.327,5.178,5.178,0,0,1-2.068-.391,3.109,3.109,0,0,1-1.34-1.01,2.8,2.8,0,0,1-.526-1.313q-.08-.689-.08-2.9V430h3.4v9.807a3.842,3.842,0,0,0,.092,1.094.366.366,0,0,0,.376.239.391.391,0,0,0,.417-.262,4.981,4.981,0,0,0,.092-1.24V430Z" transform="translate(-35.728 -429.716)" fill="url(#linear-gradient-4)"></path><path id="Path_5120" data-name="Path 5120" d="M99.085,430v13.078H96.1l-1.761-5.945v5.945H91.49V430h2.839l1.905,5.889V430Z" transform="translate(-73.807 -429.716)" fill="url(#linear-gradient-5)"></path><path id="Path_5121" data-name="Path 5121" d="M146.237,430l-1.956,5.9,2.136,7.174H142.9l-1.369-5.607v5.607h-3.4V430h3.4v5.087L143.046,430Z" transform="translate(-111.322 -429.716)" fill="url(#linear-gradient-6)"></path><path id="Path_5122" data-name="Path 5122" d="M200.11,430h2.543a15.83,15.83,0,0,1,3.326.225,2.554,2.554,0,0,1,1.321.743,2.348,2.348,0,0,1,.565,1.152,17.222,17.222,0,0,1,.113,2.492v4.582a10.612,10.612,0,0,1-.164,2.348,1.761,1.761,0,0,1-.587.927,2.375,2.375,0,0,1-1.017.469,9.26,9.26,0,0,1-1.825.133H200.11Zm3.4,2.238v8.608q.734,0,.9-.293a4.3,4.3,0,0,0,.17-1.6v-5.086a6.905,6.905,0,0,0-.057-1.141.546.546,0,0,0-.258-.368,1.716,1.716,0,0,0-.759-.117Z" transform="translate(-161.177 -429.716)" fill="url(#linear-gradient-7)"></path><path id="Path_5123" data-name="Path 5123" d="M255.038,436.5q0,1.972-.094,2.792a3.13,3.13,0,0,1-1.9,2.543,4.808,4.808,0,0,1-1.939.362,4.934,4.934,0,0,1-1.888-.342,3.144,3.144,0,0,1-1.956-2.524,27.763,27.763,0,0,1-.1-2.829v-2.238q0-1.972.092-2.792a3.13,3.13,0,0,1,1.9-2.543,4.81,4.81,0,0,1,1.941-.364,4.932,4.932,0,0,1,1.886.344,3.144,3.144,0,0,1,1.956,2.524,27.6,27.6,0,0,1,.1,2.829Zm-3.4-4.3a4.077,4.077,0,0,0-.1-1.174.391.391,0,0,0-.415-.254.466.466,0,0,0-.409.205,2.93,2.93,0,0,0-.141,1.217V438.3a6.086,6.086,0,0,0,.092,1.407.407.407,0,0,0,.432.266.421.421,0,0,0,.446-.307,6.444,6.444,0,0,0,.1-1.461Z" transform="translate(-199.021 -428.561)" fill="url(#linear-gradient-8)"></path><path id="Path_5124" data-name="Path 5124" d="M305.284,429.992V443.07h-2.972v-8.829l-1.184,8.829h-2.113l-1.242-8.629v8.627H294.8V429.992h4.4q.2,1.174.4,2.78l.483,3.326.783-6.108Z" transform="translate(-237.342 -429.708)" fill="url(#linear-gradient-9)"></path><path id="Path_5125" data-name="Path 5125" d="M358.938,430l1.945,13.078h-3.476l-.182-2.348h-1.217l-.2,2.348H352.29L354.021,430Zm-1.8,8.412q-.256-2.222-.516-5.493-.52,3.76-.653,5.493Z" transform="translate(-283.585 -429.716)" fill="url(#linear-gradient-10)"></path><path id="Path_5126" data-name="Path 5126" d="M403.4,430v13.078H400V430Z" transform="translate(-321.961 -429.716)" fill="url(#linear-gradient-11)"></path><path id="Path_5127" data-name="Path 5127" d="M432.807,430v13.078h-2.976l-1.761-5.945v5.945h-2.85V430h2.843l1.907,5.889V430Z" transform="translate(-342.247 -429.716)" fill="url(#linear-gradient-12)"></path><path id="Path_5128" data-name="Path 5128" d="M477.93,432.789H474.77v-.978a1.877,1.877,0,0,0-.121-.865.442.442,0,0,0-.4-.2.509.509,0,0,0-.464.25,1.443,1.443,0,0,0-.158.759,2.13,2.13,0,0,0,.178.978,2.543,2.543,0,0,0,.961.8,9.636,9.636,0,0,1,2.86,2.213,5.092,5.092,0,0,1,.587,2.788,4.9,4.9,0,0,1-.327,2.06,2.558,2.558,0,0,1-1.264,1.109,4.993,4.993,0,0,1-2.181.448,4.878,4.878,0,0,1-2.33-.516,2.525,2.525,0,0,1-1.264-1.317,6.546,6.546,0,0,1-.288-2.242v-.857h3.158v1.587a2.112,2.112,0,0,0,.133.945.52.52,0,0,0,.473.209.552.552,0,0,0,.5-.266,1.512,1.512,0,0,0,.166-.792,2.449,2.449,0,0,0-.315-1.51,9.612,9.612,0,0,0-1.592-1.187,15.552,15.552,0,0,1-1.68-1.221,2.878,2.878,0,0,1-.683-1.049,5.994,5.994,0,0,1,.121-3.911,2.574,2.574,0,0,1,1.24-1.086,4.929,4.929,0,0,1,2.068-.391,5.381,5.381,0,0,1,2.258.428,2.368,2.368,0,0,1,1.236,1.078,5.7,5.7,0,0,1,.3,2.211Z" transform="translate(-378.627 -428.55)" fill="url(#linear-gradient-13)"></path></g></svg> 