<?xml version="1.0" encoding="UTF-8"?> <svg xmlns="http://www.w3.org/2000/svg" id="Layer_1" data-name="Layer 1" viewBox="0 0 1200 675"><defs><style> .cls-1 { fill: #161c25; stroke-width: 0px; } </style></defs><path class="cls-1" d="M737.77,338.33c-.77-26.98,16.42-51.61,39.65-60.03,26.14-9.48,56.43,2.73,69.56,27.75,7.69,14.66,10.16,30.1,6.38,46.15-6.13,26.04-26.19,46.22-54.25,47.69-23.34,1.22-40.87-9.93-52.8-29.67-6.01-9.94-9.12-20.88-8.53-31.89ZM831.4,335.4c.22-7.67-2.62-16.47-8.29-24.45-12.22-17.17-34.93-19.36-49.67-4.73-16.85,16.72-16.55,46.88.63,63.27,11.92,11.37,28.75,12.38,41.66,2.15,10.93-8.66,15.72-20.34,15.67-36.24Z"></path><path class="cls-1" d="M639.15,337.88c-.53,22-9.15,39.97-27.53,52.51-24.24,16.55-56.5,11.38-75.08-11.56-11.48-14.17-16.74-30.5-14.32-48.44,3.33-24.66,15.92-43.35,39.98-52.12,29.07-10.61,58.68,5.11,71.01,31.72,4.09,8.84,6.11,18.11,5.93,27.9ZM580.1,378.69c6.49.2,12.27-1.84,17.52-5.32,22.87-15.14,24.5-51.71,3.14-69.4-13.2-10.94-32.14-9.65-43.74,2.98-12.27,13.35-15.53,33.99-7.49,50.31,6.21,12.59,16,20.54,30.56,21.42Z"></path><path class="cls-1" d="M508.47,399.57c-7.61,0-14.3.16-20.97-.15-1.19-.05-2.76-1.83-3.36-3.16-3.88-8.6-7.86-17.18-11.16-26.01-1.77-4.74-4.85-2.72-7.72-2.64-3.16.08-2.88,2.35-2.88,4.5.02,7.74-.1,15.49.05,23.23.06,3.22-1.05,4.47-4.35,4.32-4.86-.22-9.74-.24-14.59,0-3.4.17-4.24-1.23-4.23-4.36.08-21,.02-42.01.01-63.01,0-17.33.08-34.66-.1-51.98-.04-3.86,1.26-5.04,5-4.84,9.04.48,18.27-.36,27.11,1.16,18.55,3.19,30.58,14.79,35.71,32.64,4.98,17.33.25,32.69-12.42,45.44-2.55,2.57-3.03,4.57-1.55,7.86,4.83,10.76,9.34,21.66,13.95,32.52.49,1.15.8,2.38,1.49,4.48ZM462.45,321.37s-.02,0-.03,0c0,6.81-.02,13.63,0,20.44.02,4.3.66,4.83,4.85,4.01,1.15-.22,2.29-.58,3.35-1.06,13.14-5.91,18.83-22.24,12-34.95-3.41-6.35-8.42-10.97-15.84-12.42-2.98-.58-4.45.21-4.38,3.53.14,6.81.04,13.63.04,20.44Z"></path><path class="cls-1" d="M1005.69,369.81c4.65,7.94,10.86,10.43,18.06,7.64,3.39-1.31,6.61-3.57,6.43-7.12-.13-2.51-2.35-5.57-4.54-7.18-6.22-4.59-12.98-8.43-19.37-12.8-9.02-6.17-16.92-13.51-20.67-24.09-9.23-26.05,7.86-49.56,34.41-50.62,14.9-.59,27.78,7.8,32.2,20.58,5.02,14.52-2.73,31.49-16.95,37.14-4.12,1.64-4.95,1.25-6.76-3.04-2.12-5.02-4.29-10.01-6.22-14.49,2.7-1.92,5.19-3.05,6.75-4.94,4.17-5.07,1.12-12.44-5.36-13.57-5.68-.99-11.79,1.86-14.81,6.91-3.29,5.5-2.85,12.96,1.11,18.17,5.4,7.1,13.35,10.88,20.46,15.79,5.16,3.57,10.54,7.05,14.95,11.44,13.8,13.73,10.54,36.14-6.72,45-15.21,7.81-30.49,7.31-44.6-2.97-3.27-2.38-5.58-6.17-7.99-9.55-.5-.7.15-3.25.93-3.64,6.08-3.04,12.32-5.76,18.7-8.66Z"></path><path class="cls-1" d="M653.74,337.32c0-18.89.1-37.79-.08-56.68-.04-3.92,1.03-5.39,5.1-5.17,9.3.51,18.77-.32,27.9,1.13,19.28,3.05,33.12,18.06,36.65,37.26,4.21,22.9-10.15,45.69-32.46,52.1-3.13.9-6.44,1.4-9.7,1.58-3.04.17-4.13,1.3-4.08,4.32.14,7.87-.06,15.75.07,23.62.05,3.23-1.12,4.44-4.39,4.3-4.85-.21-9.73-.23-14.59,0-3.54.17-4.52-1.25-4.46-4.6.17-9.71.06-19.42.05-29.13,0-9.58,0-19.16,0-28.74h-.02ZM677.14,321.67h-.02c0,6.94.07,13.88-.03,20.82-.04,2.94,1.05,4.22,4.01,3.46,1.51-.39,3.07-.73,4.48-1.37,9.17-4.18,13.67-11.8,14.29-21.4.81-12.55-7.2-23.52-18.44-25.81-3.17-.65-4.37.28-4.32,3.48.1,6.94.03,13.88.03,20.82Z"></path><path class="cls-1" d="M284.02,337.37c0-18.76,0-37.53,0-56.29,0-5.48.13-5.61,5.43-5.61,15.38,0,30.76.1,46.14-.06,3.71-.04,5.28.98,5.02,4.87-.28,4.18-.22,8.4-.03,12.59.14,3.17-1.21,4.09-4.19,4.06-8.15-.09-16.3.14-24.45,0-3.3-.06-4.34,1.13-4.31,4.36.12,13.65.1,27.29-.03,40.94-.03,3.08,1.06,4.21,4.13,4.15,6.96-.13,13.94.08,20.9-.07,3.17-.06,4.61,1,4.48,4.29-.16,4.32-.14,8.66-.04,12.99.07,3.01-1.14,4.24-4.21,4.18-7.1-.12-14.2.18-21.29-.07-4.85-.17-3.84,3.03-3.96,5.78-.13,2.89.06,5.13,4.04,5.02,8.01-.22,16.04.1,24.05-.14,3.86-.12,5.1,1.25,4.84,5-.29,4.18-.14,8.4-.04,12.59.06,2.59-.82,3.82-3.63,3.8-16.3-.07-32.6-.09-48.9.02-3.5.02-3.76-1.94-3.75-4.55.02-19.29.01-38.58.01-57.87-.07,0-.14,0-.21,0Z"></path><path class="cls-1" d="M377.97,348.05c0-15.49-.1-30.99.08-46.48.04-3.61-1.01-4.92-4.68-4.72-4.85.26-9.73-.03-14.6.06-2.47.05-3.61-.82-3.55-3.41.11-4.86.09-9.72.03-14.57-.03-2.52,1.07-3.46,3.58-3.45,20.52.06,41.04.07,61.56.01,2.81,0,4.11.98,4.04,3.9-.12,4.59-.14,9.19,0,13.78.08,2.75-1.11,3.76-3.74,3.73-4.87-.07-9.74.18-14.6-.06-3.72-.19-4.73,1.32-4.73,4.84.07,30.2,0,60.4-.02,90.6q0,7.48-7.46,7.48c-3.95,0-7.9-.17-11.84.04-3.12.16-4.09-1.01-4.07-4.08.12-15.89.05-31.78.05-47.66h-.06Z"></path><path class="cls-1" d="M269.39,399.73c-5.59,0-10.53,0-15.48,0q-9.54,0-11.93-8.91c-7.55-28.1-15.11-56.19-22.65-84.3-2.44-9.11-4.77-18.25-7.26-27.34-.7-2.55-.15-3.75,2.64-3.73,7.1.05,14.2.05,21.31,0,2.29-.01,3.52.78,4.1,3.21,3.8,15.94,7.77,31.83,11.68,47.75,4.81,19.6,9.64,39.19,14.41,58.8,1.11,4.54,2.01,9.14,3.18,14.51Z"></path><path class="cls-1" d="M184.89,275.48c3.42,0,6.84.1,10.25-.04,2.43-.1,3.62,1.01,4.16,3.23,3.98,16.42,7.97,32.84,11.97,49.26,3.84,15.78,7.71,31.55,11.54,47.33,1.64,6.75,3.19,13.52,4.87,20.26.74,2.98.1,4.4-3.34,4.27-5.64-.21-11.31-.2-16.95,0-2.85.09-3.96-1.24-4.6-3.71-4.46-16.98-8.95-33.95-13.48-50.91-4.83-18.1-9.69-36.18-14.54-54.27-1.08-4.05-2.12-8.11-3.27-12.14-.62-2.18-.01-3.3,2.35-3.29,3.68.01,7.36,0,11.04,0Z"></path><path class="cls-1" d="M968.29,337.87c0,18.77,0,37.54,0,56.31,0,5.44-.11,5.55-5.47,5.57-4.47.01-8.96-.22-13.41.07-3.72.24-4.67-1.19-4.65-4.74.12-28.35.07-56.7.06-85.06,0-10.11.11-20.22-.06-30.32-.05-3.3,1.1-4.37,4.34-4.21,4.59.23,9.2.05,13.8.07,5.32.02,5.38.08,5.38,5.61,0,18.9,0,37.8,0,56.7Z"></path><path class="cls-1" d="M892.41,337.51c0,19.03-.09,38.07.08,57.1.03,3.87-.98,5.49-5.09,5.2-4.58-.32-9.21-.3-13.8-.02-3.89.24-4.55-1.54-4.54-4.93.1-35.18.08-70.36.09-105.54,0-3.28.11-6.57-.07-9.84-.16-2.89.92-4.04,3.86-3.95,4.86.16,9.74.27,14.59,0,3.8-.22,4.99,1.06,4.96,4.89-.17,19.03-.08,38.07-.07,57.1Z"></path><path class="cls-1" d="M158.27,290.81c1.25,4.08,2.6,8.13,3.74,12.24,6.16,22.24,12.26,44.49,18.4,66.73,2.37,8.59,4.73,17.2,7.28,25.74.92,3.1.31,4.32-3.1,4.29-11.57-.11-23.15-.11-34.73-.01-3.12.03-4.09-1.01-3.76-4.22,3.39-32.9,6.63-65.81,9.94-98.72.2-2.01.64-4,.97-6,.42-.01.84-.02,1.26-.04Z"></path><path class="cls-1" d="M914.12,378.46c4.33,0,8.65.06,12.98-.02,2.16-.04,3.12.8,3.1,2.98-.05,5.1-.03,10.2,0,15.31,0,2.1-.88,3.05-3.08,3.04-8.65-.07-17.3.05-25.95-.17-.98-.02-2.7-1.69-2.75-2.67-.28-5.22-.09-10.46-.15-15.69-.03-2.36,1.3-2.8,3.28-2.77,4.19.06,8.39.02,12.58.02v-.02Z"></path></svg> 