<?xml version="1.0" encoding="UTF-8"?> <svg xmlns="http://www.w3.org/2000/svg" id="Layer_1" data-name="Layer 1" viewBox="0 0 1200 675"><defs><style> .cls-1 { fill: #ffc800; } .cls-1, .cls-2, .cls-3, .cls-4 { stroke-width: 0px; } .cls-2 { fill: #1a1a1a; } .cls-3 { fill: #000; } .cls-4 { fill: #e1aa00; } </style></defs><path id="Path_5073" data-name="Path 5073" class="cls-2" d="M461.97,321.16c-2.7,4.71-6.72,8.52-11.57,10.96-6.01,2.97-12.66,4.4-19.36,4.16h-14.25v33.88h-22.98v-94.4h37.24c6.58-.2,13.12,1.14,19.09,3.9,4.9,2.32,8.97,6.07,11.7,10.75,2.66,4.81,4,10.24,3.9,15.73.06,5.24-1.24,10.42-3.77,15.01ZM439.11,314.92c4.32-5.03,4.32-12.45,0-17.48-2.75-2.27-6.26-3.38-9.81-3.1h-12.5v23.63h12.5c3.54.29,7.06-.82,9.81-3.08v.03Z"></path><path id="Path_5074" data-name="Path 5074" class="cls-2" d="M536.45,353.48h-35.23l-5.64,16.66h-24.06l34.14-94.37h26.61l34.14,94.37h-24.32l-5.64-16.66ZM530.52,335.74l-11.7-34.56-11.49,34.56h23.19Z"></path><path id="Path_5075" data-name="Path 5075" class="cls-2" d="M661.2,370.14h-22.98l-38.45-58.22v58.22h-22.98v-94.37h22.98l38.45,58.48v-58.48h22.98v94.37Z"></path><path id="Path_5076" data-name="Path 5076" class="cls-2" d="M740.51,305.57c-1.65-3.09-4.2-5.6-7.32-7.19-3.48-1.73-7.34-2.59-11.22-2.5-6.74-.29-13.27,2.39-17.88,7.33-9.1,11.82-8.96,28.31.33,39.98,5.15,5.06,12.18,7.72,19.39,7.32,5.12.17,10.14-1.34,14.32-4.3,4.08-3.12,7.06-7.44,8.54-12.36h-29.14v-16.94h49.98v21.38c-1.78,5.86-4.73,11.31-8.67,16-4.26,5.06-9.55,9.14-15.53,11.96-6.64,3.14-13.9,4.71-21.24,4.6-8.7.15-17.3-1.96-24.94-6.12-7.16-3.97-13.06-9.87-17.02-17.03-8.15-15.6-8.15-34.2,0-49.8,3.95-7.18,9.84-13.1,16.99-17.08,7.63-4.17,16.21-6.27,24.9-6.11,10.15-.34,20.14,2.53,28.57,8.2,7.72,5.43,13.19,13.49,15.37,22.67l-25.44-.02Z"></path><path id="Path_5077" data-name="Path 5077" class="cls-2" d="M800.54,364.9c-7.32-4.05-13.41-10-17.61-17.24-8.69-15.46-8.69-34.34,0-49.8,4.21-7.23,10.29-13.18,17.61-17.24,15.22-8.25,33.58-8.25,48.81,0,7.3,4.03,13.34,9.99,17.47,17.24,8.54,15.51,8.52,34.31-.06,49.8-4.15,7.23-10.2,13.18-17.48,17.24-15.2,8.25-33.54,8.25-48.74,0h0ZM843.02,342.58c9.06-11.74,9.06-28.12,0-39.86-4.63-5.03-11.25-7.77-18.08-7.46-6.85-.27-13.49,2.42-18.21,7.39-9.05,11.8-9.05,28.2,0,40,4.69,5.03,11.34,7.76,18.21,7.45,6.85.33,13.48-2.43,18.08-7.51h0Z"></path><path id="Path_5078" data-name="Path 5078" class="cls-2" d="M908.95,352.4h30.11v17.75h-53.09v-94.38h22.98v76.63Z"></path><path id="Path_5079" data-name="Path 5079" class="cls-2" d="M973.09,275.77v94.37h-22.98v-94.37h22.98Z"></path><path id="Path_5080" data-name="Path 5080" class="cls-2" d="M1074.18,370.14h-22.98l-38.46-58.22v58.22h-22.98v-94.37h22.98l38.46,58.48v-58.48h22.98v94.37Z"></path><path id="Path_5081" data-name="Path 5081" class="cls-1" d="M229.85,277.88l44.5-32.37,7.51,23.05-52.01,37.85v-28.52Z"></path><path id="Path_5082" data-name="Path 5082" class="cls-1" d="M237.95,312.63l55.42-40.33-8.73-26.81h29.3l19.92,61.16-52.01,37.84-43.91-31.86Z"></path><path id="Path_5083" data-name="Path 5083" class="cls-1" d="M229.82,318.83l51.91,37.67-51.89,38.17-.02-75.84Z"></path><path id="Path_5084" data-name="Path 5084" class="cls-1" d="M229.86,406.8l42.32-30.8,9.67,29.67-52.01,37.85v-36.72Z"></path><path id="Path_5085" data-name="Path 5085" class="cls-4" d="M219.84,277.88l-44.5-32.37-7.51,23.05,52.01,37.85v-28.52Z"></path><path id="Path_5086" data-name="Path 5086" class="cls-4" d="M211.73,312.63l-55.43-40.33,8.73-26.81h-29.29l-19.92,61.16,52.01,37.84,43.91-31.86Z"></path><path id="Path_5087" data-name="Path 5087" class="cls-4" d="M219.86,318.83l-51.92,37.67,51.9,38.17.02-75.84Z"></path><path id="Path_5088" data-name="Path 5088" class="cls-4" d="M219.83,406.8l-42.33-30.8-9.66,29.67,52.01,37.85v-36.72Z"></path><path id="Path_5089" data-name="Path 5089" class="cls-3" d="M395.49,407.93c1.1-1.88,2.69-3.42,4.6-4.47,4.18-2.25,9.23-2.13,13.29.32,2.04,1.28,3.6,3.21,4.43,5.47h-4.84c-.56-1.22-1.48-2.23-2.64-2.9-1.2-.66-2.56-.98-3.93-.95-1.53,0-3.03.39-4.35,1.15-1.28.74-2.31,1.83-2.98,3.15-1.45,3.03-1.45,6.55,0,9.58.67,1.33,1.7,2.44,2.98,3.19,1.32.77,2.82,1.17,4.35,1.15,1.37.03,2.73-.3,3.93-.96,1.16-.67,2.08-1.69,2.64-2.9h4.84c-.83,2.25-2.39,4.17-4.43,5.44-2.11,1.3-4.55,1.96-7.02,1.92-2.21.03-4.39-.53-6.33-1.61-1.91-1.04-3.5-2.59-4.6-4.47-2.24-4.02-2.24-8.92,0-12.94l.06-.16Z"></path><path id="Path_5090" data-name="Path 5090" class="cls-3" d="M425.97,425.79c-1.47-.83-2.69-2.05-3.51-3.53-.87-1.63-1.31-3.45-1.28-5.29-.04-1.84.4-3.65,1.28-5.27.83-1.49,2.07-2.72,3.58-3.53,3.17-1.66,6.94-1.66,10.11,0,1.5.81,2.74,2.04,3.58,3.53,1.76,3.29,1.76,7.24,0,10.53-.86,1.51-2.14,2.74-3.67,3.56-1.57.85-3.32,1.29-5.11,1.28-1.74.02-3.46-.42-4.97-1.28ZM433.87,422.81c.94-.52,1.71-1.29,2.22-2.23.59-1.11.89-2.36.85-3.61.04-1.25-.24-2.48-.82-3.59-.49-.93-1.25-1.7-2.16-2.21-1.79-.99-3.96-.99-5.75,0-.9.51-1.64,1.28-2.11,2.21-.55,1.11-.82,2.35-.79,3.59-.11,1.77.47,3.51,1.61,4.86,1.04,1.12,2.52,1.75,4.05,1.71,1.01,0,2.01-.25,2.9-.73h0Z"></path><path id="Path_5091" data-name="Path 5091" class="cls-3" d="M472.74,407.93c1.22.64,2.21,1.62,2.87,2.83.72,1.4,1.08,2.96,1.03,4.53v11.49h-3.99v-10.89c.1-1.46-.37-2.9-1.31-4.02-2.02-1.87-5.13-1.87-7.15,0-.95,1.11-1.43,2.55-1.33,4.02v10.89h-3.99v-10.89c.1-1.46-.37-2.9-1.31-4.02-2.02-1.88-5.14-1.88-7.16,0-.95,1.11-1.43,2.55-1.33,4.02v10.89h-4.02v-19.53h4.02v2.22c.68-.81,1.55-1.46,2.52-1.88,1.03-.43,2.13-.65,3.24-.64,1.45-.02,2.89.32,4.18.99,1.21.65,2.2,1.65,2.83,2.87.61-1.2,1.57-2.18,2.76-2.81,1.23-.7,2.61-1.06,4.02-1.05,1.43-.02,2.85.32,4.12.97Z"></path><path id="Path_5092" data-name="Path 5092" class="cls-3" d="M488.6,407.86c1.24-.62,2.61-.94,4-.92,3.34-.04,6.42,1.81,7.96,4.78.8,1.61,1.2,3.4,1.15,5.2.04,1.82-.35,3.62-1.15,5.25-.75,1.48-1.9,2.73-3.31,3.6-1.39.85-2.98,1.29-4.6,1.28-1.37.02-2.73-.29-3.96-.9-1.09-.56-2.05-1.35-2.83-2.3v12.09h-4.02v-28.73h4.02v2.86c.75-.92,1.68-1.67,2.75-2.2ZM496.82,413.42c-1.54-2.81-5.06-3.84-7.87-2.3-1,.55-1.82,1.38-2.35,2.39-.57,1.06-.86,2.24-.84,3.45-.02,1.23.27,2.44.84,3.52,1.46,2.82,4.92,3.93,7.74,2.47.1-.05.21-.11.31-.17.93-.55,1.68-1.35,2.18-2.3.57-1.09.86-2.3.83-3.53.03-1.23-.26-2.44-.85-3.52h0Z"></path><path id="Path_5093" data-name="Path 5093" class="cls-3" d="M509.22,425.79c-1.47-.83-2.69-2.05-3.51-3.53-.87-1.63-1.31-3.45-1.28-5.29-.04-1.84.4-3.65,1.28-5.27.83-1.49,2.07-2.72,3.58-3.53,3.17-1.66,6.94-1.66,10.11,0,1.5.81,2.74,2.04,3.58,3.53,1.76,3.29,1.76,7.24,0,10.53-.86,1.51-2.14,2.74-3.67,3.56-1.57.85-3.32,1.29-5.11,1.28-1.74.02-3.46-.42-4.97-1.28ZM517.12,422.81c.93-.52,1.7-1.29,2.21-2.23.59-1.11.89-2.36.85-3.61.04-1.25-.24-2.48-.82-3.59-.49-.93-1.24-1.69-2.15-2.21-.89-.5-1.89-.75-2.91-.75-1.01,0-2,.25-2.87.75-.9.51-1.64,1.28-2.11,2.21-.55,1.11-.82,2.35-.78,3.59-.11,1.77.47,3.51,1.61,4.86,1.04,1.12,2.52,1.75,4.05,1.71,1.02.01,2.02-.24,2.92-.73h0Z"></path><path id="Path_5094" data-name="Path 5094" class="cls-3" d="M545.95,407.25v19.48h-4.02v-2.3c-.66.83-1.52,1.49-2.5,1.92-1.03.46-2.15.7-3.28.69-1.43.03-2.85-.3-4.12-.96-1.22-.64-2.21-1.62-2.87-2.83-.73-1.39-1.09-2.95-1.05-4.52v-11.49h4v10.85c-.1,1.45.37,2.89,1.31,4,.93.96,2.23,1.48,3.56,1.4,1.34.06,2.65-.45,3.59-1.4.95-1.11,1.43-2.55,1.33-4v-10.85h4.03Z"></path><path id="Path_5095" data-name="Path 5095" class="cls-3" d="M565.2,407.93c1.21.63,2.2,1.62,2.84,2.83.72,1.4,1.08,2.96,1.03,4.53v11.49h-3.98v-10.89c.1-1.46-.37-2.9-1.31-4.02-.93-.96-2.23-1.48-3.56-1.4-1.34-.06-2.65.45-3.59,1.4-.95,1.11-1.43,2.55-1.33,4.02v10.89h-4.01v-19.52h4.02v2.22c.69-.82,1.57-1.46,2.55-1.88,1.04-.43,2.15-.65,3.28-.64,1.41,0,2.8.32,4.05.96Z"></path><path id="Path_5096" data-name="Path 5096" class="cls-3" d="M574.08,411.71c1.56-2.99,4.68-4.84,8.05-4.78,1.3,0,2.58.29,3.76.83,1.15.49,2.16,1.24,2.96,2.21v-9.4h4.07v26.18h-4.07v-2.94c-.71.98-1.65,1.77-2.74,2.3-1.24.63-2.62.95-4.02.92-1.62.01-3.22-.43-4.6-1.28-1.42-.87-2.57-2.12-3.33-3.6-.84-1.62-1.26-3.43-1.23-5.25-.06-1.8.34-3.58,1.15-5.18ZM587.97,413.48c-1.49-2.8-4.97-3.86-7.77-2.37-.98.52-1.79,1.32-2.33,2.29-.57,1.06-.86,2.25-.83,3.45-.03,1.23.26,2.44.83,3.53.51.95,1.27,1.75,2.2,2.3.87.52,1.87.79,2.89.79,2.14,0,4.09-1.18,5.07-3.08.57-1.08.86-2.29.83-3.52,0-1.19-.31-2.35-.89-3.39h0Z"></path><path id="Path_5097" data-name="Path 5097" class="cls-3" d="M625.57,402.17l-8.13,15.66v8.94h-4.03v-8.94l-8.15-15.66h4.47l5.75,12.05,5.75-12.05h4.36Z"></path><path id="Path_5098" data-name="Path 5098" class="cls-3" d="M632.22,425.79c-1.45-.84-2.65-2.06-3.45-3.53-.88-1.62-1.32-3.45-1.28-5.29-.04-1.84.42-3.66,1.31-5.27.83-1.49,2.06-2.72,3.56-3.53,3.17-1.66,6.95-1.66,10.12,0,1.5.82,2.73,2.04,3.56,3.53.89,1.61,1.34,3.43,1.31,5.27.04,1.85-.43,3.67-1.35,5.27-.86,1.5-2.13,2.74-3.66,3.56-1.57.85-3.32,1.29-5.11,1.28-1.76.03-3.49-.41-5.02-1.28ZM640.12,422.81c.93-.52,1.7-1.29,2.22-2.22.59-1.11.88-2.36.84-3.61.04-1.24-.24-2.48-.8-3.59-.5-.93-1.25-1.69-2.16-2.21-.89-.49-1.88-.75-2.9-.75-1.01,0-2,.25-2.89.75-.9.52-1.63,1.29-2.11,2.21-.55,1.11-.81,2.35-.77,3.59-.11,1.77.47,3.51,1.61,4.86,1.04,1.13,2.51,1.75,4.05,1.71,1.02,0,2.02-.25,2.9-.74h0Z"></path><path id="Path_5099" data-name="Path 5099" class="cls-3" d="M668.96,407.25v19.48h-4.03v-2.3c-.66.84-1.52,1.5-2.5,1.92-1.03.46-2.14.7-3.27.69-1.43.03-2.85-.3-4.12-.95-1.22-.63-2.21-1.62-2.86-2.83-.74-1.39-1.1-2.95-1.05-4.52v-11.49h3.99v10.85c-.1,1.45.37,2.89,1.31,4,2.02,1.87,5.14,1.87,7.16,0,.95-1.11,1.42-2.55,1.32-4v-10.85h4.04Z"></path><path id="Path_5100" data-name="Path 5100" class="cls-3" d="M680.62,407.76c1.06-.57,2.25-.86,3.45-.83v4.18h-1.02c-1.3-.11-2.59.31-3.59,1.15-.94,1.18-1.38,2.68-1.22,4.18v10.26h-4.02v-19.43h4.02v2.83c.57-.97,1.4-1.77,2.38-2.32Z"></path><path id="Path_5101" data-name="Path 5101" class="cls-3" d="M697.36,407.93c1.1-1.88,2.69-3.42,4.6-4.47,4.18-2.26,9.23-2.13,13.3.32,2.05,1.28,3.62,3.2,4.47,5.47h-4.84c-.56-1.22-1.49-2.24-2.66-2.9-1.2-.66-2.55-.99-3.92-.96-1.53,0-3.02.39-4.35,1.15-1.28.74-2.32,1.84-2.99,3.15-1.45,3.03-1.45,6.55,0,9.58.67,1.33,1.71,2.44,2.99,3.19,1.32.77,2.82,1.17,4.35,1.15,1.37.03,2.72-.3,3.92-.95,1.16-.67,2.09-1.68,2.66-2.9h4.84c-.84,2.26-2.42,4.17-4.47,5.44-2.1,1.29-4.52,1.96-6.98,1.92-2.21.03-4.4-.53-6.33-1.61-1.91-1.04-3.5-2.59-4.6-4.47-2.3-4.07-2.29-9.04.02-13.11Z"></path><path id="Path_5102" data-name="Path 5102" class="cls-3" d="M727.82,425.79c-1.45-.84-2.65-2.06-3.45-3.53-.88-1.62-1.32-3.45-1.28-5.29-.04-1.84.42-3.66,1.31-5.27.83-1.49,2.07-2.72,3.58-3.53,3.17-1.66,6.94-1.66,10.11,0,1.5.82,2.73,2.04,3.56,3.53.89,1.61,1.34,3.43,1.31,5.27.04,1.85-.43,3.67-1.35,5.27-.86,1.5-2.13,2.74-3.66,3.56-1.57.85-3.32,1.29-5.11,1.28-1.76.03-3.49-.41-5.02-1.28ZM735.73,422.81c.93-.52,1.7-1.29,2.22-2.22.59-1.11.88-2.36.84-3.61.04-1.24-.24-2.48-.8-3.59-.49-.93-1.25-1.7-2.16-2.21-.89-.49-1.88-.75-2.9-.75-1.01,0-2,.25-2.87.75-.9.51-1.64,1.28-2.11,2.21-.55,1.11-.82,2.35-.78,3.59-.11,1.77.47,3.51,1.61,4.86,1.04,1.13,2.51,1.75,4.05,1.71,1.02.01,2.02-.25,2.9-.74h0Z"></path><path id="Path_5103" data-name="Path 5103" class="cls-3" d="M774.62,407.92c1.22.63,2.22,1.62,2.87,2.83.73,1.4,1.1,2.96,1.05,4.53v11.49h-3.99v-10.89c.12-1.47-.34-2.93-1.28-4.06-2.02-1.87-5.14-1.87-7.16,0-.95,1.11-1.42,2.56-1.32,4.02v10.89h-3.99v-10.89c.1-1.46-.38-2.9-1.32-4.02-2.02-1.87-5.14-1.87-7.16,0-.95,1.11-1.42,2.56-1.32,4.02v10.89h-4.03v-19.47h4.03v2.22c.68-.81,1.54-1.46,2.51-1.88,1.03-.43,2.14-.65,3.26-.64,1.45-.02,2.89.32,4.18.99,1.21.65,2.19,1.65,2.83,2.86.61-1.2,1.57-2.18,2.76-2.81,1.23-.7,2.61-1.06,4.02-1.05,1.42-.01,2.82.32,4.09.96Z"></path><path id="Path_5104" data-name="Path 5104" class="cls-3" d="M811.35,407.93c1.22.63,2.21,1.62,2.86,2.83.73,1.4,1.1,2.96,1.05,4.53v11.49h-3.99v-10.89c.1-1.46-.37-2.9-1.31-4.02-.93-.96-2.23-1.48-3.56-1.4-1.35-.07-2.66.44-3.6,1.4-.94,1.12-1.42,2.56-1.32,4.02v10.89h-3.99v-10.89c.1-1.46-.37-2.9-1.31-4.02-.93-.96-2.23-1.48-3.56-1.4-1.35-.07-2.66.44-3.6,1.4-.94,1.12-1.42,2.56-1.32,4.02v10.89h-4.08v-19.52h4.02v2.22c.68-.81,1.54-1.46,2.51-1.88,1.03-.43,2.14-.65,3.26-.64,1.45-.02,2.89.32,4.18.99,1.21.65,2.2,1.65,2.83,2.87.61-1.2,1.57-2.18,2.76-2.81,1.23-.7,2.61-1.06,4.02-1.05,1.45-.03,2.88.3,4.17.96Z"></path><path id="Path_5105" data-name="Path 5105" class="cls-3" d="M838.03,407.25v19.48h-4.02v-2.3c-.66.83-1.52,1.49-2.5,1.92-1.03.46-2.15.7-3.28.69-1.43.03-2.85-.3-4.12-.96-1.21-.64-2.21-1.62-2.87-2.83-.73-1.39-1.08-2.95-1.03-4.52v-11.49h3.99v10.85c-.1,1.45.37,2.89,1.31,4,.93.96,2.23,1.48,3.56,1.4,1.34.06,2.65-.45,3.59-1.4.95-1.11,1.43-2.55,1.33-4v-10.85h4.03Z"></path><path id="Path_5106" data-name="Path 5106" class="cls-3" d="M857.28,407.93c1.21.63,2.2,1.62,2.84,2.83.72,1.4,1.08,2.96,1.03,4.53v11.49h-3.95v-10.89c.1-1.46-.37-2.9-1.31-4.02-.93-.96-2.23-1.48-3.56-1.4-1.34-.06-2.65.45-3.59,1.4-.95,1.11-1.42,2.56-1.32,4.02v10.89h-4.03v-19.52h4.03v2.22c.68-.82,1.54-1.46,2.52-1.88,1.04-.43,2.15-.65,3.28-.64,1.41,0,2.81.34,4.06.99v-.03Z"></path><path id="Path_5107" data-name="Path 5107" class="cls-3" d="M866.5,403.93c-.97-.98-.96-2.55.01-3.52.98-.97,2.55-.96,3.52.01s.96,2.55-.01,3.52c-.45.45-1.05.7-1.68.72-.69.02-1.35-.25-1.84-.73ZM870.33,407.25v19.48h-4.03v-19.48h4.03Z"></path><path id="Path_5108" data-name="Path 5108" class="cls-3" d="M880.32,410.54v10.78c-.05.57.13,1.14.5,1.58.51.37,1.14.55,1.76.49h2.47v3.36h-3.19c-1.5.1-2.99-.35-4.18-1.28-1.06-1.1-1.59-2.61-1.45-4.14v-10.78h-2.3v-3.29h2.3v-4.85h4.07v4.85h4.74v3.29h-4.73Z"></path><path id="Path_5109" data-name="Path 5109" class="cls-3" d="M906.31,407.25l-11.96,28.63h-4.16l3.96-9.47-7.66-19.15h4.47l5.48,14.85,5.69-14.85h4.17Z"></path></svg> 