<?xml version="1.0" encoding="UTF-8"?> <svg xmlns="http://www.w3.org/2000/svg" xmlns:xlink="http://www.w3.org/1999/xlink" id="Group_3370" data-name="Group 3370" width="93" height="93" viewBox="0 0 93 93"><defs><clipPath id="clip-path"><rect id="Rectangle_2534" data-name="Rectangle 2534" width="93" height="93" fill="none"></rect></clipPath></defs><g id="Group_3370-2" data-name="Group 3370" clip-path="url(#clip-path)"><path id="Path_5353" data-name="Path 5353" d="M83.249,93H9.75A9.751,9.751,0,0,1,0,83.249V9.751A9.751,9.751,0,0,1,9.75,0h73.5A9.751,9.751,0,0,1,93,9.751v73.5A9.751,9.751,0,0,1,83.249,93" fill="#1d1d1d"></path><path id="Path_5354" data-name="Path 5354" d="M32.8,42.138l.008-17.851H77.493V81.474H67.244" transform="translate(-8.617 -6.381)" fill="#1d1d1d"></path><path id="Path_5355" data-name="Path 5355" d="M32.669,48.736a.368.368,0,1,0-.261-.108.373.373,0,0,0,.261.108" transform="translate(-8.486 -12.61)" fill="#fffeff"></path><path id="Path_5356" data-name="Path 5356" d="M33.045,27.615h0a.369.369,0,1,0-.369.369.369.369,0,0,0,.369-.369m0,2.55h0a.369.369,0,1,0-.369.369.368.368,0,0,0,.369-.369m0,2.55h0a.369.369,0,1,0-.369.368.369.369,0,0,0,.369-.368m0,2.549h0a.369.369,0,1,0-.369.369.369.369,0,0,0,.369-.369m0,2.55h0a.369.369,0,1,0-.369.369.369.369,0,0,0,.369-.369m0,2.55h0a.369.369,0,1,0-.369.369.369.369,0,0,0,.369-.369" transform="translate(-8.487 -7.158)" fill="#fffeff"></path><path id="Path_5357" data-name="Path 5357" d="M32.68,24.524a.368.368,0,1,0-.261-.108.373.373,0,0,0,.261.108" transform="translate(-8.489 -6.249)" fill="#fffeff"></path><path id="Path_5358" data-name="Path 5358" d="M75.673,24.524h0a.369.369,0,1,0-.369-.369.369.369,0,0,0,.369.369m-2.629,0h0a.369.369,0,1,0-.369-.369.368.368,0,0,0,.369.369m-2.628,0h0a.369.369,0,1,0-.369-.369.369.369,0,0,0,.369.369m-2.628,0h0a.369.369,0,1,0-.369-.369.369.369,0,0,0,.369.369m-2.628,0h0a.369.369,0,1,0-.369-.369.369.369,0,0,0,.369.369m-2.628,0h0a.369.369,0,1,0-.369-.369.369.369,0,0,0,.369.369m-2.628,0h0a.369.369,0,1,0-.369-.369.369.369,0,0,0,.369.369m-2.629,0h0a.369.369,0,1,0-.369-.369.369.369,0,0,0,.369.369m-2.628,0h0a.369.369,0,1,0-.369-.369.369.369,0,0,0,.369.369m-2.628,0h0a.369.369,0,1,0-.369-.369.369.369,0,0,0,.369.369m-2.628,0h0a.369.369,0,1,0-.369-.369.369.369,0,0,0,.369.369m-2.628,0h0a.369.369,0,1,0-.369-.369.369.369,0,0,0,.369.369m-2.628,0h0a.369.369,0,1,0-.369-.369.369.369,0,0,0,.369.369m-2.629,0h0a.369.369,0,1,0-.369-.369.369.369,0,0,0,.369.369m-2.628,0h0a.369.369,0,1,0-.369-.369.369.369,0,0,0,.369.369m-2.628,0h0a.369.369,0,1,0-.369-.369.369.369,0,0,0,.369.369" transform="translate(-9.425 -6.249)" fill="#fffeff"></path><path id="Path_5359" data-name="Path 5359" d="M93.288,24.524a.368.368,0,1,0-.261-.108.373.373,0,0,0,.261.108" transform="translate(-24.412 -6.249)" fill="#fffeff"></path><path id="Path_5360" data-name="Path 5360" d="M92.919,79.67h0a.369.369,0,1,0,.369-.369.369.369,0,0,0-.369.369m0-2.6h0a.369.369,0,1,0,.369-.369.369.369,0,0,0-.369.369m0-2.6h0a.369.369,0,1,0,.369-.369.368.368,0,0,0-.369.369m0-2.6h0a.369.369,0,1,0,.369-.369.369.369,0,0,0-.369.369m0-2.6h0a.369.369,0,1,0,.369-.369.369.369,0,0,0-.369.369m0-2.6h0a.369.369,0,1,0,.369-.369.369.369,0,0,0-.369.369m0-2.6h0a.369.369,0,1,0,.369-.369.369.369,0,0,0-.369.369m0-2.6h0a.369.369,0,1,0,.369-.369.369.369,0,0,0-.369.369m0-2.6h0a.369.369,0,1,0,.369-.369.369.369,0,0,0-.369.369m0-2.6h0a.369.369,0,1,0,.369-.369.369.369,0,0,0-.369.369m0-2.6h0a.369.369,0,1,0,.369-.369.369.369,0,0,0-.369.369m0-2.6h0a.369.369,0,1,0,.369-.369.369.369,0,0,0-.369.369m0-2.6h0a.369.369,0,1,0,.369-.369.369.369,0,0,0-.369.369m0-2.6h0a.369.369,0,1,0,.369-.369.369.369,0,0,0-.369.369m0-2.6h0a.369.369,0,1,0,.369-.369.369.369,0,0,0-.369.369m0-2.6h0a.369.369,0,1,0,.369-.369.368.368,0,0,0-.369.369m0-2.6h0a.369.369,0,1,0,.369-.369.369.369,0,0,0-.369.369m0-2.6h0a.369.369,0,1,0,.369-.369.369.369,0,0,0-.369.369m0-2.6h0a.369.369,0,1,0,.369-.369.368.368,0,0,0-.369.369m0-2.6h0a.369.369,0,1,0,.369-.369.369.369,0,0,0-.369.369m0-2.6h0a.369.369,0,1,0,.369-.369.369.369,0,0,0-.369.369" transform="translate(-24.412 -7.176)" fill="#fffeff"></path><path id="Path_5361" data-name="Path 5361" d="M93.288,102.09a.368.368,0,1,0-.261-.108.373.373,0,0,0,.261.108" transform="translate(-24.412 -26.628)" fill="#fffeff"></path><path id="Path_5362" data-name="Path 5362" d="M82.863,101.353h0a.369.369,0,1,0,.369.369.369.369,0,0,0-.369-.369m2.562,0h0a.369.369,0,1,0,.369.369.369.369,0,0,0-.369-.369m2.562,0h0a.369.369,0,1,0,.369.369.369.369,0,0,0-.369-.369" transform="translate(-21.673 -26.628)" fill="#fffeff"></path><path id="Path_5363" data-name="Path 5363" d="M79.387,102.09a.368.368,0,1,0-.261-.108.373.373,0,0,0,.261.108" transform="translate(-20.76 -26.628)" fill="#fffeff"></path><path id="Path_5364" data-name="Path 5364" d="M39.353,43.748v.184H64.482V86.354H32.908V50.419l6.574-6.541-.13-.131v0l-.13-.131-6.683,6.649V86.723H64.851V43.563H39.277l-.054.054Z" transform="translate(-8.549 -11.445)" fill="#fff"></path><path id="Path_5365" data-name="Path 5365" d="M32.79,50.592H39.6V43.813h-.369v6.411H32.79Z" transform="translate(-8.615 -11.511)" fill="#fff"></path><path id="Path_5366" data-name="Path 5366" d="M85.173,51.7v-.148A1.926,1.926,0,1,0,87.1,53.473a1.926,1.926,0,0,0-1.926-1.926v.3a1.63,1.63,0,1,1-1.63,1.629,1.632,1.632,0,0,1,1.63-1.629Z" transform="translate(-21.871 -13.543)" fill="#fff"></path><path id="Path_5367" data-name="Path 5367" d="M76.081,59.658h3.588l2.737-3.422-.232-.185-2.647,3.312H76.081Z" transform="translate(-19.988 -14.726)" fill="#fff"></path><path id="Path_5368" data-name="Path 5368" d="M85.173,75.656v-.148a1.63,1.63,0,1,1,1.63-1.629,1.632,1.632,0,0,1-1.63,1.629v.3a1.926,1.926,0,1,0-1.926-1.926A1.927,1.927,0,0,0,85.173,75.8Z" transform="translate(-21.871 -18.904)" fill="#fff"></path><path id="Path_5369" data-name="Path 5369" d="M76.081,68.076h3.446l2.647,3.312.232-.185L79.668,67.78H76.081Z" transform="translate(-19.988 -17.807)" fill="#fff"></path><path id="Path_5370" data-name="Path 5370" d="M85.173,61.9V61.75A1.926,1.926,0,1,0,87.1,63.676a1.926,1.926,0,0,0-1.926-1.926v.3a1.63,1.63,0,1,1-1.63,1.629,1.632,1.632,0,0,1,1.63-1.629Z" transform="translate(-21.871 -16.223)" fill="#fff"></path><path id="Path_5371" data-name="Path 5371" d="M76.081,64.457h5.432v-.3H76.081" transform="translate(-19.988 -16.857)" fill="#fff"></path><path id="Path_5372" data-name="Path 5372" d="M41.813,70.836v-.148a1.926,1.926,0,1,0,1.926,1.926,1.926,1.926,0,0,0-1.926-1.926v.3a1.63,1.63,0,1,1-1.63,1.629,1.632,1.632,0,0,1,1.63-1.629Z" transform="translate(-10.479 -18.571)" fill="#fff"></path><path id="Path_5373" data-name="Path 5373" d="M32.721,78.8h3.588l2.736-3.422-.231-.185L36.167,78.5H32.721Z" transform="translate(-8.597 -19.755)" fill="#fff"></path><path id="Path_5374" data-name="Path 5374" d="M41.813,94.8v-.148a1.63,1.63,0,1,1,1.63-1.629,1.632,1.632,0,0,1-1.63,1.629v.3a1.926,1.926,0,1,0-1.926-1.926,1.926,1.926,0,0,0,1.926,1.926Z" transform="translate(-10.479 -23.933)" fill="#fff"></path><path id="Path_5375" data-name="Path 5375" d="M32.721,87.217h3.446l2.647,3.312.231-.185-2.736-3.422H32.721Z" transform="translate(-8.597 -22.836)" fill="#fff"></path><path id="Path_5376" data-name="Path 5376" d="M41.813,81.038V80.89a1.926,1.926,0,1,0,1.926,1.926,1.927,1.927,0,0,0-1.926-1.926v.3a1.63,1.63,0,1,1-1.63,1.629,1.632,1.632,0,0,1,1.63-1.629Z" transform="translate(-10.479 -21.252)" fill="#fff"></path><path id="Path_5377" data-name="Path 5377" d="M32.721,83.6h5.432v-.3H32.721" transform="translate(-8.597 -21.885)" fill="#fff"></path><path id="Path_5378" data-name="Path 5378" d="M81.875,89.709l5.453,5.447.26-.261-5.453-5.447" transform="translate(-21.511 -23.5)" fill="#fff"></path><path id="Path_5379" data-name="Path 5379" d="M82.051,95.321h5.617V89.789H87.3v5.163H82.051Z" transform="translate(-21.557 -23.59)" fill="#fff"></path><path id="Path_5380" data-name="Path 5380" d="M82.136,33.671l5.453-5.447-.26-.261L81.875,33.41" transform="translate(-21.511 -7.347)" fill="#fff"></path><path id="Path_5381" data-name="Path 5381" d="M82.051,28.23H87.3v5.163h.369V27.861H82.051Z" transform="translate(-21.557 -7.32)" fill="#fff"></path></g></svg> 