<?xml version="1.0" encoding="UTF-8"?> <svg xmlns="http://www.w3.org/2000/svg" xmlns:xlink="http://www.w3.org/1999/xlink" id="Layer_1" data-name="Layer 1" viewBox="0 0 1200 675"><defs><style> .cls-1 { fill: url(#linear-gradient); } .cls-1, .cls-2 { stroke-width: 0px; } .cls-2 { fill: #2f2f2f; } </style><linearGradient id="linear-gradient" x1="116.05" y1="408.99" x2="283.85" y2="268.36" gradientTransform="translate(0 677) scale(1 -1)" gradientUnits="userSpaceOnUse"><stop offset="0" stop-color="#8a5c00"></stop><stop offset=".1" stop-color="#aa8226"></stop><stop offset=".4" stop-color="#e7cb6d"></stop><stop offset=".5" stop-color="#ffe88a"></stop><stop offset=".7" stop-color="#ffdc73"></stop><stop offset="1" stop-color="#c2912e"></stop></linearGradient></defs><path class="cls-1" d="M142.93,316.11c0,8.8,3.52,17.11,9.56,23.4,6.29,6.29,14.59,9.56,23.4,9.56h42.77c6.29,0,11.32,5.03,11.32,11.32s-5.03,11.32-11.32,11.32h-42.77c-14.84,0-28.93-5.79-39.5-16.35-10.57-10.57-16.35-24.4-16.35-39.5,0-30.69,24.9-55.6,55.6-55.6h100.88c-19.87-19.62-47.04-31.7-76.98-31.7-60.38,0-109.43,49.06-109.43,109.43.63,30.72,5.53,38.99,14.84,55.09h113.71c18.11,0,32.96-14.84,32.96-32.96s-14.84-32.96-32.96-33.21h-45.28c-6.29,0-11.32-5.28-11.32-11.57s5.03-11.32,11.32-11.32h45.28c30.69,0,55.6,25.16,55.6,55.85s-24.91,55.6-55.6,55.6h-96.35c19.87,19.62,47.04,31.7,76.98,31.7,60.38,0,109.43-49.06,109.43-109.43,0-27.51-5.53-38.99-15.09-55.34h-118.49c-18.11,0-32.96,14.84-32.96,32.96l.75.75Z"></path><path class="cls-2" d="M448.24,330.63h-38.84c-7.25,0-13.33-5.8-13.33-13.04s6.09-13.04,13.33-13.04h58.54c4.06,0,7.25-3.19,7.25-7.25s-3.19-7.25-7.25-7.25h-58.54c-15.36,0-27.82,12.46-27.82,27.53s12.46,27.53,27.82,27.53h38.84c7.25,0,13.33,5.8,13.33,13.04s-6.09,13.04-13.33,13.04h-58.54c-4.06,0-7.25,3.19-7.25,7.25s3.19,7.25,7.25,7.25h58.54c15.36,0,27.82-12.46,27.82-27.53s-12.46-27.53-27.82-27.53Z"></path><path class="cls-2" d="M534.03,304.54h39.13c4.05,0,7.24-3.19,7.24-7.25s-3.19-7.25-7.24-7.25h-39.13c-26.37,0-47.82,21.45-47.82,47.82s21.45,47.82,47.82,47.82h39.13c4.05,0,7.24-3.19,7.24-7.25s-3.19-7.25-7.24-7.25h-39.13c-18.26,0-33.33-15.07-33.33-33.33s15.07-33.33,33.33-33.33Z"></path><path class="cls-2" d="M1102.09,370.62h-40.87c-15.65,0-28.69-11.01-32.17-25.79h48.4c4.06,0,7.25-3.19,7.25-7.25s-3.19-7.25-7.25-7.25h-48.4c3.19-14.78,16.52-25.79,32.17-25.79h40.87c4.06,0,7.25-3.19,7.25-7.25s-3.19-7.25-7.25-7.25h-40.87c-26.08,0-47.53,21.16-47.53,47.53s21.16,47.53,47.53,47.53h40.87c4.06,0,7.25-3.19,7.25-7.25s-3.19-7.25-7.25-7.25Z"></path><path class="cls-2" d="M771.4,290.05h-141.15c-26.08,0-47.53,21.16-47.53,47.53s21.16,47.53,47.53,47.53h40.87c4.06,0,7.25-3.19,7.25-7.25s-3.19-7.25-7.25-7.25h-40.87c-15.65,0-28.69-11.01-32.17-25.79h48.4c4.06,0,7.25-3.19,7.25-7.25s-3.19-7.25-7.25-7.25h-48.4c3.19-14.78,16.52-25.79,32.17-25.79h141.15c7.25,0,13.04,5.8,13.04,13.04s-5.8,13.04-13.04,13.04h-68.4c-4.06,0-7.25,3.19-7.25,7.25v40.58c0,4.06,3.19,7.25,7.25,7.25s7.25-3.19,7.25-7.25v-33.33h61.15c15.07,0,27.54-12.46,27.54-27.53s-12.47-27.53-27.54-27.53Z"></path><path class="cls-2" d="M972.54,345.12c14.2-.87,25.79-12.75,25.79-27.53s-12.46-27.53-27.53-27.53h-155.64c-4.06,0-7.25,3.19-7.25,7.25s3.19,7.25,7.25,7.25h38.55v73.33c0,4.06,3.19,7.25,7.25,7.25s7.25-3.19,7.25-7.25v-73.33h102.6c7.25,0,13.04,5.8,13.04,13.04s-5.8,13.04-13.04,13.04h-68.4c-4.06,0-7.25,3.19-7.25,7.25s3.19,7.25,7.25,7.25h50.43l36.52,38.26c1.45,1.45,3.19,2.32,5.21,2.32s3.48-.58,4.93-2.03c2.9-2.9,2.9-7.25,0-10.14l-27.24-28.4h.29Z"></path></svg> 