<?xml version="1.0" encoding="UTF-8"?> <svg xmlns="http://www.w3.org/2000/svg" id="Layer_1" data-name="Layer 1" viewBox="0 0 2000 2000"><defs><style> .cls-1 { fill: #fff; stroke-width: 0px; } </style></defs><path class="cls-1" d="M666.68,505c27.31,47.32,54.37,94.2,81.39,141.01,16.5-9.55,32.57-18.84,49.06-28.39-27.12-46.99-54.24-93.96-81.45-141.09-5.34,2.78-9.96,5.19-15.15,7.9-28.16-48.77-55.98-96.95-84.16-145.75-5.94,5.62-11.24,10.65-16.75,15.86,27.23,47.21,54.26,94.06,81.4,141.11-5.05,3.29-9.55,6.22-14.33,9.34ZM584.06,568.81c35.1,41.85,69.89,83.32,104.7,124.83,14.53-12.21,28.74-24.15,43.4-36.47-34.86-41.56-69.72-83.11-104.69-124.79-4.8,3.69-8.93,6.87-13.54,10.43-28.57-34.05-56.97-67.88-85.79-102.22-4.69,6.69-8.9,12.71-13.33,19.03,27.3,32.57,54.47,64.98,81.9,97.7-4.28,3.89-8.25,7.5-12.65,11.49ZM1557.23,1203.39c1.71-5.68,3.25-10.79,4.92-16.32-51.36-18.69-102.16-37.18-152.94-55.66-6.58,18.08-12.91,35.46-19.39,53.25,50.96,18.55,101.77,37.05,153.05,55.72,2.24-5.38,4.31-10.34,6.59-15.79,63.39,23.07,126.39,45.99,190.38,69.28-.78-2.31-1.13-3.55-1.62-4.73-2.45-5.92-5.19-11.74-7.31-17.78-1.42-4.07-3.85-6.14-7.87-7.6-53.3-19.27-106.54-38.71-159.79-58.11-1.95-.71-3.89-1.45-6.01-2.25ZM1122.08,424.63c-5.52-1.29-10.74-2.5-16.6-3.86,11.05-64.17,22.66-127.98,33.76-192.61h-22.66c-11.07,62.73-22.16,125.54-33.31,188.74-5.75-.7-11.05-1.34-16.94-2.06-9.54,53.72-18.99,107.08-28.24,160.34,18.96,3.32,37.06,6.49,55.72,9.76,9.41-53.33,18.8-106.58,28.27-160.31ZM759.65,456.07c1.54,7.85,53.58,149.78,55.93,152.99,17.34-6.32,34.62-12.61,52.41-19.09-18.64-51.21-37.14-102.02-55.71-153.03-5.8,1.78-10.9,3.34-16.35,5-21.3-58.52-42.4-116.48-63.75-175.11-7.18,3.12-13.81,6-20.61,8.95,21.24,58.39,42.18,115.98,63.25,173.9-5.43,2.29-10.36,4.36-15.18,6.39ZM396.31,933.02c53.8,9.48,107.02,18.87,160.3,28.27,3.29-18.8,6.48-37.03,9.76-55.81-17.83-3.12-35.58-6.21-53.32-9.34-17.97-3.17-35.91-6.44-53.89-9.53-17.67-3.04-35.26-6.64-53.18-9.11-1.33,5.87-2.47,10.93-3.71,16.4-52.52-9.25-104.64-18.44-156.97-27.65-4.97,6.45-9.8,12.73-15.43,20.04,56.78,10.03,112.47,19.87,168.51,29.77-.72,5.94-1.37,11.24-2.08,16.98ZM513.9,646.15c41.8,35.08,83.26,69.88,124.67,104.64,12.28-14.63,24.23-28.84,36.46-43.41-41.45-34.79-82.92-69.6-124.77-104.72-3.97,4.33-7.7,8.4-11.56,12.61-27.09-22.72-53.69-45.03-80.65-67.64-4.15,6.69-8,12.88-11.96,19.26,26.3,22.09,52.11,43.77,78.08,65.59-3.61,4.8-6.85,9.1-10.29,13.68ZM458.07,734.37c47.32,27.33,94.24,54.43,140.96,81.4,9.62-16.62,18.83-32.55,28.38-49.06-47.02-27.15-93.86-54.21-141.01-81.44-3.23,4.98-6.22,9.61-9.3,14.36-28.12-16.23-55.65-32.11-83.6-48.25-4.12,6.45-8.02,12.56-12.09,18.93,28.54,16.5,56.38,32.6,84.41,48.81-2.67,5.24-5.09,10.01-7.75,15.25ZM1165.87,609.36c18.56-51.02,37.06-101.86,55.64-152.95-5.51-2.42-10.55-4.63-15.67-6.87,25.21-69.57,50.43-138.37,75.56-207.94-8.16-1.09-15.35-2.05-22.71-3.03-24.77,68.04-49.31,135.48-74.02,203.38-5.56-1.7-10.68-3.27-16.36-5.01-18.59,51.07-37.09,101.89-55.69,153.02,18.09,6.59,35.5,12.93,53.25,19.39ZM1588.26,980.99h-162.57v55.81c8.51,1.21,158.49.82,162.64-.42.34-5.29.67-10.63,1.04-16.43h65.04c-.52-7.61-1-14.65-1.52-22.27h-63.62c-.36-5.92-.68-11.25-1.01-16.69ZM1684.8,758.6c-.03-4.75,1.2-9.51,1.97-15.02-46.35,16.63-91.68,33.49-137.32,49.81-2.42-5.66-4.5-10.56-6.69-15.68-51.51,18.76-102.32,37.26-152.95,55.71,6.56,17.98,12.9,35.39,19.24,52.79,9.45-2.18,149.29-53.58,152.85-56.25-1.5-4.87-3.04-9.82-4.68-15.14,2.03-.84,3.76-1.64,5.54-2.29,36.82-13.4,73.56-26.99,110.52-40,7.28-2.57,11.54-5.76,11.5-13.94ZM1574.53,1140.83c1.35-5.85,2.56-11.05,3.86-16.65,34.45,6.06,68.38,12.02,103.24,18.15-2.6-8.54-4.94-16.23-7.28-23.95-30.8-5.75-61.36-10.66-92.03-16.49.66-5.9,1.24-11.04,1.89-16.88-53.65-9.46-106.89-18.85-160.14-28.24-3.33,18.89-6.54,37.12-9.84,55.79,53.41,9.41,106.66,18.8,160.31,28.26ZM1663.85,878.85c-29.15,5.12-57.16,10.04-85.44,15.01-1.36-5.73-2.6-10.92-3.81-15.99-7.19.49-157.86,26.36-160.25,28.42,3.22,18.31,6.41,36.41,9.69,54.99,53.21-9.39,106.43-18.77,160.1-28.24-.61-5.83-1.16-11.14-1.77-16.99,26.26-4.68,52.1-9.28,77.86-13.87,1.25-8.06,2.36-15.28,3.61-23.33ZM1494.09,685.33c-47.46,27.42-94.3,54.48-140.89,81.4,9.66,16.69,18.96,32.76,28.39,49.06,46.93-27.11,93.77-54.17,140.98-81.44-2.7-5.26-5.14-10.02-7.77-15.14,2.26-1.36,4.22-2.55,6.21-3.7,51.77-29.91,103.55-59.81,155.32-89.71,5.71-3.31,11.49-6.5,17.1-9.97,1.29-.8,2.84-2.53,2.83-3.82-.04-7.3-.53-14.6-.91-23.13-64.34,37.15-127.79,73.78-191.8,110.74-3.35-5.06-6.4-9.64-9.48-14.28ZM1353.16,532.36c-35.11,41.86-69.99,83.45-104.7,124.83,14.78,12.41,28.98,24.33,43.42,36.44,34.95-41.67,69.72-83.13,104.67-124.8-4.4-4.01-8.25-7.53-12.64-11.53,60.52-72.16,120.62-143.82,181.1-215.94-6.62-4.46-12.5-8.43-18.72-12.63-60.05,71.58-119.71,142.69-179.62,214.1-4.59-3.56-8.83-6.84-13.52-10.47ZM1264.92,476.53c-27.27,47.26-54.32,94.12-81.42,141.07,16.51,9.56,32.56,18.85,49.04,28.4,27.08-46.92,54.12-93.78,81.4-141.02-4.91-3.19-9.42-6.13-14.32-9.32,8.66-15.04,17.17-29.82,25.68-44.59,8.44-14.64,16.9-29.26,25.35-43.89,8.54-14.8,17.08-29.6,25.62-44.4,8.44-14.63,16.95-29.23,25.33-43.89,8.41-14.72,17.21-29.22,25.48-44.62-7.73-2.35-14.55-4.42-21.83-6.63-41.74,72.31-83.34,144.37-125.14,216.77-5.3-2.74-10.06-5.22-15.19-7.88ZM1430.37,602.64c-41.9,35.17-83.46,70.06-124.78,104.75,12.4,14.75,24.34,28.96,36.47,43.4,41.6-34.92,83.03-69.7,124.73-104.71-3.69-4.82-6.95-9.09-10.4-13.59,69.23-58.12,138.07-115.91,207.33-174.05-3.49-6.77-6.84-13.25-10.56-20.46-70.68,59.31-140.81,118.17-211.27,177.3-3.94-4.33-7.56-8.3-11.52-12.65ZM418.49,830.99c51.3,18.68,102.07,37.16,152.9,55.67,6.5-17.86,12.84-35.27,19.39-53.26-50.96-18.55-101.86-37.08-153.04-55.71-2.3,5.51-4.29,10.31-6.56,15.76-35.37-12.85-70.44-25.59-105.7-38.41-4.41,6.43-8.53,12.44-13.08,19.07,37.41,13.65,74.1,27.03,111.01,40.49-1.73,5.75-3.26,10.87-4.92,16.38ZM962.44,1607.76h16.51v159.99c7.77.44,14.86.84,22.67,1.28v-96.76c0-10.68-.02-21.36,0-32.05.03-10.6-.11-21.2.1-32.06,5.95-.28,11.1-.52,16.43-.77v-162.93h-55.73v163.3ZM1122.08,1593.38c-9.48-53.76-18.87-107.01-28.27-160.28-18.79,3.31-37.04,6.52-55.78,9.82,9.43,53.43,18.81,106.65,28.27,160.3,5.94-.72,11.24-1.36,16.97-2.06,10.25,58.04,20.42,115.64,30.65,173.6h22.73c-10.43-59.27-20.8-118.24-31.22-177.44,5.91-1.4,11.12-2.63,16.65-3.94ZM897.35,416.89c-10.77-61.02-21.44-121.5-32.2-182.5-7.41,1.01-14.27,1.94-22.22,3.03,10.84,61.54,21.52,122.22,32.28,183.33-5.65,1.31-10.86,2.51-16.67,3.86,9.47,53.72,18.88,107.07,28.27,160.32,19.09-3.35,37.33-6.55,55.8-9.78-9.47-53.64-18.86-106.88-28.29-160.34-5.99.73-11.29,1.39-16.97,2.09ZM1207.4,1572.87c-.51-1.4-.88-2.86-1.4-4.55,5.29-2.24,10.23-4.35,15.55-6.62-18.7-51.36-37.24-102.32-55.7-153.02-18.08,6.59-35.35,12.89-53.22,19.41,18.52,50.89,37.07,101.85,55.69,153.03,5.8-1.77,10.91-3.33,16.27-4.97.86,2.28,1.56,4.06,2.21,5.86,19.72,54.19,39.45,108.37,59.14,162.57,3.9,10.75,7.65,21.56,11.48,32.35h24.49c-.35-.69-.78-1.35-1.04-2.08-24.51-67.32-49-134.65-73.48-201.98ZM962.94,573.62h55.2v-162.93c-5.43-.3-10.74-.6-16.5-.93v-8.03c0-56.16.01-112.32-.03-168.49,0-2.49-.43-4.98-.67-7.48h-1.17c-2.06.29-4.12.7-6.19.82-4.76.28-9.52.4-14.8.61v182.65c-5.69.29-10.84.55-15.67.8-.48.85-.76,1.17-.83,1.53-.13.76-.22,1.54-.22,2.31,0,52.28.01,104.55.04,156.83,0,.57.19,1.14.34,1.7.05.17.2.32.33.46.12.15.28.27.17.17ZM1805.35,1471.94c-.85-4.29-2.95-6.99-6.86-9.24-92.57-53.31-185.05-106.77-277.55-160.2-1.97-1.14-3.93-2.33-6.17-3.66,2.68-5.18,5.13-9.93,7.81-15.13-47.29-27.31-94.14-54.37-140.99-81.43-9.5,16.42-18.8,32.48-28.39,49.06,46.89,27.08,93.86,54.21,141.03,81.45,3.19-4.97,6.01-9.37,8.92-13.9.81.09,1.03.05,1.17.14,100.6,58.04,201.19,116.09,301.78,174.14.67.39,1.37.74,2.06,1.09.17.09.36.16.55.18.19.03.4.02.58-.05.15-.05.27-.19.9-.67-1.59-7.09-3.39-14.41-4.85-21.79ZM1313.91,1513.01c-27.33-47.34-54.37-94.18-81.38-140.96-16.62,9.64-32.65,18.92-49.03,28.41,27.18,47.08,54.22,93.94,81.42,141.06,5.25-2.72,10.02-5.2,15.19-7.88,46.02,79.72,91.81,159.04,137.75,238.64,8.02-.63,15.85-1.24,24.8-1.95-48.02-83.23-95.49-165.49-143.03-247.9,5.12-3.38,9.59-6.34,14.28-9.43ZM257.81,1020.09c22.34,0,44.68,0,67.03,0,22.06,0,44.13.01,66.28.02.45,6.2.84,11.54,1.21,16.74,10.84,1.3,158.81.8,162.66-.42v-55.12c-7.04-1.16-158.27-.89-162.72.33-.36,5.09-.73,10.28-1.16,16.21h-243.61c-1.56,0-3.13.14-4.66-.03-2.66-.3-4.37.86-5.81,2.97-3.5,5.13-7.15,10.17-10.68,15.28-.71,1.03-1.15,2.24-2.04,4.01h133.49ZM1396.48,1449.13c-35.14-41.89-69.92-83.35-104.63-124.72-14.7,12.35-28.9,24.28-43.4,36.47,34.89,41.59,69.67,83.06,104.7,124.8,4.56-3.52,8.68-6.7,13.41-10.36,1.7,1.93,3.12,3.49,4.47,5.11,63.82,76.06,127.62,152.13,191.44,228.19,10.24,12.2,20.51,24.38,30.69,36.64,1.61,1.94,3.11,3.22,5.89,2.5,6.71-1.75,13.48-3.29,21.25-5.16-79.13-94.35-157.7-188.03-236.34-281.79,4.47-4.17,8.39-7.83,12.52-11.69ZM1466.71,1371.89c-41.9-35.17-83.34-69.95-124.66-104.63-12.35,14.71-24.27,28.91-36.45,43.42,41.55,34.88,83.02,69.68,124.77,104.72,3.93-4.3,7.56-8.27,11.54-12.64,107.56,90.28,214.77,180.26,322.37,270.57,5.23-5.46,10.15-10.61,15.57-16.26-108.32-90.92-215.81-181.16-323.4-271.48,3.65-4.87,6.87-9.16,10.28-13.7ZM486.38,1332.81c47.46-27.41,94.31-54.48,141.02-81.46-9.61-16.63-18.91-32.7-28.36-49.08-46.85,27.07-93.72,54.13-140.98,81.44,2.64,5.14,5.01,9.76,7.82,15.22-86.31,49.85-172.3,99.53-258.85,149.53,6.09,5.73,11.55,10.87,17.07,16.07,84.54-48.82,168.6-97.36,253.04-146.13,3.15,4.91,6.13,9.55,9.25,14.41ZM437.84,1240.34c51.3-18.68,102.11-37.18,152.95-55.69-6.49-17.81-12.78-35.07-19.4-53.25-50.98,18.56-101.79,37.06-152.95,55.69,1.73,5.67,3.29,10.79,4.99,16.37-105.2,38.31-209.96,76.46-315.44,114.88,3.92,7.08,7.42,13.41,11,19.88,104.48-38.03,208.19-75.79,312.11-113.62,2.39,5.58,4.49,10.5,6.74,15.74ZM550.05,1415.07c9.35-6.33,122.22-101.74,124.44-105.04-11.9-14.16-23.74-28.26-35.92-42.76-41.45,34.8-83.03,69.62-124.73,104.74,3.76,4.91,7,9.15,10.38,13.56-64.65,54.28-128.82,108.15-193.55,162.49,6.94,4.59,13.04,8.62,19.54,12.92,63.13-52.99,125.71-105.5,188.48-158.18,4.06,4.38,7.72,8.35,11.36,12.27ZM295.88,1142.9c33.63-5.95,67.26-11.9,100.89-17.81,1.82-.32,3.69-.27,5.65-.39,1.24,5.59,2.35,10.63,3.57,16.12,18.33-3.2,36.08-6.29,53.82-9.42,17.96-3.16,35.92-6.39,53.87-9.57,17.66-3.13,35.38-5.98,52.65-9.4-3.32-18.89-6.49-36.95-9.77-55.61-13.54,2.38-26.88,4.72-40.21,7.08-13.38,2.36-26.75,4.73-40.13,7.1-13.38,2.37-26.76,4.7-40.13,7.1-13.25,2.37-26.6,4.22-39.76,7.3.72,5.93,1.35,11.07,2,16.45-2,.43-3.48.81-4.99,1.08-34.2,6.06-68.4,12.12-102.61,18.15-36.31,6.4-72.62,12.78-108.93,19.17-34.01,5.99-68.03,11.97-102.04,18-5.9,1.05-5.88,1.13-8.08,6.4v17.49c1.92-.23,3.86-.37,5.76-.7,36.5-6.41,73-12.82,109.5-19.26,36.31-6.4,72.61-12.83,108.91-19.25ZM748.06,1372.06c-27.08,46.93-54.11,93.77-81.44,141.11,4.96,3.15,9.48,6.02,14.43,9.16-30.63,53.1-61.03,105.79-91.73,159.02,7.32,2.77,13.97,5.3,21.26,8.06,30.15-52.22,60-103.91,89.96-155.78,5.46,2.85,10.19,5.31,15.16,7.9,27.39-47.45,54.43-94.31,81.42-141.09-16.57-9.58-32.61-18.86-49.06-28.37ZM815.17,1408.84c-4.19,8.27-54.85,148.77-55.18,153.29,4.69,1.97,9.48,3.98,14.84,6.24-18.97,52.18-37.72,103.73-56.72,155.96,7.45,2.06,14.27,3.94,21.65,5.97,18.95-51.59,37.37-102.96,56.27-154.28,5.73,1.82,10.67,3.4,16.23,5.16,18.68-51.32,37.21-102.28,55.71-153.11-17.96-6.54-35.39-12.89-52.82-19.23ZM627.48,1485.69c35.07-41.81,69.94-83.39,104.67-124.8-14.73-12.39-28.82-24.24-43.38-36.48-34.78,41.47-69.65,83.03-104.7,124.83,4.51,4.13,8.46,7.74,12.62,11.54-45.66,54.45-90.94,108.44-136.69,162.99,7.07,3.51,13.6,6.76,20.69,10.28,15.16-18.07,29.89-35.6,44.61-53.15,14.85-17.71,29.67-35.45,44.56-53.13,14.7-17.46,29.24-35.05,44.15-52.47,4.78,3.69,8.92,6.88,13.47,10.39ZM858.54,1593.46c5.82,1.33,10.89,2.49,16.66,3.82-9.21,52.35-18.31,104.06-27.54,156.47,7.65,1.23,14.62,2.35,22.05,3.55,9.51-52.36,18.26-104.28,27.72-156.08,6.09.69,11.38,1.3,16.91,1.93,9.5-53.95,18.87-107.14,28.23-160.23-19.01-3.34-37.21-6.53-55.79-9.8-9.44,53.62-18.82,106.84-28.25,160.35Z"></path></svg> 