<?xml version="1.0" encoding="UTF-8"?> <svg xmlns="http://www.w3.org/2000/svg" xmlns:xlink="http://www.w3.org/1999/xlink" id="Group_3367" data-name="Group 3367" width="93.375" height="93.375" viewBox="0 0 93.375 93.375"><defs><clipPath id="clip-path"><rect id="Rectangle_2531" data-name="Rectangle 2531" width="93.375" height="93.375" fill="none"></rect></clipPath></defs><g id="Group_3367-2" data-name="Group 3367" clip-path="url(#clip-path)"><path id="Path_5264" data-name="Path 5264" d="M83.585,93.375H9.79A9.79,9.79,0,0,1,0,83.585V9.791A9.79,9.79,0,0,1,9.79,0h73.8a9.791,9.791,0,0,1,9.791,9.791V83.585a9.791,9.791,0,0,1-9.791,9.791" fill="#1d1d1d"></path><path id="Path_5265" data-name="Path 5265" d="M48.259,35.534h-.185a14.794,14.794,0,1,1-4.333-10.459,14.742,14.742,0,0,1,4.333,10.459h.37A15.162,15.162,0,1,0,33.282,50.7,15.163,15.163,0,0,0,48.444,35.534Z" transform="translate(-4.707 -5.291)" fill="#fff"></path><path id="Path_5266" data-name="Path 5266" d="M52.473,55.811l6.737,6.123.249-.274-6.737-6.123" transform="translate(-13.63 -14.426)" fill="#fff"></path><path id="Path_5267" data-name="Path 5267" d="M42.975,92v-.185H30.816V79.845H42.79V92h.185v0h.185V79.475H30.446V92.189H43.16V92Z" transform="translate(-7.908 -20.643)" fill="#fff"></path><path id="Path_5268" data-name="Path 5268" d="M90.619,92v-.185H78.46V79.845H90.434V92h.185v0H90.8V79.475H78.09V92.189H90.8V92Z" transform="translate(-20.284 -20.643)" fill="#fff"></path><line id="Line_370" data-name="Line 370" x2="14.108" transform="translate(39.476 65.189)" fill="#232425"></line><path id="Path_5269" data-name="Path 5269" d="M53.2,88.3a.369.369,0,1,0-.262-.108.374.374,0,0,0,.262.108" transform="translate(-13.722 -22.744)" fill="#fffeff"></path><path id="Path_5270" data-name="Path 5270" d="M65.474,88.3h0a.37.37,0,1,0-.37-.37.37.37,0,0,0,.37.37m-2.822,0h0a.37.37,0,1,0-.37-.37.37.37,0,0,0,.37.37m-2.821,0h0a.37.37,0,1,0-.37-.37.37.37,0,0,0,.37.37m-2.822,0h0a.37.37,0,1,0-.37-.37.37.37,0,0,0,.37.37" transform="translate(-14.712 -22.744)" fill="#fffeff"></path><path id="Path_5271" data-name="Path 5271" d="M72.255,88.3a.369.369,0,1,0-.262-.108.374.374,0,0,0,.262.108" transform="translate(-18.672 -22.744)" fill="#fffeff"></path><line id="Line_371" data-name="Line 371" x2="6.324" transform="translate(47.259 29.685)" fill="#232425"></line><path id="Path_5272" data-name="Path 5272" d="M63.712,40.341a.369.369,0,1,0-.262-.108.374.374,0,0,0,.262.108" transform="translate(-16.453 -10.286)" fill="#fffeff"></path><path id="Path_5273" data-name="Path 5273" d="M67.983,40.341h0a.37.37,0,1,0-.37-.37.37.37,0,0,0,.37.37" transform="translate(-17.562 -10.286)" fill="#fffeff"></path><path id="Path_5274" data-name="Path 5274" d="M72.255,40.341a.369.369,0,1,0-.262-.108.374.374,0,0,0,.262.108" transform="translate(-18.672 -10.286)" fill="#fffeff"></path><line id="Line_372" data-name="Line 372" y2="14.108" transform="translate(64.164 40.501)" fill="#232425"></line><path id="Path_5275" data-name="Path 5275" d="M86.548,54.952a.369.369,0,1,0-.262-.108.374.374,0,0,0,.262.108" transform="translate(-22.385 -14.081)" fill="#fffeff"></path><path id="Path_5276" data-name="Path 5276" d="M86.178,66.858h0a.37.37,0,1,0,.37-.37.37.37,0,0,0-.37.37m0-2.822h0a.37.37,0,1,0,.37-.37.37.37,0,0,0-.37.37m0-2.821h0a.37.37,0,1,0,.37-.37.37.37,0,0,0-.37.37m0-2.822h0a.37.37,0,1,0,.37-.37.37.37,0,0,0-.37.37" transform="translate(-22.385 -15.071)" fill="#fffeff"></path><path id="Path_5277" data-name="Path 5277" d="M86.548,74.01a.369.369,0,1,0-.262-.108.374.374,0,0,0,.262.108" transform="translate(-22.385 -19.032)" fill="#fffeff"></path><line id="Line_373" data-name="Line 373" y2="6.414" transform="translate(28.66 48.194)" fill="#232425"></line><path id="Path_5278" data-name="Path 5278" d="M38.586,65.344a.369.369,0,1,0-.262-.108.374.374,0,0,0,.262.108" transform="translate(-9.927 -16.781)" fill="#fffeff"></path><path id="Path_5279" data-name="Path 5279" d="M38.216,70h0a.37.37,0,1,0,.37-.37.37.37,0,0,0-.37.37m0-2.138h0a.37.37,0,1,0,.37-.37.37.37,0,0,0-.37.37" transform="translate(-9.927 -17.531)" fill="#fffeff"></path><path id="Path_5280" data-name="Path 5280" d="M38.586,74.01a.369.369,0,1,0-.262-.108.374.374,0,0,0,.262.108" transform="translate(-9.927 -19.032)" fill="#fffeff"></path><path id="Path_5281" data-name="Path 5281" d="M49.365,51.117a.465.465,0,1,0-.329-.136.469.469,0,0,0,.329.136" transform="translate(-12.701 -13.035)" fill="#fffeff"></path><path id="Path_5282" data-name="Path 5282" d="M32.575,50.186h0a.466.466,0,1,0,.466.465.465.465,0,0,0-.466-.465m3.108,0h0a.466.466,0,1,0,.466.465.466.466,0,0,0-.466-.465m3.106,0h0a.466.466,0,1,0,.467.465.465.465,0,0,0-.467-.465m3.108,0h0a.466.466,0,1,0,.466.465.466.466,0,0,0-.466-.465" transform="translate(-8.34 -13.036)" fill="#fffeff"></path><path id="Path_5283" data-name="Path 5283" d="M28.377,51.117a.465.465,0,1,0-.329-.136.469.469,0,0,0,.329.136" transform="translate(-7.25 -13.035)" fill="#fffeff"></path><path id="Path_5284" data-name="Path 5284" d="M28.842,33.861h0a.466.466,0,1,0-.466.466.466.466,0,0,0,.466-.466m0,3.108h0a.466.466,0,1,0-.466.466.466.466,0,0,0,.466-.466m0,3.107h0a.466.466,0,1,0-.466.466.466.466,0,0,0,.466-.466m0,3.108h0a.466.466,0,1,0-.466.466.466.466,0,0,0,.466-.466" transform="translate(-7.25 -8.674)" fill="#fffeff"></path><path id="Path_5285" data-name="Path 5285" d="M28.377,30.129a.465.465,0,1,0-.329-.136.469.469,0,0,0,.329.136" transform="translate(-7.25 -7.584)" fill="#fffeff"></path><path id="Path_5286" data-name="Path 5286" d="M41.9,30.129h0a.466.466,0,1,0-.466-.466.466.466,0,0,0,.466.466m-3.108,0h0a.466.466,0,1,0-.466-.466.466.466,0,0,0,.466.466m-3.107,0h0a.466.466,0,1,0-.466-.466.466.466,0,0,0,.466.466m-3.108,0h0a.466.466,0,1,0-.466-.466.466.466,0,0,0,.466.466" transform="translate(-8.34 -7.584)" fill="#fffeff"></path><path id="Path_5287" data-name="Path 5287" d="M49.365,30.129a.465.465,0,1,0-.329-.136.469.469,0,0,0,.329.136" transform="translate(-12.701 -7.584)" fill="#fffeff"></path><path id="Path_5288" data-name="Path 5288" d="M48.9,43.183h0a.466.466,0,1,0,.466-.466.466.466,0,0,0-.466.466m0-3.108h0a.466.466,0,1,0,.466-.466.466.466,0,0,0-.466.466m0-3.107h0a.466.466,0,1,0,.466-.466.466.466,0,0,0-.466.466m0-3.108h0a.466.466,0,1,0,.466-.466.466.466,0,0,0-.466.466" transform="translate(-12.701 -8.674)" fill="#fffeff"></path><path id="Path_5289" data-name="Path 5289" d="M90.619,44.262v-.185H78.46V32.1H90.434V44.262h.185v0H90.8V31.732H78.09V44.447H90.8v-.185Z" transform="translate(-20.284 -8.242)" fill="#fff"></path></g></svg> 