<?xml version="1.0" encoding="UTF-8"?> <svg xmlns="http://www.w3.org/2000/svg" xmlns:xlink="http://www.w3.org/1999/xlink" id="Layer_1" data-name="Layer 1" viewBox="0 0 1200 675"><defs><style> .cls-1 { fill: #414042; } .cls-1, .cls-2, .cls-3 { stroke-width: 0px; } .cls-2 { fill: url(#radial-gradient); } .cls-3 { fill: url(#radial-gradient-2); } </style><radialGradient id="radial-gradient" cx="-2840.45" cy="-257.7" fx="-2840.45" fy="-257.7" r="18.74" gradientTransform="translate(44889.52 -3701.57) scale(15.71 -15.73)" gradientUnits="userSpaceOnUse"><stop offset=".47" stop-color="#4388dd"></stop><stop offset="1" stop-color="#ff4581"></stop></radialGradient><radialGradient id="radial-gradient-2" cx="-2969.17" cy="-207.85" fx="-2969.17" fy="-207.85" r="7.13" gradientTransform="translate(123014.62 -8227.49) scale(41.32 -41.27)" xlink:href="#radial-gradient"></radialGradient></defs><path id="Path_5055" data-name="Path 5055" class="cls-2" d="M320.38,367.4c-1.01,2.32-2.87,4.17-5.19,5.19-1.01.47-2.13.69-3.24.64h-103.07c19.92,41.66,69.85,59.29,111.51,39.37,23.88-11.42,40.95-33.47,46.01-59.46,1.95-10.93,1.95-22.13,0-33.06h-84.94l36.3,36.3c.78.99,1.43,2.08,1.92,3.24.47,1.01.69,2.13.64,3.24.38,1.49.4,3.04.05,4.54Z"></path><path id="Path_5056" data-name="Path 5056" class="cls-3" d="M386.5,320.73c.77,5.59,1.2,11.21,1.28,16.85-.13,57.02-46.46,103.15-103.49,103.01-45.62-.1-85.76-30.13-98.74-73.86q0-.64-.64-1.28c-5.62-19.29-5.39-39.82.64-58.99,13.31-39.59,48.55-67.73,90.1-71.95,30.59-2.51,60.73,8.64,82.32,30.47,3.83,3.91,3.76,10.19-.15,14.02-1.86,1.82-4.36,2.84-6.97,2.83-2.71-.11-5.26-1.27-7.13-3.24-17.47-17.77-41.96-26.81-66.78-24.63-36.95,3.69-67.17,31.03-74.55,67.42-1.95,10.93-1.95,22.13,0,33.06h84.91l-36.3-36.3c-.78-.99-1.43-2.08-1.92-3.24-.47-1.01-.69-2.13-.64-3.24-.17-1.12.05-2.27.64-3.24,1.28-2.56,2.56-4.53,5.19-5.19,1.01-.47,2.13-.69,3.24-.64h154.26c-15.62-57.88-68.4-97.87-128.35-97.25-69.59,1.18-126.59,55.65-130.94,125.12-3.8,72.98,52.28,135.23,125.27,139.03,72.98,3.8,135.23-52.28,139.03-125.27.12-2.21.17-4.42.18-6.64-.1-5.64-.53-11.26-1.28-16.85h-29.19Z"></path><path id="Path_5057" data-name="Path 5057" class="cls-1" d="M527.16,302.58l-10.37,5.83c-1.44-2.38-3.18-4.56-5.19-6.48-2.1-1.4-4.61-2.07-7.13-1.92-3.12-.03-6.13,1.13-8.43,3.24-2.21,1.68-3.43,4.36-3.24,7.13,0,3.89,3.24,7.13,9.08,9.72l8.43,3.24c5.94,1.79,11.16,5.42,14.91,10.37,3.22,4.28,4.83,9.56,4.53,14.91.36,14.68-11.25,26.87-25.93,27.23-.43.01-.86.01-1.3,0-6.67.35-13.21-1.98-18.15-6.48-4.94-4.81-7.94-11.27-8.43-18.15l12.96-2.56c-.03,3.71,1.1,7.34,3.24,10.37,2.67,3.71,7.13,5.7,11.67,5.19,3.64.1,7.16-1.31,9.72-3.89,2.7-2.75,4.11-6.52,3.89-10.37.16-1.54-.06-3.1-.64-4.53l-1.92-3.89c-.64-1.28-1.92-1.92-3.89-3.24-1.52-1.23-3.29-2.11-5.19-2.56l-7.78-3.24c-11.67-4.54-17.5-11.67-17.5-21.39-.11-6,2.51-11.73,7.13-15.56,4.94-4.5,11.48-6.84,18.15-6.48,8.41-.71,15.53,3.8,21.37,13.52Z"></path><path id="Path_5058" data-name="Path 5058" class="cls-1" d="M562.82,320.73v30.47c0,9.08,3.24,12.96,10.37,12.96s10.37-4.53,10.37-12.96v-30.47h12.32v30.47c-.03,3.71-.46,7.41-1.28,11.02-1.12,2.76-2.9,5.21-5.18,7.13-4.25,3.8-9.88,5.68-15.56,5.19-5.64.18-11.16-1.66-15.56-5.19-2.47-1.73-4.3-4.24-5.19-7.13-1.23-3.54-1.67-7.3-1.28-11.02v-30.47h10.99Z"></path><path id="Path_5059" data-name="Path 5059" class="cls-1" d="M631.53,281.84v44.72c4.26-4.87,10.39-7.69,16.86-7.78,6.71-.19,13.15,2.67,17.5,7.78,9.51,11.71,9.51,28.48,0,40.19-4.62,5.13-11.25,7.97-18.15,7.78-6.13-.14-11.96-2.7-16.2-7.13v6.48h-12.32v-92.05h12.31ZM660.7,347.31c.21-4.44-1.17-8.8-3.89-12.32-2.5-3.2-6.31-5.1-10.37-5.19-4.18-.3-8.26,1.38-11.02,4.53-5.19,7.39-5.19,17.24,0,24.63,2.76,3.16,6.84,4.84,11.02,4.53,3.99.3,7.88-1.4,10.37-4.53,2.81-3.2,4.21-7.41,3.89-11.66h0Z"></path><path id="Path_5060" data-name="Path 5060" class="cls-1" d="M781.92,375.19h-16.2l-6.48-6.48c-6.98,4.39-15.09,6.64-23.34,6.48-10.92-.11-21.46-4-29.82-11.02-17.71-15.97-19.12-43.26-3.15-60.97.8-.89,1.64-1.74,2.51-2.56,8.03-8.12,19.05-12.57,30.47-12.32,10.52.13,20.65,4.04,28.52,11.02,9.99,8.27,15.51,20.75,14.91,33.71.12,11.01-4.34,21.57-12.32,29.17l14.9,12.97ZM747.56,340.18l12.32,12.32c5.19-5.64,7.98-13.08,7.78-20.75.17-8.48-3.1-16.67-9.08-22.69-5.84-5.85-13.77-9.12-22.04-9.08-8.29-.17-16.27,3.12-22.04,9.08-5.79,6.1-8.83,14.29-8.43,22.69-.17,8.29,3.12,16.27,9.08,22.04,5.72,5.62,13.37,8.87,21.39,9.08,5.22.02,10.36-1.32,14.91-3.89l-19.45-19.44h15.56v.65Z"></path><path id="Path_5061" data-name="Path 5061" class="cls-1" d="M814.33,320.73v30.47c0,9.08,3.24,12.96,10.37,12.96s10.37-4.53,10.37-12.96v-30.47h12.32v30.47c-.03,3.71-.46,7.41-1.28,11.02-1.13,2.76-2.91,5.21-5.19,7.13-4.25,3.8-9.88,5.68-15.56,5.19-5.64.18-11.16-1.66-15.56-5.19-2.47-1.73-4.3-4.24-5.19-7.13-1.23-3.53-1.67-7.3-1.28-11.02v-30.47h11Z"></path><path id="Path_5062" data-name="Path 5062" class="cls-1" d="M919.34,349.9h-37.6c.29,3.87,1.9,7.53,4.55,10.37,2.57,2.58,6.08,3.99,9.72,3.89,2.73.14,5.43-.53,7.78-1.92,2.6-2.19,4.8-4.82,6.48-7.78l10.37,5.83c-1.35,2.63-3.1,5.03-5.19,7.13-1.78,1.71-3.74,3.23-5.83,4.53-2.04,1.13-4.22,1.99-6.48,2.56-2.56.53-5.17.75-7.78.64-7.11.32-14-2.53-18.8-7.78-9.51-11.71-9.51-28.48,0-40.19,4.8-5.26,11.69-8.11,18.8-7.78,6.8-.38,13.43,2.22,18.15,7.13,4.72,5.84,7.04,13.26,6.48,20.75l-.67,2.63ZM907.03,340.18c-1.07-5.88-6.35-10.05-12.32-9.72-1.33-.1-2.66.12-3.89.64-1.16.49-2.25,1.14-3.24,1.92-1.2.77-2.11,1.91-2.59,3.24l-1.92,3.89,23.96.03Z"></path><path id="Path_5063" data-name="Path 5063" class="cls-1" d="M941.38,320.73h12.32v4.53c1.56-1.95,3.56-3.51,5.83-4.53,2.07-.8,4.26-1.23,6.48-1.28,3.66.27,7.21,1.38,10.37,3.24l-5.83,11.02c-1.81-1.57-4.09-2.47-6.48-2.56-6.48,0-9.72,5.19-9.72,14.91v27.87h-12.32v-53.16l-.65-.04Z"></path><path id="Path_5064" data-name="Path 5064" class="cls-1" d="M1012.69,363.52l-23.99-42.78h14.26l16.2,30.47,14.91-30.47h13.62l-42.14,81.67h-14.26l21.4-38.89Z"></path></svg> 