<?xml version="1.0" encoding="UTF-8"?> <svg xmlns="http://www.w3.org/2000/svg" id="Layer_1" data-name="Layer 1" viewBox="0 0 1200 675"><defs><style> .cls-1 { fill: #d1903b; } .cls-1, .cls-2, .cls-3 { stroke-width: 0px; } .cls-2 { fill: #161c25; } .cls-3 { fill: #d1913b; } </style></defs><path class="cls-1" d="M126.69,356.1c24.15-17.74,48.31-35.48,72.44-53.24,17.86-13.15,35.7-26.33,53.54-39.49,1.29-.95,2.61-1.86,3.86-2.75,1.26.7.82,1.75.82,2.6.03,13.14,0,26.27.05,39.41,0,2.16-.48,3.72-2.37,5.11-42.11,30.98-84.17,62.04-126.25,93.06-.63.47-1.39.77-2.09,1.15,0-15.28,0-30.57,0-45.85Z"></path><path class="cls-1" d="M173.59,259.57c.6,1.34,1.88.67,2.84.92,7.2,1.84,12.24,6,14.24,13.28,1.99,7.25.35,13.95-5.51,18.52-13.52,10.56-27.46,20.57-41.19,30.78-1.44-1.14-.87-2.44-.87-3.54-.05-12.85.03-25.69-.08-38.54-.02-2.37.59-3.94,2.59-5.34,5.38-3.77,10.68-7.68,15.87-11.71,3.14-2.44,7.01-2.9,10.5-4.37h1.62Z"></path><path class="cls-2" d="M384.49,276.85c0,25.21.03,49.69-.05,74.18,0,2.38-.53,4.79-1.09,7.12-4.27,17.68-18.42,29.49-37.72,31.7-8.49.97-16.94.85-25.27-1.01-20.23-4.51-31.67-17.8-32.25-38.98-.64-23.43-.28-46.88-.44-70.32-.01-2.16.73-2.76,2.78-2.72,5.65.1,11.32.19,16.97-.03,2.9-.11,3.55.89,3.53,3.63-.11,21.03-.06,42.07-.06,63.11,0,3.09.12,6.14.9,9.16,1.99,7.67,6.47,13.1,14.09,15.75,6.98,2.42,14.03,2.41,20.96,0,9.53-3.31,14.91-11.78,14.97-23.39.07-15.94.09-31.89-.05-47.83-.02-2.72.84-4.36,3.04-5.91,6.46-4.55,12.75-9.34,19.68-14.46Z"></path><path class="cls-2" d="M900.14,347.64c0-12.33.07-24.66-.06-36.99-.03-2.65.44-3.85,3.46-3.67,4.43.27,8.89.15,13.33.03,1.98-.05,2.84.47,3.05,2.62.34,3.44,1.03,6.85,1.79,10.23.22.96-.01,2.5,1.87,2.61,1.6.1,2.1-.88,2.62-1.97,6.73-14.16,22.22-17.33,35.01-13.9,10.34,2.78,17.48,12.64,18.46,24.74,1.48,18.33.29,36.68.73,55.02.05,2.15-.71,2.75-2.79,2.71-5.52-.12-11.05-.18-16.57.02-2.61.09-3.12-.86-3.11-3.23.1-14.47-.2-28.95.12-43.42.31-14.15-7.19-19.09-15.4-19.35-11.41-.36-20.06,7.56-20.33,19.17-.33,14.33-.23,28.68-.11,43.01.02,2.93-.61,4.02-3.75,3.83-4.83-.28-9.71-.33-14.54.01-3.46.24-3.88-1.2-3.85-4.1.13-12.46.06-24.93.06-37.39Z"></path><path class="cls-2" d="M805.52,335.18c-6.63,0-13.08-.06-19.53.04-1.75.03-2.18-.89-2.76-2.22-3.6-8.25-10.12-11.35-20.53-9.88-7.36,1.04-12.7,6.91-13.54,15.18-.68,6.67-.67,13.36.01,20.03.83,8.06,6.26,13.68,14.02,14.67,9.78,1.25,17.02-2.38,20.03-10.31.74-1.96,1.6-2.64,3.7-2.59,6.17.15,12.35.05,18.56.05-2.09,16.55-13.6,27.74-29.74,29.8-7.45.95-14.77.91-21.96-1.04-12.27-3.32-20.68-11.12-24.6-23.14-3.87-11.87-3.8-23.96.25-35.8,4.97-14.56,17.71-23.63,33.99-24.46,12.33-.62,23.81,1.54,32.96,10.73,5.18,5.21,8.01,11.5,9.14,18.94Z"></path><path class="cls-2" d="M1000.04,350.06c0-7.63-.08-15.27.05-22.9.04-2.25-.59-3.29-2.93-2.93-.26.04-.54.02-.81,0-3.57-.25-7.18.52-10.73-.44-.08-5.2-.19-10.4-.22-15.6,0-1.47,1.24-1.11,2.1-1.12,3.23-.03,6.47-.15,9.69.03,2.31.13,2.95-.63,2.9-2.9-.14-6.69.09-13.4-.12-20.09-.09-2.89.89-3.67,3.67-3.56,4.84.2,9.7.22,14.54,0,2.74-.13,3.74.52,3.63,3.46-.24,6.55.1,13.13-.15,19.68-.11,2.95.88,3.6,3.61,3.42,3.62-.24,7.27.03,10.9-.09,1.89-.06,2.62.48,2.56,2.46-.13,4.01-.15,8.04,0,12.05.08,2.12-.62,2.81-2.73,2.73-3.76-.14-7.54.07-11.31-.08-2.19-.09-3.03.47-3.01,2.85.11,14.2.1,28.4,0,42.59-.02,2.2.7,2.7,2.75,2.62,3.76-.15,7.54.07,11.31-.09,2.21-.09,3.12.46,3,2.85-.2,3.87-.06,7.77-.05,11.65,0,1.24.12,2.45-1.76,2.39-7.92-.29-15.91.82-23.76-.57-9-1.6-13-6.8-13.11-16.32-.09-7.37-.02-14.73-.02-22.1Z"></path><path class="cls-2" d="M679.73,353.82c0-10.04-.02-20.08,0-30.12.03-10.41,5.88-16.43,16.38-16.61,9.15-.16,18.3.03,27.45-.08,2.29-.03,3.08.64,2.97,2.94-.17,3.74-.21,7.5,0,11.24.15,2.61-.92,3.14-3.28,3.09-6.19-.13-12.38.09-18.57-.11-2.71-.09-3.35.8-3.34,3.39.11,19.14-.03,38.28.14,57.42.03,3.41-.97,4.32-4.26,4.13-4.83-.28-9.69-.24-14.52,0-2.63.13-3.07-.8-3.05-3.17.12-10.71.05-21.42.05-32.13Z"></path><path class="cls-1" d="M202.99,412.23c0-5.82,0-11.39,0-16.96,0-8.43.03-16.86-.02-25.28-.01-1.99.36-3.51,2.17-4.79,6.13-4.34,12.05-8.97,18.19-13.29,8.69-6.13,19.62-4.61,25.91,3.43,6.17,7.88,4.99,19.33-3.36,25.75-13.6,10.47-27.56,20.48-41.38,30.67-.27.2-.69.22-1.52.48Z"></path><path class="cls-3" d="M1062,391.49c-6.43,0-11.18-4.74-11.15-11.15.03-6.12,4.86-11.01,10.93-11.06,6.27-.05,11.39,4.85,11.54,11.04.14,6.03-5.07,11.17-11.31,11.17Z"></path><path class="cls-2" d="M579.92,327.03c-4.03-12.31-12.65-20.16-25.84-21.44-13.21-1.28-24.41,2.68-31.11,15.15-.59,1.1-1.22,1.69-2.46,1.55-1.31-.14-1.25-1.37-1.43-2.13-.74-3.24-1.42-6.5-1.84-9.79-.34-2.61-1.46-3.55-4.15-3.4-4.16.23-8.36.24-12.52,0-2.86-.17-3.59.74-3.57,3.55.14,16.75.07,33.5.07,50.25,0,16.88.1,33.77-.08,50.65-.03,3.28.96,4.14,4.09,3.98,4.7-.24,9.44-.28,14.13,0,3.45.22,4.28-.99,4.23-4.28-.19-11.52-.09-23.04-.04-34.57,0-1.02-.72-2.55,1.26-2.82,1.54-.21,2.03.68,2.56,1.9.52,1.21,1.39,2.27,2.13,3.38,10.18,15.35,43.7,16.65,53.35-7.58,5.83-14.65,6.1-29.57,1.24-44.42ZM559.26,348.45c-.39,2.94.43,6.51-.53,10.11-2.04,7.63-6.28,11.68-13.98,12.81-14.29,2.08-24.34-6.52-24.27-20.9.02-3.71-.07-7.38.59-11.13,2.13-12.07,13.53-16.89,23.52-15.1,10.53,1.88,14.67,7.36,14.68,17.99,0,1.87,0,3.74,0,6.23Z"></path><path class="cls-2" d="M483.29,325.3c-5.89-15.26-19.79-22.34-35.93-19.16-8.86,1.75-15.52,6.28-19.94,14.1-.64,1.13-1.04,2.41-2.86,2.1-1.93-.33-1.11-1.91-1.37-2.87-.66-2.43-1.15-4.93-1.45-7.43-.43-3.62-1.7-5.66-5.98-5.07-3.44.47-7.01.32-10.49.03-3.05-.26-3.78.7-3.75,3.71.16,16.75.08,33.51.08,50.26,0,17.02.05,34.04-.05,51.06-.01,2.39.48,3.27,3.07,3.16,5.11-.22,10.24-.24,15.35,0,2.95.14,3.53-.92,3.5-3.63-.14-11.52-.09-23.05,0-34.58,0-1.1-1.05-2.82,1.08-3.3,1.97-.45,2.42,1.06,3.13,2.37,2.09,3.82,4.89,7.05,8.66,9.33,13.53,8.19,38.16,7.34,46.78-14.74,5.84-14.96,6.01-30.29.19-45.34ZM463.54,352.68c.24,16.78-11.68,20.35-23.51,18.43-9.44-1.53-15.11-8.84-15.07-18.42.02-5.45-.84-10.99.95-16.34,2.62-7.85,9.98-12.51,19.57-12.45,8.8.05,14.97,4.01,17.13,11.21,1.24,4.15.94,8.47.93,12.74,0,1.61-.02,3.21,0,4.82Z"></path><path class="cls-2" d="M887.05,364.94c-5.65,0-11.31.06-16.96-.04-1.57-.03-2.3.64-3.16,1.86-4.9,6.89-14.27,9.5-23.06,6.59-7.59-2.52-11.21-8.33-11.41-17.38-.07-3.2,1.02-3.68,3.88-3.65,15.21.13,30.43.06,45.64.06,6.77,0,6.97.01,7.34-6.74.79-14.29-3.59-26.36-16.16-34.44-8-5.14-17.03-6.15-26.3-5.73-16.19.73-29.85,10.86-34.32,25.74-3.3,10.99-3.45,22.17-.06,33.13,3.46,11.19,10.52,19.52,21.85,23.46,12.67,4.4,25.36,3.95,37.59-1.65,9.1-4.17,15.25-11.07,17.8-21.21-1.06,0-1.86,0-2.66,0ZM834.14,334.9c.2-1.04.4-2.09.78-3.07,2.6-6.73,9.27-9.8,18.85-8.73,6.62.74,11.22,5.23,12.48,11.72.5,2.56-.39,2.88-2.59,2.82-4.44-.13-8.89-.04-13.34-.04-4.58,0-9.17-.14-13.74.06-2.32.1-2.81-.83-2.44-2.76Z"></path><path class="cls-2" d="M648.79,364.92c-1.56-.01-1.94,1.12-2.63,2.08-4.74,6.58-14.23,9.23-22.84,6.43-7.39-2.4-11.23-8.28-11.59-16.92-.13-3.29.67-4.26,4.13-4.22,16.29.2,32.59.11,48.88.05,1.25,0,3.36.94,3.57-1.31,1.14-12.1.48-23.87-8.34-33.46-10.45-11.35-23.78-13.66-38.35-11.37-14.7,2.31-24.8,10.36-29.39,24.53-4.08,12.58-3.84,25.27,1.08,37.6,3.87,9.69,11.04,16.4,20.97,19.75,10.88,3.67,21.97,3.57,32.8-.17,11.01-3.8,18.79-11.01,22.01-22.95-6.92,0-13.61.03-20.3-.02ZM613.44,334.4c.15-.91.45-1.81.79-2.67,2.5-6.47,9.77-9.76,18.98-8.63,6.57.81,11.53,5.5,12.49,11.75.3,1.94,0,2.91-2.39,2.81-4.57-.2-9.16-.06-13.74-.06-4.45,0-8.9-.21-13.33.08-2.87.19-3.15-1.15-2.79-3.27Z"></path></svg> 