<?xml version="1.0" encoding="UTF-8"?> <svg xmlns="http://www.w3.org/2000/svg" xmlns:xlink="http://www.w3.org/1999/xlink" id="Group_3368" data-name="Group 3368" width="93.375" height="93.375" viewBox="0 0 93.375 93.375"><defs><clipPath id="clip-path"><rect id="Rectangle_2532" data-name="Rectangle 2532" width="93.375" height="93.375" fill="none"></rect></clipPath></defs><g id="Group_3368-2" data-name="Group 3368" clip-path="url(#clip-path)"><path id="Path_5290" data-name="Path 5290" d="M83.585,93.375H9.79A9.79,9.79,0,0,1,0,83.585V9.791A9.79,9.79,0,0,1,9.79,0h73.8a9.791,9.791,0,0,1,9.791,9.791V83.585a9.791,9.791,0,0,1-9.791,9.791" fill="#1d1d1d"></path><path id="Path_5291" data-name="Path 5291" d="M75.282,69.472a26.878,26.878,0,1,0-42.592-.429l.3-.226a26.505,26.505,0,1,1,42,.423Z" transform="translate(-7.084 -6.747)" fill="#fff"></path><path id="Path_5292" data-name="Path 5292" d="M75.717,53.454V28.281h-.374V53.454" transform="translate(-19.57 -7.346)" fill="#fff"></path><path id="Path_5293" data-name="Path 5293" d="M51.692,53.454V28.282h-.374V53.454" transform="translate(-13.33 -7.346)" fill="#fff"></path><path id="Path_5294" data-name="Path 5294" d="M64.8,94.99l.16-.1a4.574,4.574,0,1,0,.67,2.379,4.574,4.574,0,0,0-.67-2.379l-.16.1-.16.1a4.2,4.2,0,1,1-3.589-2.013,4.181,4.181,0,0,1,3.589,2.013Z" transform="translate(-14.67 -24.079)" fill="#fff"></path><path id="Path_5295" data-name="Path 5295" d="M96.032,78.075a4.388,4.388,0,1,0-1.461,6.031,4.389,4.389,0,0,0,1.461-6.031" transform="translate(-22.831 -19.734)" fill="#1d1d1d"></path><path id="Path_5296" data-name="Path 5296" d="M95.966,78.009l.16-.1a4.574,4.574,0,1,0,.67,2.38,4.574,4.574,0,0,0-.67-2.38l-.16.1-.16.1a4.2,4.2,0,1,1-3.589-2.013,4.183,4.183,0,0,1,3.589,2.013Z" transform="translate(-22.766 -19.668)" fill="#fff"></path><path id="Path_5297" data-name="Path 5297" d="M30.508,84.44a4.388,4.388,0,1,0-4.747-4,4.387,4.387,0,0,0,4.747,4" transform="translate(-6.687 -19.658)" fill="#1d1d1d"></path><path id="Path_5298" data-name="Path 5298" d="M30.442,84.375l.016.187a4.575,4.575,0,0,0,4.183-4.553c0-.131-.005-.264-.017-.4a4.575,4.575,0,0,0-4.553-4.183c-.131,0-.263.005-.4.017A4.575,4.575,0,0,0,25.491,80c0,.131.006.263.017.4a4.575,4.575,0,0,0,4.553,4.184c.131,0,.264-.006.4-.017l-.016-.187-.016-.187q-.183.016-.364.016a4.2,4.2,0,0,1-4.18-3.841c-.01-.122-.016-.244-.016-.364a4.2,4.2,0,0,1,3.841-4.181c.122-.01.244-.016.364-.016a4.2,4.2,0,0,1,4.181,3.842q.016.183.016.364a4.2,4.2,0,0,1-3.842,4.18Z" transform="translate(-6.621 -19.592)" fill="#fff"></path><line id="Line_374" data-name="Line 374" x1="10.777" y1="6.702" transform="translate(52.539 50.264)" fill="#232425"></line><path id="Path_5299" data-name="Path 5299" d="M85.4,77.2a.369.369,0,1,0-.262-.108.374.374,0,0,0,.262.108" transform="translate(-22.087 -19.859)" fill="#fffeff"></path><path id="Path_5300" data-name="Path 5300" d="M73.951,69.267h0a.37.37,0,1,0,.118.51.37.37,0,0,0-.118-.51m2.155,1.341h0a.37.37,0,1,0,.119.509.37.37,0,0,0-.119-.509m2.156,1.34h0a.37.37,0,1,0,.119.51.369.369,0,0,0-.119-.51m2.156,1.341h0a.37.37,0,1,0,.119.51.37.37,0,0,0-.119-.51" transform="translate(-19.062 -17.977)" fill="#fffeff"></path><path id="Path_5301" data-name="Path 5301" d="M70.844,68.141a.369.369,0,1,0-.262-.108.374.374,0,0,0,.262.108" transform="translate(-18.305 -17.507)" fill="#fffeff"></path><line id="Line_375" data-name="Line 375" y1="6.659" x2="10.804" transform="translate(29.342 50.126)" fill="#232425"></line><path id="Path_5302" data-name="Path 5302" d="M39.508,76.949a.369.369,0,1,0-.262-.108.374.374,0,0,0,.262.108" transform="translate(-10.166 -19.795)" fill="#fffeff"></path><path id="Path_5303" data-name="Path 5303" d="M49.1,69.7h0a.37.37,0,1,0-.509-.121.371.371,0,0,0,.509.121M46.944,71.03h0a.37.37,0,1,0-.509-.121.37.37,0,0,0,.509.121m-2.161,1.332h0a.37.37,0,1,0-.509-.121.37.37,0,0,0,.509.121m-2.161,1.332h0a.37.37,0,1,0-.509-.121.37.37,0,0,0,.509.121" transform="translate(-10.924 -17.926)" fill="#fffeff"></path><path id="Path_5304" data-name="Path 5304" d="M54.1,67.955a.369.369,0,1,0-.262-.108.375.375,0,0,0,.262.108" transform="translate(-13.957 -17.459)" fill="#fffeff"></path><line id="Line_376" data-name="Line 376" y2="12.739" transform="translate(46.383 54.204)" fill="#232425"></line><path id="Path_5305" data-name="Path 5305" d="M62.528,73.464a.369.369,0,1,0-.262-.108.374.374,0,0,0,.262.108" transform="translate(-16.145 -18.89)" fill="#fffeff"></path><path id="Path_5306" data-name="Path 5306" d="M62.158,84.179h0a.37.37,0,1,0,.37-.37.37.37,0,0,0-.37.37m0-2.548h0a.37.37,0,1,0,.37-.37.37.37,0,0,0-.37.37m0-2.547h0a.37.37,0,1,0,.37-.37.371.371,0,0,0-.37.37m0-2.548h0a.37.37,0,1,0,.37-.37.37.37,0,0,0-.37.37" transform="translate(-16.145 -19.784)" fill="#fffeff"></path><path id="Path_5307" data-name="Path 5307" d="M62.528,90.673a.369.369,0,1,0-.262-.108.374.374,0,0,0,.262.108" transform="translate(-16.145 -23.36)" fill="#fffeff"></path><path id="Path_5308" data-name="Path 5308" d="M80.909,62.034H27.525v.374H80.909" transform="translate(-7.15 -16.113)" fill="#fff"></path><path id="Path_5309" data-name="Path 5309" d="M27.653,57.13c0-3.9,2.917-7.484,7.712-10.093s11.43-4.226,18.766-4.226,13.975,1.62,18.765,4.226,7.716,6.189,7.712,10.093h.376c0-4.108-3.052-7.782-7.908-10.423s-11.554-4.271-18.945-4.272-14.085,1.629-18.946,4.272S27.28,53.023,27.277,57.13Z" transform="translate(-7.085 -11.022)" fill="#fff"></path><path id="Path_5310" data-name="Path 5310" d="M65.22,58.878a4.388,4.388,0,1,0-1.461,6.031,4.388,4.388,0,0,0,1.461-6.031" transform="translate(-14.828 -14.747)" fill="#1d1d1d"></path><path id="Path_5311" data-name="Path 5311" d="M65.154,58.812l.16-.1a4.574,4.574,0,1,0,.67,2.379,4.574,4.574,0,0,0-.67-2.379l-.16.1-.16.1A4.2,4.2,0,1,1,61.4,56.9a4.181,4.181,0,0,1,3.59,2.013Z" transform="translate(-14.762 -14.681)" fill="#fff"></path></g></svg> 