<?xml version="1.0" encoding="UTF-8"?> <svg xmlns="http://www.w3.org/2000/svg" id="Layer_1" data-name="Layer 1" viewBox="0 0 1483 1483"><defs><style> .cls-1 { fill: #fff; fill-rule: evenodd; stroke-width: 0px; } </style></defs><path class="cls-1" d="M35.55,28.94c4.82,6.88,116.44,169.34,248.05,361.04,131.61,191.69,253.33,368.97,270.5,393.94,17.17,24.98,31.21,45.92,31.21,46.53s-6.39,8.5-14.21,17.52c-7.81,9.02-29.82,34.55-48.9,56.74-19.08,22.19-51.25,59.58-71.49,83.1-20.23,23.52-55.83,64.91-79.11,91.97-23.27,27.07-65.13,75.73-93.01,108.14-86.23,100.24-98.67,114.72-164.32,191.18-35.05,40.82-68.66,79.86-74.69,86.74-6.03,6.88-10.96,13.24-10.96,14.12,0,1.03,22.02,1.6,62.03,1.6h62.03l68.19-79.47c37.51-43.71,74.5-86.73,82.22-95.6,16.68-19.19,143.88-167.19,154.57-179.85,4.09-4.85,10.04-11.74,13.21-15.33,3.18-3.59,28.2-32.66,55.61-64.61,27.41-31.95,50.59-58.87,51.51-59.83.92-.96,15.43-17.84,32.25-37.52,16.82-19.68,31.1-35.78,31.73-35.78s87.02,125.07,191.97,277.94c104.95,152.86,192.69,280.64,194.98,283.95l4.16,6.02,212.76.04c174.97.03,212.62-.34,211.95-2.08-.71-1.85-102.65-150.54-364.16-531.17-188.26-274.01-213.29-310.83-212.57-312.7.7-1.82,26.34-31.81,194.92-227.98,28.92-33.65,68.78-80.06,88.58-103.13,19.8-23.07,39.8-46.31,44.43-51.63,4.63-5.32,29-33.64,54.15-62.93,25.15-29.29,67.9-79.05,95-110.58,27.1-31.53,50.28-58.58,51.49-60.11,2.09-2.61-1.46-2.77-60.79-2.77h-63l-28.02,32.67c-37.29,43.49-104.71,121.9-123.85,144.06-8.46,9.79-19.01,22.1-23.45,27.34-4.44,5.25-13.19,15.39-19.45,22.54s-37.82,43.86-70.13,81.57c-32.31,37.72-59.19,68.94-59.73,69.38-.54.44-7.46,8.47-15.39,17.85-13.85,16.39-27.95,32.8-92.62,107.79-28.38,32.92-29.84,34.33-32.23,31.3-1.38-1.74-84.55-122.72-184.84-268.83L453.8,16.47l-213.51-.02-213.51-.02,8.76,12.51M202.19,116.06c1.6,2.45,41.49,59.63,88.65,127.08,89.43,127.92,440.85,630.88,666.85,954.43,72.22,103.39,132.19,188.89,133.27,190.01,1.54,1.6,22.57,1.94,98.26,1.61l96.3-.42-251.99-360.63c-138.6-198.35-339.26-485.52-445.92-638.17L393.67,112.45l-97.19-.42-97.19-.42,2.91,4.45"></path></svg> 